<svg id="svg" version="1.1" xmlns="http://www.w3.org/2000/svg" xmlns:xlink="http://www.w3.org/1999/xlink" width="400" height="400" viewBox="0, 0, 400,400"><g id="svgg"><path id="path0" d="M168.563 116.773 C 149.004 136.338,132.952 152.583,132.893 152.873 C 132.834 153.163,139.086 159.697,146.788 167.393 L 160.791 181.386 196.855 145.325 L 232.919 109.263 218.849 95.231 C 211.110 87.514,204.631 81.200,204.452 81.200 C 204.273 81.200,188.123 97.208,168.563 116.773 M190.244 181.839 C 158.650 213.431,132.800 239.463,132.800 239.689 C 132.800 240.318,160.209 267.600,160.842 267.600 C 161.468 267.600,276.000 153.224,276.000 152.599 C 276.000 152.168,248.370 124.400,247.941 124.400 C 247.802 124.400,221.838 150.248,190.244 181.839 M103.280 182.045 C 95.536 189.769,89.200 196.170,89.200 196.269 C 89.200 196.636,117.071 224.400,117.439 224.400 C 117.886 224.400,145.600 196.679,145.600 196.233 C 145.600 195.965,117.736 168.000,117.469 168.000 C 117.409 168.000,111.024 174.320,103.280 182.045 M233.401 225.599 L 175.803 283.198 189.799 297.199 C 197.497 304.900,203.977 311.200,204.198 311.200 C 204.420 311.200,230.519 285.282,262.196 253.604 L 319.791 196.008 305.796 182.011 C 298.098 174.312,291.620 168.010,291.399 168.007 C 291.179 168.003,265.080 193.920,233.401 225.599 " stroke="none" fill="#fcfbfa" fill-rule="evenodd"></path><path id="path1" d="M198.800 25.477 C 198.470 25.610,198.084 25.898,197.942 26.115 C 197.445 26.877,188.000 27.010,188.000 26.255 C 188.000 25.830,187.662 25.600,187.037 25.600 C 186.292 25.600,186.119 25.770,186.272 26.353 C 186.442 27.002,186.115 27.167,183.902 27.553 C 180.464 28.152,179.731 28.118,179.436 27.349 C 179.223 26.796,179.040 26.856,178.212 27.749 C 177.049 29.004,173.764 29.292,173.336 28.177 C 173.143 27.674,173.009 27.731,172.639 28.477 C 172.268 29.224,171.802 29.424,170.190 29.524 C 169.096 29.592,168.029 29.817,167.820 30.024 C 167.316 30.523,165.313 30.506,165.000 30.000 C 164.864 29.780,164.573 29.600,164.353 29.600 C 164.133 29.600,164.042 29.744,164.150 29.919 C 164.486 30.463,163.842 31.124,162.696 31.412 C 161.848 31.624,161.600 31.544,161.600 31.056 C 161.600 30.660,161.377 30.511,161.000 30.655 C 160.670 30.782,160.400 31.124,160.400 31.416 C 160.400 31.940,159.529 32.352,157.860 32.615 C 157.387 32.690,155.925 33.126,154.611 33.584 C 153.298 34.043,152.006 34.334,151.741 34.233 C 151.475 34.131,151.067 34.278,150.834 34.559 C 150.109 35.433,147.316 36.090,146.402 35.601 C 145.765 35.260,145.600 35.295,145.600 35.772 C 145.600 36.628,143.996 37.441,143.593 36.788 C 143.379 36.442,143.207 36.549,143.017 37.147 C 142.724 38.071,141.392 38.312,141.065 37.500 C 140.954 37.225,140.849 37.405,140.832 37.900 C 140.808 38.563,140.558 38.800,139.880 38.800 C 139.374 38.800,138.765 38.995,138.526 39.234 C 138.288 39.472,137.667 39.607,137.146 39.534 C 136.513 39.444,136.064 39.665,135.790 40.200 C 135.564 40.640,134.979 41.058,134.490 41.128 C 134.000 41.198,133.600 41.423,133.600 41.628 C 133.600 41.833,133.328 42.000,132.995 42.000 C 132.662 42.000,132.077 42.157,131.695 42.349 C 131.313 42.540,129.830 43.294,128.400 44.024 C 126.970 44.754,125.396 45.542,124.903 45.775 C 124.410 46.009,124.005 46.335,124.003 46.500 C 124.001 46.665,123.640 46.800,123.200 46.800 C 122.760 46.800,122.400 46.977,122.400 47.192 C 122.400 47.818,120.358 48.180,120.010 47.616 C 119.806 47.286,119.624 47.449,119.457 48.114 C 119.321 48.659,118.892 49.211,118.504 49.340 C 118.117 49.470,116.540 50.395,115.000 51.396 C 113.460 52.397,111.840 53.371,111.400 53.562 C 110.960 53.752,110.257 54.289,109.838 54.754 C 109.419 55.219,108.909 55.600,108.705 55.600 C 108.501 55.600,107.566 56.230,106.626 57.000 C 105.686 57.770,104.633 58.400,104.286 58.400 C 103.938 58.400,103.553 58.719,103.429 59.108 C 103.306 59.497,102.584 60.150,101.825 60.558 C 101.066 60.967,99.765 61.925,98.933 62.687 C 98.101 63.449,96.921 64.331,96.310 64.646 C 95.700 64.962,95.200 65.370,95.200 65.552 C 95.200 65.734,93.220 67.548,90.800 69.582 C 88.380 71.616,86.400 73.443,86.400 73.640 C 86.400 73.838,86.214 74.000,85.987 74.000 C 85.443 74.000,83.784 75.700,79.351 80.801 C 77.343 83.110,75.093 85.662,74.351 86.472 C 73.608 87.281,72.472 88.674,71.826 89.568 C 71.180 90.462,70.322 91.298,69.920 91.425 C 69.518 91.553,69.294 91.829,69.424 92.038 C 69.553 92.247,68.926 93.295,68.029 94.365 C 67.133 95.435,66.400 96.466,66.399 96.656 C 66.399 96.845,65.859 97.630,65.200 98.400 C 64.541 99.170,64.001 100.025,64.001 100.300 C 64.000 100.575,63.824 100.800,63.609 100.800 C 63.394 100.800,62.881 101.500,62.468 102.354 C 62.055 103.209,61.507 104.154,61.250 104.454 C 60.400 105.448,57.600 110.020,57.600 110.413 C 57.600 110.626,57.447 110.800,57.261 110.800 C 57.074 110.800,56.631 111.475,56.277 112.300 C 55.922 113.125,54.843 115.255,53.878 117.033 C 51.388 121.623,50.950 122.472,50.488 123.600 C 50.263 124.150,49.544 125.770,48.892 127.200 C 48.239 128.630,47.105 131.420,46.371 133.400 C 45.637 135.380,44.894 137.060,44.718 137.133 C 44.543 137.207,44.400 137.781,44.400 138.410 C 44.400 139.038,44.220 139.664,44.000 139.800 C 43.780 139.936,43.600 140.476,43.600 141.000 C 43.600 141.524,43.420 142.064,43.200 142.200 C 42.980 142.336,42.800 142.872,42.800 143.391 C 42.800 143.910,42.543 144.845,42.229 145.468 C 41.915 146.090,41.344 147.770,40.961 149.200 C 40.578 150.630,40.115 151.971,39.932 152.180 C 39.750 152.389,39.600 153.244,39.600 154.080 C 39.600 154.916,39.438 155.600,39.240 155.600 C 39.042 155.600,38.790 156.365,38.680 157.300 C 38.570 158.235,38.180 160.350,37.814 162.000 C 37.449 163.650,36.993 166.166,36.802 167.591 C 36.611 169.016,36.258 170.247,36.016 170.328 C 35.754 170.415,35.669 170.982,35.806 171.737 C 35.931 172.432,35.857 174.170,35.642 175.600 C 35.426 177.030,35.149 180.136,35.026 182.503 C 34.779 187.255,34.267 190.111,33.622 190.326 C 32.937 190.554,33.068 201.023,33.769 202.114 C 34.376 203.058,35.269 209.517,35.197 212.442 C 35.173 213.409,35.350 215.370,35.590 216.800 C 36.043 219.499,35.860 221.408,35.188 220.993 C 34.975 220.861,34.800 220.931,34.800 221.149 C 34.800 221.368,35.154 221.658,35.586 221.796 C 36.118 221.964,36.442 222.523,36.587 223.523 C 36.706 224.335,37.177 226.800,37.636 229.000 C 38.094 231.200,38.562 233.720,38.675 234.600 C 38.789 235.480,39.044 236.371,39.241 236.580 C 39.438 236.789,39.600 237.644,39.600 238.480 C 39.600 239.316,39.758 240.000,39.950 240.000 C 40.143 240.000,40.416 240.585,40.559 241.300 C 40.914 243.083,42.788 249.242,43.236 250.095 C 43.436 250.477,43.600 251.064,43.600 251.400 C 43.600 251.736,43.765 252.323,43.966 252.705 C 44.308 253.354,45.641 256.839,47.522 262.000 C 48.215 263.904,48.880 265.378,50.450 268.495 C 50.643 268.877,50.800 269.462,50.800 269.795 C 50.800 270.128,50.945 270.400,51.123 270.400 C 51.301 270.400,51.761 271.114,52.146 271.986 C 52.531 272.858,53.580 274.883,54.478 276.486 C 55.376 278.089,56.470 280.120,56.909 281.000 C 57.349 281.880,58.224 283.352,58.854 284.272 C 59.484 285.192,60.000 286.126,60.000 286.347 C 60.000 286.569,60.540 287.342,61.200 288.064 C 61.860 288.787,62.400 289.586,62.400 289.840 C 62.400 290.094,62.689 290.542,63.042 290.835 C 63.395 291.127,63.845 291.735,64.043 292.184 C 64.241 292.633,65.034 293.810,65.805 294.800 C 66.576 295.790,67.552 297.140,67.974 297.800 C 68.397 298.460,68.990 299.270,69.292 299.600 C 70.405 300.815,72.274 303.420,72.521 304.100 C 72.661 304.485,73.012 304.800,73.301 304.800 C 73.591 304.800,74.134 305.295,74.509 305.900 C 74.884 306.505,76.101 307.990,77.212 309.200 C 78.609 310.720,79.187 311.661,79.083 312.245 C 78.965 312.905,79.095 313.048,79.677 312.896 C 80.955 312.561,85.200 317.053,85.200 318.740 C 85.200 319.910,85.312 320.064,86.024 319.878 C 86.528 319.746,86.934 319.883,87.066 320.229 C 87.186 320.540,87.445 320.696,87.642 320.574 C 87.839 320.452,88.000 320.515,88.000 320.712 C 88.000 320.910,88.457 321.280,89.016 321.535 C 89.575 321.789,90.741 322.653,91.608 323.455 C 92.474 324.257,93.592 325.193,94.091 325.536 C 94.591 325.879,95.236 326.484,95.523 326.881 C 95.811 327.277,97.100 328.317,98.387 329.191 C 99.674 330.065,100.788 330.920,100.863 331.090 C 100.939 331.261,101.765 331.898,102.700 332.506 C 103.635 333.114,104.400 333.798,104.400 334.026 C 104.400 334.255,104.944 334.631,105.608 334.863 C 106.273 335.095,106.999 335.625,107.223 336.042 C 107.446 336.459,107.972 336.800,108.391 336.800 C 108.811 336.800,109.406 337.159,109.714 337.599 C 110.022 338.038,110.842 338.596,111.537 338.838 C 112.232 339.080,112.800 339.441,112.800 339.639 C 112.800 339.838,113.036 340.000,113.325 340.000 C 113.613 340.000,114.198 340.316,114.625 340.703 C 115.051 341.089,115.913 341.634,116.539 341.912 C 117.208 342.210,117.595 342.637,117.476 342.947 C 117.333 343.319,117.552 343.422,118.219 343.294 C 118.797 343.184,119.580 343.441,120.236 343.957 C 120.826 344.421,121.554 344.800,121.854 344.800 C 122.154 344.800,122.400 344.972,122.400 345.181 C 122.400 345.391,123.218 345.924,124.218 346.367 C 125.217 346.809,126.550 347.537,127.179 347.985 C 127.809 348.433,128.611 348.800,128.962 348.800 C 129.313 348.800,129.600 348.980,129.600 349.200 C 129.600 349.420,129.949 349.600,130.376 349.600 C 130.803 349.600,131.264 349.780,131.400 350.000 C 131.536 350.220,131.975 350.400,132.375 350.400 C 132.775 350.400,133.317 350.659,133.580 350.976 C 133.843 351.293,134.286 351.465,134.565 351.358 C 134.844 351.251,135.303 351.442,135.585 351.782 C 135.867 352.122,136.425 352.400,136.825 352.400 C 137.225 352.400,137.664 352.580,137.800 352.800 C 137.936 353.020,138.487 353.200,139.024 353.200 C 139.561 353.200,140.000 353.380,140.000 353.600 C 140.000 353.820,140.315 354.002,140.700 354.004 C 141.085 354.006,142.300 354.450,143.400 354.991 C 144.500 355.532,145.681 355.981,146.024 355.987 C 146.366 355.994,146.996 356.264,147.424 356.587 C 147.851 356.910,148.695 357.180,149.300 357.187 C 149.905 357.194,150.400 357.380,150.400 357.600 C 150.400 357.820,150.929 358.000,151.576 358.000 C 152.223 358.000,152.864 358.180,153.000 358.400 C 153.136 358.620,153.856 358.800,154.600 358.800 C 155.344 358.800,156.064 358.980,156.200 359.200 C 156.336 359.420,156.966 359.600,157.601 359.600 C 158.315 359.600,158.976 359.916,159.336 360.429 C 159.699 360.948,160.016 361.098,160.182 360.829 C 160.602 360.150,161.928 360.328,162.778 361.178 C 163.372 361.772,163.893 361.902,164.975 361.727 C 165.873 361.581,166.627 361.690,167.031 362.026 C 167.381 362.317,168.473 362.570,169.456 362.588 C 171.153 362.620,172.223 363.316,171.750 364.081 C 171.642 364.256,171.728 364.400,171.943 364.400 C 172.158 364.400,172.408 364.175,172.500 363.900 C 172.808 362.976,176.476 363.409,177.353 364.473 C 177.860 365.089,178.175 365.232,178.291 364.900 C 178.730 363.649,184.645 364.615,184.505 365.915 C 184.387 367.007,184.596 367.021,185.692 366.000 C 186.177 365.548,187.083 365.208,187.775 365.218 C 190.512 365.257,194.985 365.954,195.121 366.363 C 195.355 367.066,212.358 366.954,213.839 366.240 C 216.048 365.175,221.862 364.990,222.472 365.966 C 223.120 367.004,223.600 367.037,223.600 366.043 C 223.600 364.636,229.374 363.696,230.096 364.986 C 230.461 365.637,230.564 365.608,231.347 364.629 C 232.418 363.291,235.361 362.985,236.195 364.126 C 236.668 364.772,236.726 364.751,236.950 363.857 C 237.391 362.098,240.584 361.987,240.920 363.719 C 241.044 364.356,241.106 364.252,241.146 363.343 C 241.222 361.585,243.264 360.921,244.571 362.229 C 245.084 362.742,245.200 362.753,245.200 362.291 C 245.200 360.993,247.722 359.766,248.094 360.883 C 248.201 361.203,248.575 361.068,249.203 360.483 C 249.724 359.997,250.646 359.600,251.252 359.600 C 251.857 359.600,252.464 359.420,252.600 359.200 C 252.736 358.980,253.467 358.800,254.224 358.800 C 254.981 358.800,255.600 358.620,255.600 358.400 C 255.600 358.180,256.230 358.000,257.000 358.000 C 257.770 358.000,258.400 357.820,258.400 357.600 C 258.400 357.380,258.940 357.200,259.600 357.200 C 260.260 357.200,260.800 357.020,260.800 356.800 C 260.800 356.580,261.250 356.400,261.800 356.400 C 262.350 356.400,262.800 356.580,262.800 356.800 C 262.800 357.020,262.980 357.200,263.200 357.200 C 263.420 357.200,263.600 356.836,263.600 356.390 C 263.600 355.868,263.991 355.442,264.700 355.190 C 265.305 354.975,266.119 354.616,266.509 354.391 C 267.045 354.082,267.275 354.131,267.452 354.591 C 267.800 355.498,268.281 355.329,268.564 354.200 C 268.748 353.469,269.083 353.200,269.808 353.200 C 270.353 353.200,270.800 353.020,270.800 352.800 C 270.800 352.580,271.239 352.400,271.776 352.400 C 272.313 352.400,272.874 352.204,273.022 351.965 C 273.169 351.726,273.624 351.617,274.031 351.724 C 274.498 351.846,274.853 351.665,274.989 351.235 C 275.108 350.859,275.970 350.230,276.903 349.838 C 279.129 348.902,280.614 348.178,282.763 346.982 C 283.733 346.442,284.863 346.000,285.275 346.000 C 285.688 346.000,286.129 345.730,286.255 345.400 C 286.382 345.070,286.807 344.800,287.200 344.800 C 287.594 344.800,288.493 344.260,289.200 343.600 C 289.907 342.940,290.753 342.400,291.081 342.400 C 291.688 342.400,293.577 341.192,294.975 339.911 C 295.402 339.520,296.062 339.200,296.442 339.200 C 296.822 339.200,297.193 339.039,297.267 338.842 C 297.340 338.645,297.957 338.150,298.637 337.742 C 300.787 336.452,303.354 334.666,304.714 333.513 C 305.437 332.901,306.252 332.400,306.526 332.400 C 306.799 332.400,307.288 332.023,307.612 331.562 C 308.691 330.023,311.573 328.263,311.846 328.976 C 312.187 329.864,312.800 329.332,312.800 328.148 C 312.800 326.995,312.956 326.818,316.179 324.295 C 317.976 322.889,318.686 322.539,319.079 322.866 C 319.483 323.201,319.600 323.077,319.600 322.314 C 319.600 321.677,320.199 320.761,321.300 319.714 C 322.676 318.407,327.676 313.422,330.644 310.400 C 330.968 310.070,332.141 308.675,333.251 307.300 C 334.361 305.925,335.487 304.800,335.754 304.800 C 336.021 304.800,336.454 304.207,336.716 303.482 C 336.978 302.758,337.840 301.457,338.632 300.593 C 339.424 299.728,340.309 298.566,340.598 298.010 C 340.887 297.455,341.591 296.564,342.162 296.030 C 342.733 295.497,343.200 294.832,343.200 294.553 C 343.200 294.274,343.515 293.807,343.900 293.515 C 344.285 293.223,345.035 292.178,345.567 291.192 C 346.098 290.207,347.493 287.940,348.667 286.156 C 349.840 284.372,350.800 282.810,350.800 282.685 C 350.800 282.561,351.700 280.992,352.800 279.200 C 353.900 277.408,354.800 275.810,354.800 275.649 C 354.800 275.067,356.853 271.254,357.419 270.784 C 357.739 270.519,358.000 270.052,358.000 269.747 C 358.000 269.441,358.360 268.383,358.800 267.396 C 359.240 266.408,359.960 264.792,360.400 263.804 C 360.840 262.817,361.200 261.824,361.200 261.599 C 361.200 261.374,361.360 260.877,361.556 260.495 C 361.879 259.864,362.296 258.920,363.543 256.000 C 364.385 254.028,366.876 246.576,367.086 245.400 C 367.204 244.740,367.428 244.020,367.583 243.800 C 367.739 243.580,368.092 242.320,368.368 241.000 C 368.645 239.680,369.035 238.287,369.235 237.905 C 369.436 237.523,369.600 236.785,369.600 236.265 C 369.600 235.745,369.761 234.798,369.957 234.160 C 370.153 233.522,370.510 232.010,370.749 230.800 C 370.989 229.590,371.444 227.340,371.761 225.800 C 372.079 224.260,372.464 221.560,372.618 219.800 C 372.772 218.040,372.997 216.432,373.118 216.226 C 373.239 216.021,373.397 214.253,373.468 212.299 C 373.559 209.810,373.778 208.565,374.199 208.144 C 375.094 207.249,375.094 185.398,374.199 184.120 C 373.805 183.557,373.554 182.039,373.468 179.705 C 373.397 177.748,373.238 175.979,373.115 175.774 C 372.992 175.568,372.765 174.050,372.611 172.400 C 372.457 170.750,372.075 168.140,371.763 166.600 C 370.369 159.733,369.935 157.769,368.977 154.000 C 368.613 152.570,368.232 150.860,368.131 150.200 C 368.029 149.540,367.805 148.640,367.633 148.200 C 367.222 147.151,366.641 145.456,365.026 140.600 C 363.593 136.291,361.789 131.700,359.952 127.682 C 359.318 126.297,358.800 125.080,358.800 124.978 C 358.800 124.611,357.019 120.966,355.919 119.082 C 355.304 118.028,354.800 116.996,354.800 116.790 C 354.800 116.584,354.154 115.406,353.364 114.171 C 352.575 112.937,351.672 111.358,351.358 110.663 C 350.663 109.123,350.023 108.097,349.100 107.046 C 348.715 106.608,348.400 105.917,348.400 105.512 C 348.400 105.107,348.146 104.678,347.837 104.559 C 347.527 104.440,347.042 103.770,346.760 103.071 C 346.478 102.372,346.011 101.656,345.723 101.480 C 345.436 101.304,344.911 100.601,344.557 99.918 C 344.204 99.234,343.754 98.478,343.558 98.238 C 341.053 95.169,340.000 93.753,340.000 93.454 C 340.000 93.256,339.685 92.803,339.300 92.447 C 338.561 91.763,336.000 88.548,336.000 88.304 C 336.000 88.225,334.919 86.999,333.597 85.580 C 332.276 84.161,330.702 82.280,330.101 81.400 C 329.499 80.520,328.690 79.509,328.303 79.153 C 327.917 78.797,327.600 78.212,327.600 77.853 C 327.600 77.438,327.264 77.200,326.678 77.200 C 325.733 77.200,323.516 75.173,323.070 73.900 C 322.935 73.515,322.472 73.200,322.040 73.200 C 321.541 73.200,321.209 72.884,321.128 72.332 C 321.057 71.849,320.422 71.142,319.696 70.738 C 318.978 70.338,317.808 69.490,317.096 68.853 C 316.383 68.216,315.306 67.268,314.703 66.747 C 313.979 66.122,313.575 65.349,313.516 64.475 C 313.437 63.315,313.364 63.234,312.930 63.828 C 312.375 64.587,309.579 63.106,307.607 61.008 C 307.087 60.453,306.422 60.000,306.130 60.000 C 305.839 60.000,305.600 59.820,305.600 59.600 C 305.600 59.380,305.373 59.200,305.096 59.200 C 304.819 59.200,304.368 58.840,304.093 58.400 C 303.818 57.960,303.326 57.600,303.000 57.600 C 302.674 57.600,302.180 57.227,301.903 56.771 C 301.627 56.315,300.799 55.688,300.064 55.376 C 299.329 55.065,298.636 54.461,298.525 54.033 C 298.398 53.549,298.099 53.341,297.732 53.482 C 297.408 53.606,296.623 53.324,295.987 52.854 C 295.352 52.384,294.670 52.000,294.472 52.000 C 294.275 52.000,293.322 51.372,292.356 50.604 C 291.390 49.836,290.309 49.206,289.954 49.204 C 289.599 49.202,288.850 48.840,288.291 48.400 C 287.731 47.960,287.077 47.600,286.837 47.600 C 286.597 47.600,286.400 47.420,286.400 47.200 C 286.400 46.980,286.046 46.800,285.614 46.800 C 285.182 46.800,284.639 46.447,284.408 46.015 C 284.177 45.583,283.749 45.321,283.458 45.433 C 283.167 45.545,282.697 45.358,282.415 45.018 C 282.133 44.678,281.564 44.400,281.151 44.400 C 280.738 44.400,280.400 44.220,280.400 44.000 C 280.400 43.780,280.040 43.600,279.600 43.600 C 279.160 43.600,278.800 43.420,278.800 43.200 C 278.800 42.980,278.350 42.800,277.800 42.800 C 277.250 42.800,276.800 42.620,276.800 42.400 C 276.800 42.180,276.579 42.000,276.309 42.000 C 275.000 42.000,270.399 39.366,270.369 38.600 C 270.351 38.160,270.246 38.025,270.135 38.300 C 269.896 38.892,268.000 38.981,268.000 38.400 C 268.000 38.180,267.550 38.000,267.000 38.000 C 266.450 38.000,265.997 37.865,265.994 37.700 C 265.975 36.767,265.273 36.333,264.475 36.760 C 263.995 37.017,263.554 37.050,263.424 36.838 C 263.300 36.638,262.164 36.158,260.899 35.773 C 259.635 35.387,258.311 34.826,257.958 34.526 C 257.605 34.226,257.065 34.077,256.758 34.194 C 256.451 34.311,255.210 34.030,254.000 33.569 C 251.768 32.720,251.491 32.637,249.457 32.206 C 248.502 32.003,248.345 31.802,248.501 30.982 C 248.729 29.791,248.414 29.747,247.200 30.800 C 246.125 31.732,246.176 31.722,245.174 31.186 C 244.748 30.958,244.400 30.418,244.400 29.986 C 244.400 29.060,243.786 28.939,243.455 29.800 C 243.164 30.559,240.961 30.596,240.673 29.846 C 240.519 29.444,239.972 29.347,238.685 29.492 C 237.166 29.663,236.818 29.560,236.273 28.782 C 235.754 28.042,235.526 27.963,235.047 28.361 C 233.892 29.319,231.073 28.741,230.441 27.416 L 229.876 26.232 229.289 27.116 C 228.623 28.120,227.875 28.189,224.667 27.545 C 223.213 27.253,222.400 26.890,222.400 26.532 C 222.400 25.642,221.216 25.425,220.643 26.209 C 219.978 27.119,211.349 26.888,210.767 25.946 C 210.414 25.372,200.058 24.966,198.800 25.477 M219.219 94.575 C 227.129 102.474,233.600 109.097,233.600 109.291 C 233.600 110.191,161.185 182.049,160.501 181.827 C 159.695 181.566,131.600 153.512,131.600 152.969 C 131.600 152.454,204.131 79.977,204.517 80.106 C 204.694 80.165,211.310 86.676,219.219 94.575 M262.672 137.752 C 270.635 145.728,276.800 152.215,276.800 152.615 C 276.800 153.378,161.639 268.800,160.877 268.800 C 160.304 268.800,132.044 240.467,131.905 239.752 C 131.775 239.086,247.176 123.601,247.972 123.600 C 248.287 123.600,254.902 129.968,262.672 137.752 M306.005 181.233 C 313.922 189.170,320.400 195.873,320.400 196.126 C 320.400 196.934,205.061 312.000,204.251 312.000 C 203.386 312.000,175.200 284.008,175.200 283.149 C 175.200 282.591,290.747 166.800,291.304 166.800 C 291.472 166.800,298.088 173.295,306.005 181.233 M132.121 181.441 C 139.974 189.273,146.400 195.933,146.400 196.241 C 146.400 197.022,118.251 225.200,117.470 225.200 C 116.774 225.200,88.400 196.927,88.400 196.232 C 88.400 195.676,116.863 167.200,117.419 167.200 C 117.651 167.200,124.267 173.608,132.121 181.441 " stroke="none" fill="#f3bb0c" fill-rule="evenodd"></path><path id="path2" d="M167.999 116.300 L 131.800 152.600 168.095 116.406 L 204.389 80.212 218.895 94.703 L 233.400 109.195 197.201 145.397 C 177.291 165.309,160.860 181.553,160.688 181.496 C 160.515 181.438,153.900 174.913,145.988 166.996 C 138.076 159.078,131.602 152.764,131.601 152.964 C 131.599 153.510,159.690 181.564,160.501 181.827 C 161.185 182.049,233.600 110.191,233.600 109.291 C 233.600 108.920,205.074 80.291,204.519 80.106 C 204.343 80.048,187.909 96.335,167.999 116.300 M189.600 181.406 C 157.810 213.199,131.847 239.455,131.905 239.752 C 132.044 240.467,160.304 268.800,160.877 268.800 C 161.639 268.800,276.800 153.378,276.800 152.615 C 276.800 151.771,248.811 123.600,247.972 123.600 C 247.658 123.600,221.390 149.613,189.600 181.406 M262.225 138.003 C 269.911 145.704,276.248 152.229,276.307 152.503 C 276.366 152.776,250.399 179.010,218.604 210.800 L 160.795 268.600 146.303 254.094 L 131.812 239.589 189.606 181.794 C 221.392 150.008,247.591 124.000,247.825 124.000 C 248.059 124.000,254.539 130.301,262.225 138.003 M233.099 224.701 C 201.255 256.546,175.200 282.848,175.200 283.149 C 175.200 284.008,203.386 312.000,204.251 312.000 C 205.061 312.000,320.400 196.934,320.400 196.126 C 320.400 195.624,291.803 166.800,291.304 166.800 C 291.136 166.800,264.944 192.855,233.099 224.701 M102.698 181.502 C 94.834 189.368,88.400 195.997,88.400 196.232 C 88.400 196.927,116.774 225.200,117.470 225.200 C 118.251 225.200,146.400 197.022,146.400 196.241 C 146.400 195.599,118.059 167.200,117.419 167.200 C 117.186 167.200,110.562 173.636,102.698 181.502 M131.898 181.698 C 139.654 189.452,146.000 195.976,146.000 196.196 C 146.000 196.719,117.927 224.800,117.404 224.800 C 116.881 224.800,88.800 196.727,88.800 196.204 C 88.800 195.681,116.873 167.600,117.396 167.600 C 117.616 167.600,124.142 173.944,131.898 181.698 M305.898 181.698 C 313.654 189.452,320.000 195.905,320.000 196.038 C 320.000 196.402,204.925 311.358,204.377 311.541 C 203.871 311.710,175.600 283.677,175.600 283.007 C 175.600 282.355,290.544 167.600,291.196 167.600 C 291.526 167.600,298.142 173.944,305.898 181.698 " stroke="none" fill="#f4d262" fill-rule="evenodd"></path><path id="path3" d="M188.267 25.467 C 188.120 25.613,188.000 25.998,188.000 26.322 C 188.000 27.017,197.482 26.820,197.942 26.115 C 198.084 25.898,198.470 25.617,198.800 25.492 C 199.130 25.366,196.955 25.249,193.967 25.232 C 190.978 25.214,188.413 25.320,188.267 25.467 M210.000 25.485 C 210.330 25.614,210.719 25.903,210.865 26.127 C 211.330 26.841,220.600 26.720,220.600 26.000 C 220.600 25.499,219.678 25.388,215.000 25.325 C 211.920 25.284,209.670 25.356,210.000 25.485 M180.000 26.220 C 179.010 26.504,178.200 26.757,178.200 26.784 C 178.200 26.811,177.120 26.898,175.800 26.978 C 171.772 27.221,166.444 28.206,165.820 28.824 C 165.611 29.031,164.972 29.200,164.400 29.200 C 163.828 29.200,163.180 29.380,162.960 29.600 C 162.740 29.820,161.804 30.029,160.880 30.065 C 159.956 30.102,159.200 30.282,159.200 30.466 C 159.200 30.650,158.495 30.800,157.633 30.800 C 156.772 30.800,156.007 30.961,155.933 31.158 C 155.860 31.355,155.088 31.610,154.219 31.725 C 153.349 31.840,152.429 32.219,152.175 32.567 C 151.920 32.915,151.237 33.200,150.656 33.200 C 150.075 33.200,149.600 33.380,149.600 33.600 C 149.600 33.820,148.981 34.000,148.224 34.000 C 147.467 34.000,146.736 34.180,146.600 34.400 C 146.464 34.620,145.941 34.800,145.438 34.800 C 144.290 34.800,143.119 36.022,143.569 36.750 C 143.993 37.436,145.600 36.661,145.600 35.772 C 145.600 35.295,145.765 35.260,146.402 35.601 C 147.316 36.090,150.109 35.433,150.834 34.559 C 151.067 34.278,151.475 34.131,151.741 34.233 C 152.006 34.334,153.298 34.043,154.611 33.584 C 155.925 33.126,157.387 32.690,157.860 32.615 C 159.529 32.352,160.400 31.940,160.400 31.416 C 160.400 31.124,160.670 30.782,161.000 30.655 C 161.377 30.511,161.600 30.660,161.600 31.056 C 161.600 31.544,161.848 31.624,162.696 31.412 C 163.842 31.124,164.486 30.463,164.150 29.919 C 164.042 29.744,164.133 29.600,164.353 29.600 C 164.573 29.600,164.864 29.780,165.000 30.000 C 165.313 30.506,167.316 30.523,167.820 30.024 C 168.029 29.817,169.096 29.592,170.190 29.524 C 171.802 29.424,172.268 29.224,172.639 28.477 C 173.009 27.731,173.143 27.674,173.336 28.177 C 173.758 29.277,177.048 29.005,178.186 27.777 C 179.056 26.838,179.167 26.812,179.527 27.455 C 179.893 28.109,185.597 27.736,186.322 27.011 C 187.625 25.709,183.561 25.200,180.000 26.220 M222.271 26.352 C 222.640 27.761,228.495 28.518,229.176 27.245 C 229.532 26.579,229.371 26.437,227.813 26.045 C 224.823 25.292,222.035 25.446,222.271 26.352 M230.286 27.129 C 230.417 27.498,230.698 28.025,230.911 28.300 C 231.406 28.940,234.488 28.952,235.124 28.316 C 235.502 27.938,235.749 28.035,236.259 28.762 C 236.817 29.559,237.159 29.664,238.662 29.494 C 239.940 29.350,240.503 29.455,240.741 29.881 C 241.126 30.568,243.258 30.446,243.495 29.723 C 243.860 28.609,241.539 28.019,231.324 26.631 C 230.263 26.487,230.088 26.571,230.286 27.129 M244.400 29.986 C 244.400 30.893,245.783 31.780,246.508 31.336 C 247.876 30.500,247.865 30.210,246.443 29.715 C 244.532 29.049,244.400 29.066,244.400 29.986 M248.673 30.260 C 248.000 30.934,248.448 31.995,249.500 32.216 C 251.473 32.632,251.773 32.722,254.000 33.569 C 255.210 34.030,256.451 34.311,256.758 34.194 C 257.065 34.077,257.605 34.223,257.958 34.519 C 258.311 34.815,259.410 35.298,260.400 35.592 C 261.390 35.886,262.584 36.358,263.053 36.642 C 263.752 37.064,264.037 37.061,264.630 36.627 C 265.582 35.931,264.590 34.800,263.029 34.800 C 262.463 34.800,262.000 34.620,262.000 34.400 C 262.000 34.180,261.280 34.000,260.400 34.000 C 259.489 34.000,258.800 33.808,258.800 33.553 C 258.800 33.308,258.455 33.197,258.032 33.307 C 257.544 33.435,256.963 33.161,256.435 32.554 C 255.911 31.952,255.170 31.600,254.426 31.600 C 253.778 31.600,253.136 31.420,253.000 31.200 C 252.864 30.980,252.079 30.800,251.256 30.800 C 250.433 30.800,249.577 30.617,249.353 30.393 C 249.130 30.170,248.824 30.110,248.673 30.260 M141.200 37.200 C 141.200 38.173,142.597 38.306,142.957 37.367 C 143.315 36.434,143.289 36.400,142.200 36.400 C 141.467 36.400,141.200 36.613,141.200 37.200 M265.757 37.033 C 265.891 37.381,266.000 37.741,266.000 37.833 C 266.000 37.925,266.450 38.000,267.000 38.000 C 267.550 38.000,268.000 38.180,268.000 38.400 C 268.000 38.620,268.450 38.800,269.000 38.800 C 269.733 38.800,270.000 38.587,270.000 38.000 C 270.000 37.378,269.733 37.200,268.800 37.200 C 268.140 37.200,267.600 37.020,267.600 36.800 C 267.600 36.580,267.131 36.400,266.557 36.400 C 265.771 36.400,265.574 36.555,265.757 37.033 M138.800 37.600 C 138.800 37.820,138.260 38.000,137.600 38.000 C 136.940 38.000,136.400 38.180,136.400 38.400 C 136.400 38.620,135.933 38.800,135.363 38.800 C 134.662 38.800,134.257 39.059,134.116 39.600 C 133.968 40.167,133.570 40.400,132.753 40.400 C 132.119 40.400,131.600 40.580,131.600 40.800 C 131.600 41.020,131.150 41.200,130.600 41.200 C 130.050 41.200,129.600 41.380,129.600 41.600 C 129.600 41.820,129.326 42.000,128.992 42.000 C 128.658 42.000,127.675 42.447,126.809 42.994 C 125.943 43.541,125.001 44.036,124.717 44.094 C 124.433 44.152,124.110 44.300,124.000 44.422 C 123.890 44.545,122.945 45.040,121.900 45.524 C 120.562 46.144,120.000 46.640,120.000 47.202 C 120.000 48.166,121.260 48.283,122.143 47.400 C 122.473 47.070,123.026 46.800,123.371 46.800 C 123.717 46.800,124.001 46.665,124.003 46.500 C 124.005 46.335,124.410 46.009,124.903 45.775 C 125.396 45.542,126.970 44.754,128.400 44.024 C 129.830 43.294,131.313 42.540,131.695 42.349 C 132.077 42.157,132.662 42.000,132.995 42.000 C 133.328 42.000,133.600 41.833,133.600 41.628 C 133.600 41.423,134.000 41.198,134.490 41.128 C 134.979 41.058,135.564 40.640,135.790 40.200 C 136.064 39.665,136.513 39.444,137.146 39.534 C 137.667 39.607,138.288 39.472,138.526 39.234 C 138.765 38.995,139.374 38.800,139.880 38.800 C 140.533 38.800,140.800 38.568,140.800 38.000 C 140.800 37.413,140.533 37.200,139.800 37.200 C 139.250 37.200,138.800 37.380,138.800 37.600 M270.400 38.700 C 270.400 39.371,275.108 42.000,276.309 42.000 C 276.579 42.000,276.800 42.180,276.800 42.400 C 276.800 42.620,277.250 42.800,277.800 42.800 C 278.350 42.800,278.800 42.980,278.800 43.200 C 278.800 43.420,279.160 43.600,279.600 43.600 C 280.040 43.600,280.400 43.780,280.400 44.000 C 280.400 44.220,280.738 44.400,281.151 44.400 C 281.564 44.400,282.133 44.678,282.415 45.018 C 282.697 45.358,283.167 45.545,283.458 45.433 C 283.749 45.321,284.177 45.583,284.408 46.015 C 284.639 46.447,285.182 46.800,285.614 46.800 C 286.046 46.800,286.400 46.980,286.400 47.200 C 286.400 47.420,286.597 47.600,286.837 47.600 C 287.077 47.600,287.731 47.960,288.291 48.400 C 288.850 48.840,289.599 49.202,289.954 49.204 C 290.309 49.206,291.390 49.836,292.356 50.604 C 293.322 51.372,294.275 52.000,294.472 52.000 C 294.670 52.000,295.352 52.384,295.987 52.854 C 296.623 53.324,297.408 53.606,297.732 53.482 C 298.099 53.341,298.398 53.549,298.525 54.033 C 298.636 54.461,299.329 55.065,300.064 55.376 C 300.799 55.688,301.627 56.315,301.903 56.771 C 302.180 57.227,302.674 57.600,303.000 57.600 C 303.326 57.600,303.818 57.960,304.093 58.400 C 304.368 58.840,304.819 59.200,305.096 59.200 C 305.373 59.200,305.600 59.380,305.600 59.600 C 305.600 59.820,305.839 60.000,306.130 60.000 C 306.422 60.000,307.087 60.453,307.607 61.008 C 309.099 62.596,312.514 64.657,312.705 64.085 C 312.795 63.815,313.078 63.701,313.334 63.831 C 313.590 63.961,313.170 63.516,312.400 62.842 C 311.630 62.168,310.685 61.511,310.300 61.382 C 309.915 61.252,309.598 60.933,309.595 60.673 C 309.590 60.175,307.100 58.400,306.406 58.400 C 306.183 58.400,306.000 58.220,306.000 58.000 C 306.000 57.780,305.640 57.600,305.200 57.600 C 304.735 57.600,304.400 57.333,304.400 56.963 C 304.400 56.612,304.040 56.231,303.600 56.116 C 303.160 56.001,302.800 55.748,302.800 55.553 C 302.800 55.359,302.524 55.200,302.187 55.200 C 301.849 55.200,301.045 54.660,300.400 54.000 C 299.755 53.340,299.033 52.800,298.797 52.800 C 298.560 52.800,297.980 52.440,297.508 52.000 C 297.036 51.560,296.413 51.200,296.125 51.200 C 295.836 51.200,295.600 51.020,295.600 50.800 C 295.600 50.580,295.240 50.400,294.800 50.400 C 294.350 50.400,294.000 50.133,294.000 49.790 C 294.000 49.432,293.504 49.081,292.800 48.940 C 292.140 48.808,291.600 48.586,291.600 48.448 C 291.600 48.309,291.015 47.939,290.300 47.625 C 289.585 47.311,288.820 46.841,288.600 46.581 C 288.195 46.101,287.344 45.630,283.894 43.980 C 282.846 43.479,281.789 42.828,281.545 42.534 C 281.302 42.240,280.674 42.000,280.151 42.000 C 279.628 42.000,279.200 41.820,279.200 41.600 C 279.200 41.380,278.660 41.200,278.000 41.200 C 277.340 41.200,276.800 41.020,276.800 40.800 C 276.800 40.580,276.442 40.400,276.003 40.400 C 275.565 40.400,274.982 40.040,274.707 39.600 C 274.432 39.160,273.811 38.800,273.327 38.800 C 272.843 38.800,272.336 38.620,272.200 38.400 C 271.775 37.713,270.400 37.942,270.400 38.700 M118.400 47.600 C 118.400 47.820,118.040 48.000,117.600 48.000 C 117.160 48.000,116.800 48.180,116.800 48.400 C 116.800 48.620,116.483 48.800,116.096 48.800 C 115.709 48.800,115.168 49.160,114.893 49.600 C 114.618 50.040,114.159 50.400,113.872 50.400 C 113.585 50.400,113.002 50.715,112.575 51.100 C 112.149 51.485,111.260 52.070,110.600 52.400 C 109.940 52.730,108.923 53.495,108.340 54.100 C 107.756 54.705,106.991 55.200,106.640 55.200 C 106.288 55.200,106.000 55.380,106.000 55.600 C 106.000 55.820,105.640 56.000,105.200 56.000 C 104.735 56.000,104.400 56.267,104.400 56.637 C 104.400 56.988,104.040 57.369,103.600 57.484 C 103.160 57.599,102.800 57.852,102.800 58.047 C 102.800 58.241,102.522 58.400,102.183 58.400 C 101.844 58.400,101.169 58.780,100.683 59.244 C 100.197 59.708,98.811 60.826,97.602 61.729 C 96.394 62.631,95.023 63.781,94.556 64.285 C 94.090 64.788,93.582 65.200,93.428 65.200 C 93.274 65.200,92.271 66.100,91.200 67.200 C 90.129 68.300,89.047 69.200,88.797 69.200 C 88.209 69.200,87.200 70.211,87.200 70.800 C 87.200 71.390,86.190 72.400,85.600 72.400 C 84.965 72.400,84.000 73.428,84.000 74.104 C 84.000 74.412,83.516 74.920,82.925 75.232 C 81.892 75.777,80.000 77.447,80.000 77.812 C 80.000 77.909,79.235 78.764,78.300 79.711 C 75.743 82.303,74.000 84.379,74.000 84.832 C 74.000 85.463,72.107 87.200,71.418 87.200 C 71.067 87.200,70.800 87.545,70.800 88.000 C 70.800 88.440,70.650 88.800,70.468 88.800 C 70.285 88.800,69.880 89.295,69.568 89.900 C 69.255 90.505,68.370 91.641,67.600 92.423 C 66.830 93.206,65.930 94.376,65.600 95.023 C 65.270 95.671,64.505 96.677,63.900 97.260 C 63.295 97.844,62.800 98.527,62.800 98.778 C 62.800 99.029,62.383 99.685,61.873 100.234 C 61.363 100.784,60.335 102.441,59.587 103.917 C 58.840 105.393,57.952 106.870,57.614 107.200 C 56.749 108.045,55.200 111.132,55.200 112.011 C 55.200 112.415,54.885 112.848,54.500 112.972 C 53.792 113.201,52.800 114.908,52.800 115.896 C 52.800 116.192,52.440 116.820,52.000 117.292 C 51.560 117.764,51.200 118.567,51.200 119.075 C 51.200 119.584,50.965 120.000,50.677 120.000 C 50.189 120.000,48.800 122.571,48.800 123.473 C 48.800 124.171,47.559 126.400,47.171 126.400 C 46.967 126.400,46.800 126.665,46.800 126.989 C 46.800 127.313,46.371 128.528,45.846 129.689 C 45.321 130.850,44.584 132.835,44.208 134.100 C 43.833 135.365,43.399 136.400,43.245 136.400 C 43.091 136.400,42.736 137.525,42.456 138.900 C 42.176 140.275,41.779 141.713,41.573 142.095 C 41.368 142.477,41.200 143.152,41.200 143.595 C 41.200 144.038,40.951 144.400,40.647 144.400 C 39.998 144.400,39.613 145.610,39.605 147.676 C 39.602 148.488,39.420 149.264,39.200 149.400 C 38.980 149.536,38.800 150.346,38.800 151.200 C 38.800 152.054,38.620 152.864,38.400 153.000 C 38.180 153.136,38.000 154.047,38.000 155.024 C 38.000 156.001,37.843 156.800,37.652 156.800 C 37.460 156.800,37.189 157.655,37.049 158.700 C 36.909 159.745,36.526 161.116,36.197 161.746 C 35.869 162.376,35.600 163.850,35.600 165.022 C 35.600 166.194,35.422 167.263,35.205 167.397 C 34.988 167.531,34.828 168.824,34.850 170.269 C 34.871 171.715,34.734 173.011,34.544 173.149 C 33.403 173.981,33.200 175.437,33.200 182.795 C 33.200 189.710,33.461 191.582,34.168 189.740 C 34.492 188.896,35.240 181.652,35.205 179.691 C 35.191 178.871,35.372 177.030,35.606 175.600 C 35.841 174.170,35.931 172.432,35.806 171.737 C 35.669 170.982,35.754 170.415,36.016 170.328 C 36.258 170.247,36.611 169.016,36.802 167.591 C 36.993 166.166,37.449 163.650,37.814 162.000 C 38.180 160.350,38.570 158.235,38.680 157.300 C 38.790 156.365,39.042 155.600,39.240 155.600 C 39.438 155.600,39.600 154.916,39.600 154.080 C 39.600 153.244,39.750 152.389,39.932 152.180 C 40.115 151.971,40.578 150.630,40.961 149.200 C 41.344 147.770,41.915 146.090,42.229 145.468 C 42.543 144.845,42.800 143.910,42.800 143.391 C 42.800 142.872,42.980 142.336,43.200 142.200 C 43.420 142.064,43.600 141.524,43.600 141.000 C 43.600 140.476,43.780 139.936,44.000 139.800 C 44.220 139.664,44.400 139.038,44.400 138.410 C 44.400 137.781,44.543 137.207,44.718 137.133 C 44.894 137.060,45.637 135.380,46.371 133.400 C 47.105 131.420,48.239 128.630,48.892 127.200 C 49.544 125.770,50.263 124.150,50.488 123.600 C 50.950 122.472,51.388 121.623,53.878 117.033 C 54.843 115.255,55.922 113.125,56.277 112.300 C 56.631 111.475,57.074 110.800,57.261 110.800 C 57.447 110.800,57.600 110.626,57.600 110.413 C 57.600 110.020,60.400 105.448,61.250 104.454 C 61.507 104.154,62.055 103.209,62.468 102.354 C 62.881 101.500,63.394 100.800,63.609 100.800 C 63.824 100.800,64.000 100.575,64.001 100.300 C 64.001 100.025,64.541 99.170,65.200 98.400 C 65.859 97.630,66.399 96.845,66.399 96.656 C 66.400 96.466,67.133 95.435,68.029 94.365 C 68.926 93.295,69.553 92.247,69.424 92.038 C 69.294 91.829,69.518 91.553,69.920 91.425 C 70.322 91.298,71.180 90.462,71.826 89.568 C 72.472 88.674,73.608 87.281,74.351 86.472 C 75.093 85.662,77.343 83.110,79.351 80.801 C 83.784 75.700,85.443 74.000,85.987 74.000 C 86.214 74.000,86.400 73.838,86.400 73.640 C 86.400 73.443,88.380 71.616,90.800 69.582 C 93.220 67.548,95.200 65.734,95.200 65.552 C 95.200 65.370,95.700 64.962,96.310 64.646 C 96.921 64.331,98.101 63.449,98.933 62.687 C 99.765 61.925,101.066 60.967,101.825 60.558 C 102.584 60.150,103.306 59.497,103.429 59.108 C 103.553 58.719,103.938 58.400,104.286 58.400 C 104.633 58.400,105.686 57.770,106.626 57.000 C 107.566 56.230,108.501 55.600,108.705 55.600 C 108.909 55.600,109.419 55.219,109.838 54.754 C 110.257 54.289,110.960 53.752,111.400 53.562 C 111.840 53.371,113.460 52.401,115.000 51.405 C 116.540 50.409,118.070 49.473,118.400 49.326 C 119.616 48.783,120.063 47.200,119.000 47.200 C 118.670 47.200,118.400 47.380,118.400 47.600 M313.600 65.152 C 313.600 65.565,314.406 66.564,315.390 67.370 C 316.375 68.177,317.434 69.091,317.744 69.401 C 318.054 69.711,318.913 70.302,319.654 70.714 C 320.414 71.138,321.056 71.842,321.128 72.332 C 321.209 72.884,321.541 73.200,322.040 73.200 C 322.472 73.200,322.935 73.515,323.070 73.900 C 323.516 75.173,325.733 77.200,326.678 77.200 C 327.264 77.200,327.600 77.438,327.600 77.853 C 327.600 78.212,327.917 78.797,328.303 79.153 C 328.690 79.509,329.499 80.520,330.101 81.400 C 330.702 82.280,332.276 84.161,333.597 85.580 C 334.919 86.999,336.000 88.225,336.000 88.304 C 336.000 88.548,338.561 91.763,339.300 92.447 C 339.685 92.803,340.000 93.256,340.000 93.454 C 340.000 93.753,341.053 95.169,343.558 98.238 C 343.754 98.478,344.204 99.234,344.557 99.918 C 344.911 100.601,345.436 101.304,345.723 101.480 C 346.011 101.656,346.478 102.372,346.760 103.071 C 347.042 103.770,347.527 104.440,347.837 104.559 C 348.146 104.678,348.400 105.107,348.400 105.512 C 348.400 105.917,348.715 106.608,349.100 107.046 C 350.023 108.097,350.663 109.123,351.358 110.663 C 351.672 111.358,352.575 112.937,353.364 114.171 C 354.154 115.406,354.800 116.584,354.800 116.790 C 354.800 116.996,355.304 118.028,355.919 119.082 C 357.019 120.966,358.800 124.611,358.800 124.978 C 358.800 125.080,359.318 126.297,359.952 127.682 C 361.789 131.700,363.593 136.291,365.026 140.600 C 366.641 145.456,367.222 147.151,367.633 148.200 C 367.805 148.640,368.029 149.540,368.131 150.200 C 368.232 150.860,368.613 152.570,368.977 154.000 C 369.935 157.769,370.369 159.733,371.763 166.600 C 372.075 168.140,372.457 170.750,372.611 172.400 C 372.765 174.050,372.992 175.568,373.115 175.774 C 373.238 175.979,373.397 177.748,373.468 179.705 C 373.556 182.108,373.800 183.544,374.220 184.131 C 374.971 185.181,374.814 174.600,374.010 170.000 C 373.760 168.570,373.460 166.320,373.344 165.000 C 373.228 163.680,372.968 162.429,372.766 162.220 C 372.565 162.011,372.399 161.111,372.399 160.220 C 372.398 159.307,372.048 158.028,371.599 157.290 C 371.159 156.570,370.800 155.391,370.800 154.670 C 370.800 153.950,370.638 153.189,370.441 152.980 C 370.244 152.771,369.980 151.880,369.856 151.000 C 369.378 147.611,369.099 146.385,368.756 146.173 C 368.560 146.052,368.400 145.434,368.400 144.799 C 368.400 144.130,368.088 143.426,367.658 143.123 C 366.970 142.637,366.723 141.888,366.137 138.500 C 366.014 137.785,365.752 137.200,365.556 137.200 C 365.360 137.200,365.200 136.660,365.200 136.000 C 365.200 135.340,365.020 134.800,364.800 134.800 C 364.580 134.800,364.400 134.566,364.400 134.280 C 364.400 133.544,363.459 131.607,363.100 131.603 C 362.935 131.601,362.800 131.150,362.800 130.600 C 362.800 130.050,362.620 129.600,362.400 129.600 C 362.180 129.600,362.000 129.161,362.000 128.624 C 362.000 128.087,361.820 127.536,361.600 127.400 C 361.380 127.264,361.200 126.803,361.200 126.376 C 361.200 125.949,361.020 125.600,360.800 125.600 C 360.580 125.600,360.400 125.240,360.400 124.800 C 360.400 124.360,360.220 124.000,360.000 124.000 C 359.780 124.000,359.600 123.728,359.600 123.395 C 359.600 123.062,359.441 122.477,359.247 122.095 C 359.052 121.713,358.671 120.860,358.400 120.200 C 358.129 119.540,357.747 118.730,357.552 118.400 C 357.357 118.070,356.711 116.810,356.118 115.600 C 355.167 113.660,353.783 111.383,353.200 110.800 C 352.777 110.377,352.000 108.790,352.000 108.349 C 352.000 108.095,351.460 107.371,350.800 106.740 C 350.140 106.109,349.600 105.325,349.600 104.997 C 349.600 104.668,349.420 104.400,349.200 104.400 C 348.980 104.400,348.800 104.040,348.800 103.600 C 348.800 103.160,348.620 102.800,348.400 102.800 C 348.180 102.800,348.000 102.512,348.000 102.160 C 348.000 101.809,347.493 101.044,346.873 100.460 C 346.253 99.877,345.489 98.815,345.175 98.100 C 344.862 97.385,344.469 96.800,344.302 96.800 C 344.136 96.800,344.000 96.622,344.000 96.405 C 344.000 96.049,343.356 95.144,342.187 93.855 C 341.960 93.605,341.339 92.770,340.807 92.000 C 340.275 91.230,339.606 90.456,339.320 90.280 C 339.034 90.104,338.800 89.699,338.800 89.380 C 338.800 89.061,338.632 88.800,338.427 88.800 C 338.222 88.800,337.940 88.440,337.800 88.000 C 337.660 87.560,337.370 87.200,337.155 87.200 C 336.616 87.200,334.800 85.339,334.800 84.787 C 334.800 84.540,334.125 83.669,333.300 82.852 C 332.475 82.035,331.608 81.026,331.373 80.610 C 331.139 80.194,330.606 79.661,330.190 79.427 C 329.170 78.851,328.403 78.128,328.388 77.729 C 328.381 77.548,327.826 76.950,327.153 76.400 C 325.394 74.962,324.678 74.247,324.012 73.266 C 323.688 72.790,323.276 72.400,323.095 72.400 C 322.616 72.400,321.382 71.140,320.840 70.100 C 320.583 69.605,320.188 69.200,319.963 69.200 C 319.739 69.200,318.692 68.300,317.637 67.200 C 316.583 66.100,315.423 65.200,315.060 65.200 C 314.697 65.200,314.400 65.020,314.400 64.800 C 314.400 64.580,314.220 64.400,314.000 64.400 C 313.780 64.400,313.600 64.738,313.600 65.152 M33.200 206.687 C 33.200 210.510,33.336 211.988,33.700 212.135 C 34.100 212.296,34.100 212.343,33.700 212.368 C 32.882 212.420,33.069 216.641,33.965 218.346 C 34.385 219.145,34.847 220.160,34.992 220.600 C 35.615 222.503,36.075 220.047,35.650 217.080 C 35.423 215.496,35.149 212.400,35.041 210.200 C 34.607 201.371,33.200 198.686,33.200 206.687 M374.098 208.227 C 373.799 208.551,373.545 210.199,373.468 212.311 C 373.397 214.259,373.239 216.021,373.118 216.226 C 372.997 216.432,372.772 218.040,372.618 219.800 C 372.464 221.560,372.079 224.260,371.761 225.800 C 371.444 227.340,370.989 229.590,370.749 230.800 C 370.510 232.010,370.153 233.522,369.957 234.160 C 369.761 234.798,369.600 235.745,369.600 236.265 C 369.600 236.785,369.436 237.523,369.235 237.905 C 369.035 238.287,368.645 239.680,368.368 241.000 C 368.092 242.320,367.739 243.580,367.583 243.800 C 367.428 244.020,367.204 244.740,367.086 245.400 C 366.876 246.576,364.385 254.028,363.543 256.000 C 362.296 258.920,361.879 259.864,361.556 260.495 C 361.360 260.877,361.200 261.374,361.200 261.599 C 361.200 261.824,360.840 262.817,360.400 263.804 C 359.960 264.792,359.240 266.408,358.800 267.396 C 358.360 268.383,358.000 269.441,358.000 269.747 C 358.000 270.052,357.739 270.519,357.419 270.784 C 356.853 271.254,354.800 275.067,354.800 275.649 C 354.800 275.810,353.900 277.408,352.800 279.200 C 351.700 280.992,350.800 282.561,350.800 282.685 C 350.800 282.810,349.840 284.372,348.667 286.156 C 347.493 287.940,346.098 290.207,345.567 291.192 C 345.035 292.178,344.285 293.223,343.900 293.515 C 343.515 293.807,343.200 294.274,343.200 294.553 C 343.200 294.832,342.733 295.497,342.162 296.030 C 341.591 296.564,340.887 297.455,340.598 298.010 C 340.309 298.566,339.424 299.728,338.632 300.593 C 337.840 301.457,336.978 302.758,336.716 303.482 C 336.454 304.207,336.021 304.800,335.754 304.800 C 335.487 304.800,334.361 305.925,333.251 307.300 C 331.224 309.811,330.507 310.611,329.529 311.456 C 325.845 314.638,319.552 321.641,319.666 322.431 C 319.816 323.457,320.191 323.216,321.795 321.066 C 322.232 320.480,322.718 320.000,322.875 320.000 C 323.439 320.000,328.400 314.797,328.400 314.205 C 328.400 313.872,328.625 313.600,328.900 313.600 C 329.574 313.599,331.600 311.825,331.600 311.235 C 331.600 310.673,333.152 309.057,334.008 308.729 C 334.341 308.601,334.880 307.980,335.206 307.348 C 335.532 306.717,336.267 305.750,336.840 305.200 C 337.412 304.650,338.763 303.030,339.840 301.600 C 340.918 300.170,341.935 298.940,342.100 298.867 C 342.265 298.793,342.400 298.505,342.400 298.226 C 342.400 297.947,342.940 297.154,343.600 296.463 C 344.260 295.772,344.800 294.936,344.800 294.604 C 344.800 294.272,344.980 294.000,345.200 294.000 C 345.420 294.000,345.600 293.732,345.600 293.403 C 345.600 293.075,346.110 292.310,346.734 291.703 C 347.358 291.097,348.122 290.015,348.432 289.300 C 348.742 288.585,349.131 288.000,349.298 288.000 C 349.464 288.000,349.600 287.640,349.600 287.200 C 349.600 286.760,349.771 286.400,349.981 286.400 C 350.504 286.400,352.800 283.003,352.800 282.228 C 352.800 281.883,352.952 281.600,353.137 281.600 C 353.323 281.600,353.905 280.745,354.432 279.700 C 354.958 278.655,355.492 277.710,355.617 277.600 C 355.743 277.490,356.095 276.770,356.399 276.000 C 356.704 275.230,357.189 274.456,357.477 274.280 C 357.764 274.104,358.000 273.620,358.000 273.204 C 358.000 272.788,358.180 272.336,358.400 272.200 C 358.620 272.064,358.800 271.603,358.800 271.176 C 358.800 270.749,358.980 270.400,359.200 270.400 C 359.420 270.400,359.600 270.032,359.600 269.583 C 359.600 269.134,359.960 268.380,360.400 267.908 C 360.840 267.436,361.200 266.644,361.200 266.148 C 361.200 265.653,361.380 265.136,361.600 265.000 C 361.820 264.864,362.000 264.313,362.000 263.776 C 362.000 263.239,362.180 262.800,362.400 262.800 C 362.620 262.800,362.800 262.342,362.800 261.783 C 362.800 261.224,363.160 260.380,363.600 259.908 C 364.040 259.436,364.400 258.734,364.400 258.348 C 364.400 257.963,364.580 257.536,364.800 257.400 C 365.020 257.264,365.200 256.724,365.200 256.200 C 365.200 255.676,365.380 255.136,365.600 255.000 C 365.820 254.864,366.000 254.234,366.000 253.600 C 366.000 252.966,366.180 252.336,366.400 252.200 C 366.620 252.064,366.800 251.467,366.800 250.873 C 366.800 250.248,367.118 249.594,367.553 249.322 C 367.967 249.063,368.412 248.255,368.542 247.526 C 368.671 246.797,368.892 245.523,369.033 244.696 C 369.173 243.869,369.449 243.094,369.644 242.973 C 369.840 242.852,370.000 241.953,370.000 240.976 C 370.000 239.999,370.180 239.200,370.400 239.200 C 370.620 239.200,370.800 238.564,370.800 237.786 C 370.800 237.008,371.105 235.906,371.478 235.337 C 372.136 234.333,372.363 233.289,373.205 227.400 C 373.425 225.860,373.797 223.520,374.032 222.200 C 374.974 216.911,375.020 207.231,374.098 208.227 M34.800 223.400 C 34.800 224.390,34.980 225.200,35.200 225.200 C 35.420 225.200,35.600 226.162,35.600 227.339 C 35.600 228.518,35.894 230.066,36.255 230.790 C 36.615 231.512,36.999 232.890,37.107 233.851 C 37.215 234.813,37.461 235.600,37.652 235.600 C 37.843 235.600,38.000 236.410,38.000 237.400 C 38.000 238.390,38.180 239.200,38.400 239.200 C 38.620 239.200,38.800 239.999,38.800 240.976 C 38.800 241.953,38.957 242.850,39.148 242.968 C 39.340 243.086,39.586 244.117,39.696 245.259 C 39.818 246.529,40.148 247.519,40.548 247.811 C 40.906 248.074,41.200 248.586,41.200 248.950 C 41.200 249.313,41.368 249.923,41.573 250.305 C 41.779 250.687,42.181 252.147,42.467 253.548 C 42.753 254.950,43.215 256.184,43.493 256.291 C 43.772 256.398,44.000 256.818,44.000 257.224 C 44.000 257.630,44.202 258.466,44.450 259.081 C 44.697 259.697,45.036 260.560,45.202 261.000 C 46.270 263.825,47.018 265.481,47.475 266.031 C 47.764 266.379,48.000 266.876,48.000 267.137 C 48.000 267.398,48.165 267.923,48.366 268.305 C 48.568 268.687,49.031 269.686,49.397 270.524 C 49.762 271.362,50.317 272.147,50.630 272.267 C 50.944 272.387,51.200 272.916,51.200 273.443 C 51.200 273.969,51.380 274.400,51.600 274.400 C 51.820 274.400,52.000 274.760,52.000 275.200 C 52.000 275.640,52.180 276.000,52.400 276.000 C 52.620 276.000,52.800 276.360,52.800 276.800 C 52.800 277.240,52.980 277.600,53.200 277.600 C 53.420 277.600,53.600 277.870,53.600 278.200 C 53.600 278.530,53.960 279.160,54.400 279.600 C 54.840 280.040,55.200 280.670,55.200 281.000 C 55.200 281.330,55.380 281.600,55.600 281.600 C 55.820 281.600,56.000 281.872,56.000 282.205 C 56.000 282.926,56.764 284.354,57.600 285.196 C 57.930 285.528,58.687 286.793,59.283 288.006 C 59.879 289.220,60.734 290.607,61.183 291.090 C 61.632 291.572,62.000 292.135,62.000 292.341 C 62.000 292.547,62.524 293.276,63.165 293.962 C 63.805 294.648,64.785 295.987,65.343 296.939 C 65.901 297.891,66.910 299.261,67.585 299.984 C 68.260 300.707,69.119 301.816,69.493 302.449 C 69.867 303.082,70.314 303.600,70.486 303.600 C 70.659 303.600,70.800 303.870,70.800 304.200 C 70.800 304.530,70.952 304.800,71.139 304.800 C 71.671 304.800,73.200 306.244,73.200 306.747 C 73.200 306.996,73.380 307.200,73.600 307.200 C 73.820 307.200,74.000 307.458,74.000 307.773 C 74.000 308.088,74.351 308.457,74.780 308.594 C 75.208 308.730,75.670 309.192,75.806 309.620 C 75.943 310.049,76.222 310.400,76.427 310.400 C 76.632 310.400,76.800 310.656,76.800 310.969 C 76.800 311.282,77.520 312.154,78.400 312.907 C 79.280 313.660,80.000 314.407,80.000 314.567 C 80.000 315.009,81.087 316.000,81.571 316.000 C 81.807 316.000,82.000 316.180,82.000 316.400 C 82.000 316.620,82.270 316.800,82.600 316.800 C 82.930 316.800,83.200 317.070,83.200 317.400 C 83.200 317.730,83.380 318.000,83.600 318.000 C 83.820 318.000,84.000 318.251,84.000 318.557 C 84.000 318.864,84.270 319.218,84.600 319.345 C 85.043 319.515,85.200 319.289,85.200 318.481 C 85.200 317.041,80.809 312.600,79.677 312.896 C 79.095 313.048,78.965 312.905,79.083 312.245 C 79.187 311.661,78.609 310.720,77.212 309.200 C 76.101 307.990,74.884 306.505,74.509 305.900 C 74.134 305.295,73.591 304.800,73.301 304.800 C 73.012 304.800,72.661 304.485,72.521 304.100 C 72.274 303.420,70.405 300.815,69.292 299.600 C 68.990 299.270,68.397 298.460,67.974 297.800 C 67.552 297.140,66.576 295.790,65.805 294.800 C 65.034 293.810,64.241 292.633,64.043 292.184 C 63.845 291.735,63.395 291.127,63.042 290.835 C 62.689 290.542,62.400 290.094,62.400 289.840 C 62.400 289.586,61.860 288.787,61.200 288.064 C 60.540 287.342,60.000 286.569,60.000 286.347 C 60.000 286.126,59.484 285.192,58.854 284.272 C 58.224 283.352,57.349 281.880,56.909 281.000 C 56.470 280.120,55.376 278.089,54.478 276.486 C 53.580 274.883,52.531 272.858,52.146 271.986 C 51.761 271.114,51.301 270.400,51.123 270.400 C 50.945 270.400,50.800 270.128,50.800 269.795 C 50.800 269.462,50.643 268.877,50.450 268.495 C 48.880 265.378,48.215 263.904,47.522 262.000 C 45.641 256.839,44.308 253.354,43.966 252.705 C 43.765 252.323,43.600 251.736,43.600 251.400 C 43.600 251.064,43.436 250.477,43.236 250.095 C 42.788 249.242,40.914 243.083,40.559 241.300 C 40.416 240.585,40.143 240.000,39.950 240.000 C 39.758 240.000,39.600 239.316,39.600 238.480 C 39.600 237.644,39.438 236.789,39.241 236.580 C 39.044 236.371,38.790 235.480,38.677 234.600 C 38.565 233.720,38.187 231.830,37.838 230.400 C 37.490 228.970,37.037 226.559,36.832 225.042 C 36.335 221.355,34.800 220.115,34.800 223.400 M86.533 320.147 C 86.533 320.506,86.683 320.800,86.867 320.800 C 87.050 320.800,87.200 321.066,87.200 321.391 C 87.200 321.716,87.695 322.292,88.300 322.671 C 88.905 323.049,89.964 323.954,90.654 324.680 C 91.344 325.406,92.109 326.000,92.354 326.000 C 92.599 326.000,92.800 326.180,92.800 326.400 C 92.800 326.620,93.040 326.800,93.332 326.800 C 93.625 326.800,94.112 327.261,94.414 327.825 C 94.715 328.389,95.466 329.148,96.081 329.512 C 96.697 329.875,97.200 330.314,97.200 330.486 C 97.200 330.659,97.484 330.800,97.831 330.800 C 98.179 330.800,99.154 331.520,100.000 332.400 C 100.846 333.280,101.821 334.000,102.169 334.000 C 102.516 334.000,102.800 334.180,102.800 334.400 C 102.800 334.620,103.058 334.800,103.373 334.800 C 103.688 334.800,104.048 335.115,104.172 335.500 C 104.390 336.173,106.094 337.200,106.991 337.200 C 107.229 337.200,107.688 337.574,108.012 338.032 C 108.682 338.980,112.948 341.600,113.821 341.600 C 114.140 341.600,114.400 341.887,114.400 342.237 C 114.400 342.588,114.760 342.969,115.200 343.084 C 115.640 343.199,116.000 343.452,116.000 343.647 C 116.000 343.841,116.360 344.000,116.800 344.000 C 117.240 344.000,117.600 344.180,117.600 344.400 C 117.600 344.620,118.005 344.801,118.500 344.802 C 118.995 344.803,119.975 345.343,120.678 346.002 C 121.381 346.661,122.236 347.200,122.578 347.200 C 122.920 347.200,123.200 347.380,123.200 347.600 C 123.200 347.820,123.658 348.000,124.217 348.000 C 124.776 348.000,125.620 348.360,126.092 348.800 C 126.564 349.240,127.187 349.600,127.475 349.600 C 127.764 349.600,128.000 349.780,128.000 350.000 C 128.000 350.220,128.360 350.400,128.800 350.400 C 129.240 350.400,129.600 350.580,129.600 350.800 C 129.600 351.020,130.050 351.200,130.600 351.200 C 131.150 351.200,131.600 351.380,131.600 351.600 C 131.600 351.820,132.010 352.000,132.511 352.000 C 133.012 352.000,133.730 352.360,134.107 352.800 C 134.484 353.240,135.154 353.600,135.596 353.600 C 136.038 353.600,136.400 353.780,136.400 354.000 C 136.400 354.220,136.940 354.400,137.600 354.400 C 138.260 354.400,138.800 354.580,138.800 354.800 C 138.800 355.020,139.340 355.200,140.000 355.200 C 140.660 355.200,141.200 355.380,141.200 355.600 C 141.200 355.820,141.501 356.000,141.869 356.000 C 142.236 356.000,142.821 356.246,143.169 356.546 C 143.873 357.156,148.918 358.800,150.084 358.800 C 150.496 358.800,151.191 359.133,151.627 359.539 C 152.064 359.946,152.981 360.295,153.665 360.314 C 154.350 360.334,155.101 360.541,155.335 360.775 C 155.569 361.009,156.354 361.200,157.080 361.200 C 157.806 361.200,158.400 361.380,158.400 361.600 C 158.400 361.820,159.210 362.000,160.200 362.000 C 161.190 362.000,162.000 362.175,162.000 362.388 C 162.000 362.601,162.646 362.751,163.436 362.722 C 164.225 362.692,164.990 362.832,165.136 363.034 C 165.755 363.891,167.333 364.400,169.371 364.400 C 170.571 364.400,171.664 364.580,171.800 364.800 C 172.104 365.292,177.600 365.338,177.600 364.849 C 177.600 363.668,172.871 362.788,172.500 363.900 C 172.408 364.175,172.158 364.400,171.943 364.400 C 171.728 364.400,171.642 364.256,171.750 364.081 C 172.223 363.316,171.153 362.620,169.456 362.588 C 168.473 362.570,167.381 362.317,167.031 362.026 C 166.627 361.690,165.873 361.581,164.975 361.727 C 163.893 361.902,163.372 361.772,162.778 361.178 C 161.928 360.328,160.602 360.150,160.182 360.829 C 160.016 361.098,159.699 360.948,159.336 360.429 C 158.976 359.916,158.315 359.600,157.601 359.600 C 156.966 359.600,156.336 359.420,156.200 359.200 C 156.064 358.980,155.344 358.800,154.600 358.800 C 153.856 358.800,153.136 358.620,153.000 358.400 C 152.864 358.180,152.223 358.000,151.576 358.000 C 150.929 358.000,150.400 357.820,150.400 357.600 C 150.400 357.380,149.905 357.194,149.300 357.187 C 148.695 357.180,147.851 356.910,147.424 356.587 C 146.996 356.264,146.366 355.994,146.024 355.987 C 145.681 355.981,144.500 355.532,143.400 354.991 C 142.300 354.450,141.085 354.006,140.700 354.004 C 140.315 354.002,140.000 353.820,140.000 353.600 C 140.000 353.380,139.561 353.200,139.024 353.200 C 138.487 353.200,137.936 353.020,137.800 352.800 C 137.664 352.580,137.225 352.400,136.825 352.400 C 136.425 352.400,135.867 352.122,135.585 351.782 C 135.303 351.442,134.844 351.251,134.565 351.358 C 134.286 351.465,133.843 351.293,133.580 350.976 C 133.317 350.659,132.775 350.400,132.375 350.400 C 131.975 350.400,131.536 350.220,131.400 350.000 C 131.264 349.780,130.803 349.600,130.376 349.600 C 129.949 349.600,129.600 349.420,129.600 349.200 C 129.600 348.980,129.313 348.800,128.962 348.800 C 128.611 348.800,127.809 348.433,127.179 347.985 C 126.550 347.537,125.217 346.809,124.218 346.367 C 123.218 345.924,122.400 345.391,122.400 345.181 C 122.400 344.972,122.154 344.800,121.854 344.800 C 121.554 344.800,120.826 344.421,120.236 343.957 C 119.580 343.441,118.797 343.184,118.219 343.294 C 117.552 343.422,117.333 343.319,117.476 342.947 C 117.595 342.637,117.208 342.210,116.539 341.912 C 115.913 341.634,115.051 341.089,114.625 340.703 C 114.198 340.316,113.613 340.000,113.325 340.000 C 113.036 340.000,112.800 339.838,112.800 339.639 C 112.800 339.441,112.232 339.080,111.537 338.838 C 110.842 338.596,110.022 338.038,109.714 337.599 C 109.406 337.159,108.811 336.800,108.391 336.800 C 107.972 336.800,107.446 336.459,107.223 336.042 C 106.999 335.625,106.273 335.095,105.608 334.863 C 104.944 334.631,104.400 334.255,104.400 334.026 C 104.400 333.798,103.635 333.114,102.700 332.506 C 101.765 331.898,100.939 331.261,100.863 331.090 C 100.788 330.920,99.674 330.065,98.387 329.191 C 97.100 328.317,95.811 327.277,95.523 326.881 C 95.236 326.484,94.591 325.879,94.091 325.536 C 93.592 325.193,92.474 324.257,91.608 323.455 C 90.741 322.653,89.575 321.789,89.016 321.535 C 88.457 321.280,88.000 320.890,88.000 320.669 C 88.000 320.448,87.883 320.384,87.740 320.527 C 87.596 320.670,87.266 320.497,87.006 320.141 C 86.571 319.546,86.533 319.547,86.533 320.147 M316.189 324.288 C 314.875 325.316,313.575 326.379,313.300 326.650 C 312.705 327.237,312.628 329.200,313.200 329.200 C 313.420 329.200,313.600 328.840,313.600 328.400 C 313.600 327.960,313.836 327.600,314.125 327.600 C 314.413 327.600,315.036 327.240,315.508 326.800 C 315.980 326.360,316.509 326.000,316.683 326.000 C 316.857 326.000,317.515 325.354,318.145 324.565 C 319.935 322.322,318.891 322.174,316.189 324.288 M310.015 329.441 C 309.253 329.966,308.242 330.846,307.768 331.398 C 307.295 331.949,306.709 332.400,306.467 332.400 C 306.226 332.400,305.437 332.901,304.714 333.513 C 303.354 334.666,300.787 336.452,298.637 337.742 C 297.957 338.150,297.340 338.645,297.267 338.842 C 297.193 339.039,296.822 339.200,296.442 339.200 C 296.062 339.200,295.402 339.520,294.975 339.911 C 293.577 341.192,291.688 342.400,291.081 342.400 C 290.753 342.400,289.907 342.940,289.200 343.600 C 288.493 344.260,287.594 344.800,287.200 344.800 C 286.807 344.800,286.382 345.070,286.255 345.400 C 286.129 345.730,285.688 346.000,285.275 346.000 C 284.863 346.000,283.733 346.442,282.763 346.982 C 280.614 348.178,279.129 348.902,276.903 349.838 C 275.970 350.230,275.108 350.859,274.989 351.235 C 274.853 351.665,274.498 351.846,274.031 351.724 C 273.624 351.617,273.169 351.726,273.022 351.965 C 272.874 352.204,272.313 352.400,271.776 352.400 C 271.239 352.400,270.800 352.580,270.800 352.800 C 270.800 353.020,270.362 353.200,269.827 353.200 C 269.193 353.200,268.762 353.490,268.590 354.030 C 268.241 355.133,268.658 355.481,269.613 354.885 C 270.040 354.618,270.741 354.400,271.171 354.400 C 271.601 354.400,272.064 354.220,272.200 354.000 C 272.336 353.780,272.802 353.600,273.236 353.600 C 273.670 353.600,274.128 353.331,274.254 353.002 C 274.381 352.674,274.645 352.504,274.842 352.626 C 275.039 352.748,275.200 352.657,275.200 352.424 C 275.200 352.191,275.560 352.000,276.000 352.000 C 276.440 352.000,276.800 351.820,276.800 351.600 C 276.800 351.380,277.239 351.200,277.776 351.200 C 278.313 351.200,278.864 351.020,279.000 350.800 C 279.136 350.580,279.569 350.400,279.962 350.400 C 280.355 350.400,281.002 350.040,281.400 349.600 C 281.798 349.160,282.366 348.800,282.662 348.800 C 282.958 348.800,283.200 348.620,283.200 348.400 C 283.200 348.180,283.529 348.000,283.932 348.000 C 284.907 348.000,288.455 346.188,288.125 345.859 C 287.983 345.716,288.167 345.600,288.533 345.600 C 288.900 345.600,289.200 345.420,289.200 345.200 C 289.200 344.980,289.560 344.800,290.000 344.800 C 290.440 344.800,290.800 344.620,290.800 344.400 C 290.800 344.180,291.160 344.000,291.600 344.000 C 292.040 344.000,292.400 343.820,292.400 343.600 C 292.400 343.380,292.760 343.200,293.200 343.200 C 293.733 343.200,294.000 342.933,294.000 342.400 C 294.000 341.946,294.267 341.600,294.616 341.600 C 295.278 341.600,298.152 340.223,299.076 339.463 C 299.385 339.208,300.072 338.595,300.601 338.100 C 301.130 337.605,301.758 337.200,301.996 337.200 C 302.747 337.200,304.400 335.931,304.400 335.354 C 304.400 335.049,304.760 334.800,305.200 334.800 C 305.640 334.800,306.000 334.620,306.000 334.400 C 306.000 334.180,306.270 334.000,306.600 334.000 C 306.930 334.000,307.200 333.864,307.200 333.698 C 307.200 333.531,307.740 333.156,308.400 332.864 C 309.131 332.541,309.600 332.033,309.600 331.566 C 309.600 331.136,309.876 330.800,310.229 330.800 C 310.935 330.800,312.000 329.869,312.000 329.252 C 312.000 328.445,311.373 328.505,310.015 329.441 M266.400 354.447 C 266.070 354.642,265.305 354.976,264.700 355.190 C 263.991 355.442,263.600 355.868,263.600 356.390 C 263.600 356.836,263.420 357.200,263.200 357.200 C 262.980 357.200,262.800 357.020,262.800 356.800 C 262.800 356.580,262.350 356.400,261.800 356.400 C 261.250 356.400,260.800 356.580,260.800 356.800 C 260.800 357.020,260.260 357.200,259.600 357.200 C 258.940 357.200,258.400 357.380,258.400 357.600 C 258.400 357.820,257.770 358.000,257.000 358.000 C 256.230 358.000,255.600 358.180,255.600 358.400 C 255.600 358.620,254.981 358.800,254.224 358.800 C 253.467 358.800,252.736 358.980,252.600 359.200 C 252.464 359.420,251.857 359.600,251.252 359.600 C 250.646 359.600,249.724 359.997,249.203 360.483 C 248.575 361.068,248.201 361.203,248.094 360.883 C 247.854 360.162,246.615 360.300,245.862 361.131 C 245.038 362.042,245.010 362.800,245.800 362.800 C 246.130 362.800,246.400 362.620,246.400 362.400 C 246.400 362.180,247.300 362.000,248.400 362.000 C 249.500 362.000,250.400 361.820,250.400 361.600 C 250.400 361.380,251.120 361.200,252.000 361.200 C 252.880 361.200,253.600 361.020,253.600 360.800 C 253.600 360.580,254.125 360.400,254.767 360.400 C 256.307 360.400,257.200 360.033,257.200 359.401 C 257.200 358.959,258.606 358.547,260.800 358.346 C 261.130 358.316,261.580 358.156,261.800 357.992 C 262.020 357.827,262.820 357.560,263.577 357.397 C 264.335 357.235,265.203 356.854,265.506 356.551 C 265.809 356.248,266.404 356.000,266.829 356.000 C 267.326 356.000,267.600 355.724,267.600 355.224 C 267.600 354.258,267.181 353.988,266.400 354.447 M241.700 361.865 C 241.425 361.976,241.200 362.575,241.200 363.196 C 241.200 364.256,241.261 364.297,242.197 363.862 C 242.745 363.608,243.195 363.265,243.197 363.100 C 243.199 362.935,243.560 362.800,244.000 362.800 C 244.440 362.800,244.800 362.639,244.800 362.443 C 244.800 361.746,242.881 361.389,241.700 361.865 M238.000 362.692 C 237.373 362.930,236.817 363.587,236.806 364.100 C 236.803 364.265,237.700 364.400,238.800 364.400 C 240.496 364.400,240.800 364.285,240.800 363.643 C 240.800 362.577,239.480 362.128,238.000 362.692 M233.200 363.498 C 232.101 363.694,231.200 364.303,231.200 364.849 C 231.200 365.320,235.242 365.287,235.997 364.811 C 237.135 364.091,235.135 363.152,233.200 363.498 M178.270 364.962 C 178.123 365.345,178.224 365.685,178.507 365.759 C 178.778 365.829,179.643 366.092,180.428 366.344 C 183.231 367.239,185.815 366.455,184.475 365.115 C 183.726 364.366,178.548 364.238,178.270 364.962 M226.200 364.597 C 225.980 364.670,225.305 364.839,224.700 364.973 C 223.952 365.138,223.600 365.469,223.600 366.008 C 223.600 366.882,227.289 367.227,227.800 366.400 C 227.936 366.180,228.596 366.000,229.266 366.000 C 230.214 366.000,230.431 365.859,230.243 365.367 C 230.109 365.019,230.000 364.659,230.000 364.567 C 230.000 364.373,226.795 364.398,226.200 364.597 M185.900 365.733 C 184.681 366.699,185.086 366.800,190.200 366.800 C 192.950 366.800,195.200 366.640,195.200 366.443 C 195.200 365.535,186.945 364.905,185.900 365.733 M216.479 365.596 C 211.757 366.132,212.556 366.800,217.920 366.800 C 222.701 366.800,223.290 366.650,222.320 365.680 C 221.804 365.164,220.453 365.144,216.479 365.596 " stroke="none" fill="#9e7b08" fill-rule="evenodd"></path><path id="path4" d="M167.977 116.623 L 131.807 152.795 145.804 166.925 C 153.502 174.697,160.062 181.187,160.381 181.347 C 160.799 181.556,171.141 171.458,197.180 145.420 L 233.398 109.202 219.399 95.176 C 211.699 87.462,205.118 80.993,204.774 80.801 C 204.282 80.526,196.363 88.235,167.977 116.623 M218.849 95.231 L 232.919 109.263 196.855 145.325 L 160.791 181.386 146.788 167.393 C 139.086 159.697,132.834 153.163,132.893 152.873 C 133.017 152.260,203.966 81.200,204.452 81.200 C 204.631 81.200,211.110 87.514,218.849 95.231 M189.606 181.794 L 131.812 239.589 146.303 254.094 L 160.795 268.600 218.604 210.800 C 250.399 179.010,276.366 152.776,276.307 152.503 C 276.161 151.823,248.358 124.000,247.825 124.000 C 247.591 124.000,221.392 150.008,189.606 181.794 M262.098 138.298 C 269.744 145.942,276.000 152.377,276.000 152.599 C 276.000 153.224,161.468 267.600,160.842 267.600 C 160.209 267.600,132.800 240.318,132.800 239.689 C 132.800 239.254,247.507 124.400,247.941 124.400 C 248.081 124.400,254.452 130.654,262.098 138.298 M102.898 181.702 C 95.144 189.458,88.800 195.984,88.800 196.204 C 88.800 196.727,116.881 224.800,117.404 224.800 C 117.927 224.800,146.000 196.719,146.000 196.196 C 146.000 195.673,117.919 167.600,117.396 167.600 C 117.176 167.600,110.652 173.946,102.898 181.702 M233.098 225.105 C 201.474 256.732,175.600 282.788,175.600 283.007 C 175.600 283.677,203.871 311.710,204.377 311.541 C 204.925 311.358,320.000 196.402,320.000 196.038 C 320.000 195.492,291.749 167.600,291.196 167.600 C 290.866 167.600,264.722 193.477,233.098 225.105 M131.589 181.966 C 139.295 189.648,145.600 196.068,145.600 196.233 C 145.600 196.679,117.886 224.400,117.439 224.400 C 117.071 224.400,89.200 196.636,89.200 196.269 C 89.200 196.081,117.280 168.000,117.469 168.000 C 117.529 168.000,123.883 174.285,131.589 181.966 M305.796 182.011 L 319.791 196.008 262.196 253.604 C 230.519 285.282,204.420 311.200,204.198 311.200 C 203.977 311.200,197.497 304.900,189.799 297.199 L 175.803 283.198 233.401 225.599 C 265.080 193.920,291.179 168.003,291.399 168.007 C 291.620 168.010,298.098 174.312,305.796 182.011 " stroke="none" fill="#fadc8e" fill-rule="evenodd"></path></g></svg>