<svg id="svg" version="1.1" xmlns="http://www.w3.org/2000/svg" xmlns:xlink="http://www.w3.org/1999/xlink" width="400" height="400" viewBox="0, 0, 400,400"><g id="svgg"><path id="path0" d="M196.000 81.225 C 184.421 81.943,179.216 82.565,166.096 84.801 C 160.616 85.735,146.643 89.415,144.705 90.434 C 144.323 90.635,143.659 90.800,143.229 90.800 C 142.799 90.800,142.336 90.980,142.200 91.200 C 142.064 91.420,141.601 91.600,141.171 91.600 C 140.741 91.600,140.077 91.759,139.695 91.953 C 139.313 92.148,138.550 92.489,138.000 92.713 C 97.012 109.349,89.520 137.071,120.626 157.002 C 124.564 159.525,130.338 162.626,133.200 163.755 C 134.190 164.146,135.585 164.721,136.300 165.033 C 139.215 166.304,140.334 166.741,143.200 167.725 C 147.688 169.266,155.289 171.397,159.800 172.379 C 162.000 172.858,164.520 173.406,165.400 173.598 C 168.694 174.316,174.821 175.280,180.400 175.960 C 188.085 176.896,192.256 177.187,201.200 177.410 C 214.022 177.730,213.955 177.692,214.320 184.881 C 214.738 193.143,213.178 193.940,198.000 193.224 C 164.991 191.666,137.438 184.263,119.326 172.085 C 114.433 168.795,108.605 163.452,106.906 160.700 C 105.819 158.938,105.600 159.372,105.594 163.300 C 105.587 167.433,105.617 167.356,103.400 168.969 C 93.486 176.183,88.215 188.205,90.595 198.172 C 93.946 212.207,113.544 226.230,139.871 233.432 C 141.152 233.783,142.830 234.246,143.600 234.461 C 145.722 235.055,147.756 235.525,154.000 236.865 C 158.219 237.770,167.604 239.105,174.800 239.823 C 182.437 240.584,202.821 240.899,210.388 240.371 C 217.838 239.852,218.796 240.776,218.799 248.481 C 218.801 255.647,219.003 255.444,211.246 256.055 C 194.169 257.401,166.292 255.589,151.200 252.152 C 142.196 250.102,134.374 247.917,130.600 246.397 C 130.160 246.220,127.820 245.303,125.400 244.358 C 119.869 242.200,112.167 238.302,108.843 235.979 C 107.443 235.000,105.736 233.819,105.049 233.353 C 104.362 232.887,102.469 231.271,100.842 229.762 L 97.883 227.017 98.081 230.008 C 99.333 248.917,132.361 267.285,175.000 272.785 C 188.067 274.471,212.339 275.169,220.200 274.086 C 223.733 273.599,224.001 273.801,223.996 276.949 C 223.984 283.589,222.321 285.643,216.000 286.823 C 213.690 287.254,211.171 287.813,210.402 288.065 C 204.145 290.114,203.080 298.137,208.708 300.822 C 211.000 301.916,227.503 302.229,232.400 301.272 C 239.147 299.953,239.426 299.889,245.000 298.413 C 252.384 296.457,259.120 292.897,260.060 290.455 C 263.012 282.788,255.992 277.107,247.058 279.933 C 241.362 281.734,237.261 280.315,235.419 275.907 C 234.047 272.623,233.897 272.734,241.425 271.443 C 286.555 263.703,314.000 242.939,308.628 220.600 C 307.746 216.931,303.165 208.800,301.980 208.800 C 301.771 208.800,301.600 209.456,301.600 210.257 C 301.600 221.114,287.806 235.091,269.400 242.886 C 265.412 244.575,264.405 244.978,261.400 246.089 C 254.766 248.541,244.992 251.209,237.462 252.622 C 231.232 253.791,230.245 252.730,229.787 244.373 C 229.468 238.535,229.612 238.210,232.705 237.791 C 234.406 237.561,237.620 236.942,242.200 235.963 C 243.853 235.610,248.013 234.548,252.200 233.411 C 264.467 230.078,278.333 223.674,286.462 217.587 C 292.485 213.076,297.137 207.609,292.417 210.589 C 287.766 213.525,274.864 218.583,265.900 220.984 C 264.635 221.323,262.655 221.853,261.500 222.163 C 256.515 223.498,249.443 224.826,240.030 226.194 C 234.672 226.973,234.185 226.960,232.884 226.003 C 232.288 225.565,230.923 225.045,229.852 224.846 C 226.369 224.201,225.824 223.254,225.666 217.574 C 225.502 211.662,225.411 211.788,230.101 211.442 C 271.840 208.369,307.366 192.308,315.576 172.800 C 317.654 167.863,317.084 159.143,314.304 153.324 C 312.824 150.224,312.819 150.224,311.629 153.300 C 308.272 161.977,299.535 170.236,286.394 177.155 C 277.287 181.950,260.267 187.503,248.200 189.615 C 224.239 193.809,223.600 193.639,223.600 183.070 L 223.600 177.264 224.700 177.049 C 225.305 176.931,227.240 176.730,229.000 176.602 C 230.760 176.474,233.280 176.207,234.600 176.008 C 235.920 175.810,238.440 175.444,240.200 175.194 C 280.299 169.513,311.012 151.683,312.774 133.063 C 313.741 122.846,310.340 115.269,301.000 106.832 C 296.461 102.732,280.128 93.200,277.641 93.200 C 277.393 93.200,276.877 93.041,276.495 92.847 C 276.113 92.652,275.260 92.271,274.600 92.000 C 273.940 91.729,273.087 91.348,272.705 91.153 C 272.323 90.959,271.736 90.800,271.400 90.800 C 271.064 90.800,270.477 90.635,270.095 90.434 C 267.633 89.136,252.937 85.533,243.600 83.939 C 229.145 81.471,209.813 80.368,196.000 81.225 M222.400 102.400 C 222.400 102.620,222.213 102.800,221.985 102.800 C 221.613 102.800,213.891 106.301,212.400 107.146 C 211.336 107.748,211.542 108.584,212.891 109.134 C 213.611 109.427,214.580 109.849,215.045 110.071 C 215.615 110.344,216.135 110.344,216.645 110.070 C 220.782 107.845,224.000 106.765,224.000 107.600 C 224.000 107.820,224.245 108.000,224.544 108.000 C 224.843 108.000,226.205 108.576,227.570 109.280 C 229.647 110.351,230.177 110.482,230.820 110.080 C 231.243 109.816,231.862 109.600,232.195 109.600 C 232.528 109.600,232.800 109.441,232.800 109.247 C 232.800 109.052,233.173 108.796,233.630 108.676 C 234.470 108.457,234.113 106.800,233.226 106.800 C 233.035 106.800,231.335 106.080,229.448 105.200 C 227.561 104.320,225.878 103.596,225.709 103.591 C 225.539 103.586,224.950 103.232,224.400 102.804 L 223.400 102.025 226.200 102.230 C 239.602 103.213,248.250 109.022,243.742 114.012 C 236.200 122.359,208.584 122.284,201.405 113.897 C 198.541 110.551,200.883 107.272,208.200 104.383 C 210.350 103.534,213.986 102.763,217.400 102.433 C 222.201 101.969,222.400 101.968,222.400 102.400 M205.900 110.047 C 203.970 111.024,204.010 111.314,206.250 112.566 C 208.488 113.817,208.467 113.816,210.872 112.729 C 213.172 111.689,213.497 110.519,211.592 110.138 C 210.927 110.005,210.286 109.740,210.168 109.548 C 209.810 108.969,207.494 109.240,205.900 110.047 M221.432 109.548 C 221.314 109.740,220.673 110.005,220.008 110.138 C 218.103 110.519,218.428 111.689,220.728 112.729 C 223.135 113.817,223.110 113.818,225.368 112.555 C 227.214 111.524,227.500 110.910,226.376 110.391 C 226.059 110.244,225.397 109.916,224.905 109.662 C 223.853 109.119,221.740 109.049,221.432 109.548 M234.300 110.047 C 232.305 111.057,232.399 111.412,235.000 112.688 L 237.200 113.767 239.400 112.688 C 242.308 111.261,242.278 110.802,239.200 109.709 C 237.337 109.048,236.106 109.132,234.300 110.047 M213.100 113.247 C 210.589 114.518,210.805 114.732,217.659 117.763 C 223.511 120.350,222.791 120.203,224.922 119.248 C 225.845 118.834,228.130 117.828,230.000 117.013 C 234.969 114.846,235.194 114.454,232.296 113.008 C 230.520 112.122,229.661 112.239,226.200 113.838 L 223.087 115.276 219.844 113.835 C 216.227 112.228,215.276 112.145,213.100 113.247 M106.259 170.700 C 108.067 177.953,116.914 187.345,127.912 193.685 C 147.426 204.934,175.213 211.361,207.942 212.197 C 217.558 212.443,216.804 212.142,216.783 215.724 C 216.748 221.495,215.466 224.117,212.430 224.633 C 209.262 225.171,207.986 225.676,206.802 226.860 L 205.561 228.100 200.681 227.828 C 187.336 227.082,174.444 225.446,165.600 223.374 C 160.433 222.164,159.334 221.884,155.200 220.727 C 127.115 212.871,108.850 199.368,105.440 183.941 C 104.306 178.814,105.097 166.036,106.259 170.700 " stroke="none" fill="#a25a13" fill-rule="evenodd"></path><path id="path1" d="M217.400 102.433 C 213.986 102.763,210.350 103.534,208.200 104.383 C 200.883 107.272,198.541 110.551,201.405 113.897 C 208.584 122.284,236.200 122.359,243.742 114.012 C 248.250 109.022,239.602 103.213,226.200 102.230 L 223.400 102.025 224.400 102.804 C 224.950 103.232,225.539 103.586,225.709 103.591 C 225.878 103.596,227.561 104.320,229.448 105.200 C 231.335 106.080,233.035 106.800,233.226 106.800 C 234.113 106.800,234.470 108.457,233.630 108.676 C 233.173 108.796,232.800 109.052,232.800 109.247 C 232.800 109.441,232.528 109.600,232.195 109.600 C 231.862 109.600,231.243 109.816,230.820 110.080 C 230.177 110.482,229.647 110.351,227.570 109.280 C 226.205 108.576,224.843 108.000,224.544 108.000 C 224.245 108.000,224.000 107.820,224.000 107.600 C 224.000 106.765,220.782 107.845,216.645 110.070 C 216.135 110.344,215.615 110.344,215.045 110.071 C 214.580 109.849,213.611 109.427,212.891 109.134 C 211.542 108.584,211.336 107.748,212.400 107.146 C 213.891 106.301,221.613 102.800,221.985 102.800 C 222.213 102.800,222.400 102.620,222.400 102.400 C 222.400 101.968,222.201 101.969,217.400 102.433 M210.168 109.548 C 210.286 109.740,210.927 110.005,211.592 110.138 C 213.933 110.607,211.279 113.600,208.522 113.600 C 207.847 113.600,204.400 111.567,204.400 111.169 C 204.400 110.108,209.609 108.644,210.168 109.548 M224.905 109.662 C 225.397 109.916,226.059 110.244,226.376 110.391 C 227.500 110.910,227.214 111.524,225.368 112.555 C 223.110 113.818,223.135 113.817,220.728 112.729 C 218.428 111.689,218.103 110.519,220.008 110.138 C 220.673 110.005,221.314 109.740,221.432 109.548 C 221.740 109.049,223.853 109.119,224.905 109.662 M239.200 109.709 C 242.278 110.802,242.308 111.261,239.400 112.688 L 237.200 113.767 235.000 112.688 C 232.399 111.412,232.305 111.057,234.300 110.047 C 236.106 109.132,237.337 109.048,239.200 109.709 M219.844 113.835 L 223.087 115.276 226.200 113.838 C 229.661 112.239,230.520 112.122,232.296 113.008 C 235.194 114.454,234.969 114.846,230.000 117.013 C 228.130 117.828,225.845 118.834,224.922 119.248 C 222.791 120.203,223.511 120.350,217.659 117.763 C 210.805 114.732,210.589 114.518,213.100 113.247 C 215.276 112.145,216.227 112.228,219.844 113.835 M101.646 141.800 C 101.624 149.387,103.068 155.282,105.670 158.226 C 106.072 158.680,106.400 159.250,106.400 159.492 C 106.400 159.735,106.551 159.993,106.736 160.067 C 106.921 160.140,107.743 161.100,108.562 162.200 C 118.733 175.857,148.930 187.955,182.000 191.620 C 191.587 192.683,206.404 193.330,209.164 192.807 C 210.344 192.583,211.347 192.400,211.393 192.400 C 211.730 192.400,213.200 190.816,213.200 190.453 C 213.200 190.204,213.380 190.000,213.600 190.000 C 214.394 190.000,214.086 181.736,213.229 180.057 C 212.019 177.684,212.209 177.724,200.600 177.463 C 178.007 176.955,152.863 172.386,138.600 166.197 C 137.940 165.910,136.590 165.344,135.600 164.939 C 131.917 163.431,124.296 159.557,121.959 158.005 C 120.631 157.122,119.468 156.400,119.375 156.400 C 119.283 156.400,118.350 155.754,117.303 154.964 C 109.809 149.309,104.105 142.442,101.884 136.400 C 101.762 136.070,101.655 138.500,101.646 141.800 M312.000 138.588 C 312.000 139.337,310.514 141.996,309.651 142.792 C 309.288 143.126,308.467 144.120,307.826 145.000 C 305.689 147.934,296.479 156.400,295.424 156.400 C 295.332 156.400,294.209 157.096,292.928 157.946 C 284.738 163.385,266.329 170.444,254.200 172.797 C 253.320 172.967,250.800 173.470,248.600 173.914 C 244.352 174.771,235.469 176.070,228.200 176.899 L 223.800 177.400 223.688 182.966 L 223.577 188.532 224.688 189.702 C 227.428 192.584,228.005 192.592,243.800 189.968 C 252.412 188.536,264.739 185.453,271.200 183.113 C 275.064 181.714,280.587 179.534,281.000 179.244 C 281.220 179.090,282.480 178.536,283.800 178.012 C 285.120 177.489,286.290 176.957,286.400 176.830 C 286.510 176.704,287.030 176.358,287.555 176.062 C 288.080 175.767,289.160 175.161,289.955 174.716 C 290.750 174.270,291.878 173.567,292.462 173.153 C 293.046 172.739,293.630 172.400,293.760 172.400 C 295.083 172.400,307.600 160.950,307.600 159.740 C 307.600 159.443,307.750 159.200,307.932 159.200 C 308.115 159.200,308.520 158.705,308.832 158.100 C 309.144 157.495,309.505 156.910,309.635 156.800 C 310.017 156.476,311.937 151.153,312.376 149.200 C 312.909 146.827,312.928 138.000,312.400 138.000 C 312.180 138.000,312.000 138.265,312.000 138.588 M105.427 172.654 C 105.068 175.198,105.519 184.462,106.027 184.980 C 106.232 185.189,106.400 185.744,106.400 186.214 C 106.400 194.300,123.653 208.882,141.200 215.626 C 143.510 216.514,145.760 217.393,146.200 217.580 C 154.062 220.916,173.406 225.066,187.200 226.376 C 189.510 226.596,191.850 226.865,192.400 226.975 C 192.950 227.085,196.100 227.245,199.400 227.330 L 205.400 227.486 206.908 226.198 C 208.132 225.152,208.869 224.869,210.822 224.691 C 215.336 224.282,216.400 222.739,216.400 216.603 L 216.400 212.528 206.278 212.268 C 189.473 211.835,177.421 210.358,162.176 206.863 C 139.576 201.681,119.162 190.890,110.980 179.800 C 110.331 178.921,109.490 177.857,109.111 177.437 C 108.481 176.738,106.371 172.626,105.911 171.200 C 105.804 170.870,105.587 171.524,105.427 172.654 M316.046 172.462 C 315.977 173.456,314.334 176.443,313.200 177.638 C 312.650 178.218,311.231 179.902,310.047 181.382 C 299.102 195.051,269.971 207.139,239.600 210.612 C 234.908 211.149,226.976 211.984,226.500 211.992 C 225.772 212.004,225.820 221.930,226.554 222.896 C 227.216 223.769,229.639 224.800,231.025 224.800 C 231.604 224.800,232.606 225.177,233.253 225.638 C 234.504 226.528,234.322 226.528,241.200 225.644 C 246.638 224.944,257.580 222.893,260.600 222.006 C 261.260 221.813,262.565 221.462,263.500 221.227 C 267.223 220.292,268.731 219.872,271.800 218.914 C 273.560 218.364,275.313 217.754,275.695 217.557 C 276.077 217.361,276.634 217.200,276.933 217.200 C 277.232 217.200,278.000 216.950,278.639 216.644 C 279.277 216.338,280.520 215.779,281.400 215.402 C 285.890 213.479,291.663 210.759,292.000 210.407 C 292.110 210.293,292.740 209.937,293.400 209.618 C 294.060 209.299,294.750 208.964,294.933 208.875 C 295.929 208.388,293.731 211.333,291.540 213.422 C 286.761 217.979,281.608 221.402,273.200 225.603 C 266.087 229.157,254.403 233.279,246.000 235.200 C 239.358 236.717,236.644 237.287,234.445 237.622 C 229.536 238.372,230.000 237.728,230.000 243.783 C 230.000 250.944,231.616 253.450,235.705 252.630 C 236.417 252.487,237.810 252.213,238.800 252.022 C 245.636 250.702,260.252 246.382,264.696 244.368 C 265.628 243.946,266.539 243.600,266.721 243.600 C 266.902 243.600,267.795 243.240,268.706 242.800 C 269.616 242.360,270.625 242.000,270.947 242.000 C 271.270 242.000,271.593 241.865,271.667 241.700 C 271.784 241.437,272.890 240.823,278.200 238.075 C 282.521 235.840,290.911 229.382,293.564 226.250 C 293.914 225.837,294.605 225.080,295.100 224.568 C 295.595 224.056,296.000 223.482,296.000 223.294 C 296.000 223.105,296.320 222.602,296.711 222.175 C 298.649 220.062,300.617 214.713,301.078 210.300 C 301.347 207.736,301.976 207.859,304.131 210.900 C 310.858 220.393,311.524 233.460,305.620 240.099 C 304.984 240.814,303.374 242.680,302.044 244.245 C 298.963 247.867,293.501 252.342,288.600 255.258 C 276.133 262.677,260.164 268.258,242.400 271.403 C 233.864 272.914,234.673 272.597,234.993 274.301 C 235.955 279.432,240.334 281.489,246.762 279.829 C 252.764 278.279,256.636 278.864,259.005 281.679 C 259.886 282.725,260.176 282.850,260.921 282.504 C 261.405 282.279,263.150 281.681,264.800 281.176 C 266.450 280.670,267.971 280.108,268.180 279.928 C 268.389 279.748,268.839 279.594,269.180 279.587 C 269.521 279.581,270.875 279.041,272.190 278.387 C 273.504 277.734,274.787 277.200,275.041 277.200 C 278.195 277.200,294.122 267.143,299.400 261.819 C 303.700 257.482,307.006 252.146,308.044 247.870 C 308.741 244.997,309.200 244.670,309.200 247.047 C 309.200 261.166,290.726 277.085,263.241 286.649 C 261.166 287.371,261.063 287.476,260.592 289.342 C 258.674 296.947,232.475 303.971,213.516 301.964 C 208.074 301.388,206.517 300.506,204.797 297.021 L 204.194 295.800 195.397 295.554 C 136.519 293.904,90.862 268.481,95.595 239.981 C 96.815 232.639,97.998 232.807,98.005 240.324 C 98.011 247.875,98.864 250.793,102.721 256.456 C 109.477 266.373,126.121 276.891,142.200 281.403 C 143.520 281.773,145.410 282.342,146.400 282.668 C 147.390 282.994,148.920 283.413,149.800 283.600 C 150.680 283.787,152.930 284.315,154.800 284.773 C 161.619 286.444,164.251 286.944,171.800 288.000 C 173.560 288.246,176.080 288.608,177.400 288.805 C 180.796 289.310,187.670 289.767,198.722 290.220 L 205.644 290.504 207.322 289.318 C 209.522 287.764,209.813 287.669,215.172 286.760 C 222.035 285.596,223.321 284.315,223.837 278.134 C 224.199 273.796,224.353 273.879,216.946 274.383 C 190.021 276.215,159.969 272.346,137.200 264.118 C 114.121 255.778,97.600 241.216,97.600 229.213 C 97.600 226.232,97.685 226.233,100.839 229.247 C 102.248 230.593,104.030 232.167,104.800 232.745 C 105.570 233.323,106.290 233.887,106.400 233.999 C 107.966 235.592,119.559 241.724,125.200 243.943 C 127.070 244.679,128.960 245.431,129.400 245.616 C 131.847 246.642,140.180 249.154,144.500 250.167 C 150.602 251.598,152.312 251.978,154.600 252.414 C 155.920 252.665,157.810 253.028,158.800 253.220 C 162.015 253.845,168.196 254.584,178.716 255.602 C 187.893 256.490,216.066 255.881,217.435 254.765 C 219.001 253.488,219.250 244.529,217.774 242.552 C 216.075 240.277,215.346 240.024,211.600 240.404 C 200.332 241.549,175.092 240.524,162.000 238.389 C 160.570 238.156,158.320 237.797,157.000 237.591 C 155.680 237.385,153.880 237.051,153.000 236.849 C 152.120 236.646,150.500 236.287,149.400 236.050 C 125.270 230.858,104.518 220.198,95.572 208.400 C 94.821 207.410,93.915 206.277,93.557 205.882 C 92.766 205.009,90.985 201.397,90.261 199.200 C 90.152 198.870,90.042 201.210,90.017 204.400 L 89.971 210.200 86.513 212.600 C 51.675 236.783,61.613 271.998,108.800 291.579 C 111.110 292.538,113.720 293.636,114.600 294.020 C 115.480 294.403,117.370 295.085,118.800 295.534 C 120.230 295.983,122.480 296.744,123.800 297.224 C 125.120 297.705,127.460 298.427,129.000 298.829 C 130.540 299.231,133.150 299.938,134.800 300.400 C 145.753 303.462,163.524 306.403,178.400 307.614 C 180.930 307.820,184.080 308.087,185.400 308.207 C 206.838 310.161,247.868 306.563,269.600 300.825 C 270.370 300.622,272.350 300.098,274.000 299.660 C 335.044 283.487,358.028 245.680,324.388 216.777 C 319.512 212.588,310.368 206.529,305.500 204.261 C 303.427 203.296,303.578 202.799,306.942 199.492 C 308.560 197.901,310.306 195.970,310.822 195.200 C 311.339 194.430,311.882 193.710,312.029 193.600 C 312.424 193.305,314.689 188.714,315.422 186.724 C 316.061 184.989,316.724 174.280,316.296 172.600 C 316.147 172.015,316.080 171.978,316.046 172.462 " stroke="none" fill="#eadbb4" fill-rule="evenodd"></path><path id="path2" d="M183.400 25.609 C 178.866 25.998,173.254 26.759,171.538 27.219 C 170.733 27.434,169.293 27.695,168.338 27.799 C 164.794 28.182,163.189 28.494,162.974 28.842 C 162.852 29.039,162.079 29.200,161.256 29.200 C 160.433 29.200,159.589 29.351,159.380 29.536 C 158.960 29.907,154.376 31.043,153.900 30.894 C 153.735 30.842,153.600 30.980,153.600 31.200 C 153.600 31.420,152.981 31.600,152.224 31.600 C 151.467 31.600,150.736 31.780,150.600 32.000 C 150.464 32.220,149.924 32.400,149.400 32.400 C 148.876 32.400,148.336 32.580,148.200 32.800 C 148.064 33.020,147.513 33.200,146.976 33.200 C 146.439 33.200,146.000 33.380,146.000 33.600 C 146.000 33.820,145.651 34.000,145.224 34.000 C 144.797 34.000,144.336 34.180,144.200 34.400 C 144.064 34.620,143.513 34.800,142.976 34.800 C 142.439 34.800,142.000 34.980,142.000 35.200 C 142.000 35.420,141.460 35.600,140.800 35.600 C 140.140 35.600,139.600 35.780,139.600 36.000 C 139.600 36.220,139.240 36.400,138.800 36.400 C 138.360 36.400,138.000 36.580,138.000 36.800 C 138.000 37.020,137.460 37.200,136.800 37.200 C 136.140 37.200,135.600 37.380,135.600 37.600 C 135.600 37.820,135.240 38.000,134.800 38.000 C 134.360 38.000,134.000 38.180,134.000 38.400 C 134.000 38.620,133.640 38.800,133.200 38.800 C 132.760 38.800,132.400 38.980,132.400 39.200 C 132.400 39.420,131.950 39.600,131.400 39.600 C 130.850 39.600,130.400 39.780,130.400 40.000 C 130.400 40.220,129.950 40.400,129.400 40.400 C 128.850 40.400,128.400 40.580,128.400 40.800 C 128.400 41.020,128.040 41.200,127.600 41.200 C 127.160 41.200,126.800 41.366,126.800 41.568 C 126.800 41.771,126.262 42.055,125.605 42.199 C 124.947 42.343,124.306 42.628,124.181 42.831 C 124.055 43.034,123.603 43.200,123.176 43.200 C 122.749 43.200,122.400 43.380,122.400 43.600 C 122.400 43.820,122.040 44.000,121.600 44.000 C 121.160 44.000,120.800 44.180,120.800 44.400 C 120.800 44.620,120.440 44.800,120.000 44.800 C 119.560 44.800,119.200 44.980,119.200 45.200 C 119.200 45.420,118.964 45.600,118.675 45.600 C 118.387 45.600,117.793 45.915,117.355 46.300 C 116.230 47.289,114.914 48.000,114.205 48.000 C 113.872 48.000,113.600 48.180,113.600 48.400 C 113.600 48.620,113.364 48.800,113.075 48.800 C 112.787 48.800,112.202 49.115,111.775 49.500 C 111.349 49.885,110.508 50.454,109.907 50.764 C 109.305 51.074,108.458 51.659,108.023 52.064 C 107.589 52.469,106.996 52.800,106.705 52.800 C 106.414 52.800,105.917 53.160,105.600 53.600 C 105.283 54.040,104.743 54.400,104.400 54.400 C 104.057 54.400,103.517 54.760,103.200 55.200 C 102.883 55.640,102.375 56.000,102.072 56.000 C 101.769 56.000,101.017 56.540,100.400 57.200 C 99.783 57.860,99.074 58.400,98.822 58.400 C 98.405 58.400,96.431 59.809,92.810 62.693 C 92.045 63.302,90.645 64.565,89.699 65.500 C 88.753 66.435,87.796 67.200,87.571 67.200 C 87.013 67.200,69.200 85.045,69.200 85.604 C 69.200 85.851,68.300 86.929,67.200 88.000 C 66.100 89.071,65.200 90.147,65.200 90.390 C 65.200 90.633,64.504 91.500,63.653 92.316 C 62.105 93.801,56.505 101.581,55.001 104.337 C 54.562 105.141,53.887 106.091,53.501 106.447 C 53.116 106.803,52.800 107.348,52.800 107.659 C 52.800 107.969,52.440 108.483,52.000 108.800 C 51.560 109.117,51.200 109.663,51.200 110.013 C 51.200 110.363,50.840 111.036,50.400 111.508 C 49.960 111.980,49.600 112.567,49.600 112.811 C 49.600 113.056,49.060 114.041,48.400 115.000 C 47.740 115.959,47.200 116.937,47.200 117.172 C 47.200 117.407,47.020 117.600,46.800 117.600 C 46.580 117.600,46.400 117.960,46.400 118.400 C 46.400 118.840,46.220 119.200,46.000 119.200 C 45.780 119.200,45.600 119.560,45.600 120.000 C 45.600 120.440,45.420 120.800,45.200 120.800 C 44.980 120.800,44.800 121.160,44.800 121.600 C 44.800 122.040,44.620 122.400,44.400 122.400 C 44.180 122.400,44.000 122.636,44.000 122.925 C 44.000 123.214,43.664 124.159,43.253 125.025 C 42.842 125.891,42.196 127.320,41.819 128.200 C 41.442 129.080,40.968 130.113,40.766 130.495 C 40.565 130.877,40.400 131.462,40.400 131.795 C 40.400 132.128,40.220 132.400,40.000 132.400 C 39.780 132.400,39.600 132.760,39.600 133.200 C 39.600 133.640,39.420 134.000,39.200 134.000 C 38.980 134.000,38.800 134.540,38.800 135.200 C 38.800 135.860,38.620 136.400,38.400 136.400 C 38.180 136.400,38.000 136.760,38.000 137.200 C 38.000 137.640,37.820 138.000,37.600 138.000 C 37.380 138.000,37.200 138.540,37.200 139.200 C 37.200 139.860,37.020 140.400,36.800 140.400 C 36.580 140.400,36.400 140.749,36.400 141.176 C 36.400 141.603,36.220 142.064,36.000 142.200 C 35.780 142.336,35.600 142.876,35.600 143.400 C 35.600 143.924,35.420 144.464,35.200 144.600 C 34.980 144.736,34.800 145.366,34.800 146.000 C 34.800 146.634,34.620 147.264,34.400 147.400 C 34.180 147.536,34.000 148.087,34.000 148.624 C 34.000 149.161,33.820 149.600,33.600 149.600 C 33.380 149.600,33.200 150.129,33.200 150.776 C 33.200 151.423,33.009 152.071,32.776 152.215 C 32.543 152.359,32.406 152.884,32.472 153.383 C 32.537 153.881,32.390 154.539,32.145 154.844 C 31.713 155.384,31.380 156.717,30.956 159.600 C 30.843 160.370,30.559 161.391,30.324 161.869 C 30.090 162.347,30.009 163.182,30.145 163.723 C 30.300 164.340,30.184 164.881,29.837 165.169 C 29.272 165.638,29.248 167.152,29.781 168.600 C 30.009 169.219,29.982 169.267,29.661 168.814 C 29.320 168.332,29.170 168.427,28.823 169.340 C 28.293 170.733,28.286 171.483,28.800 171.800 C 29.423 172.185,29.292 173.610,28.656 173.366 C 27.821 173.046,27.461 175.918,28.238 176.695 C 28.914 177.371,28.805 178.653,28.083 178.502 C 27.614 178.405,27.464 178.854,26.998 181.739 C 26.834 182.755,26.890 183.192,27.163 183.023 C 27.678 182.705,28.187 184.574,27.769 185.251 C 27.547 185.610,27.378 185.533,27.157 184.973 C 26.912 184.351,26.864 184.414,26.913 185.300 C 26.947 185.905,27.205 186.400,27.487 186.400 C 28.265 186.400,28.183 190.355,27.400 190.655 C 26.500 191.001,26.500 209.799,27.400 210.145 C 28.236 210.465,28.236 213.935,27.400 214.255 C 27.070 214.382,26.800 214.837,26.800 215.266 C 26.800 215.696,26.980 215.936,27.200 215.800 C 27.420 215.664,27.600 215.728,27.600 215.943 C 27.600 216.158,27.419 216.394,27.197 216.468 C 26.929 216.557,26.943 217.671,27.238 219.801 C 27.481 221.560,27.665 223.360,27.646 223.800 C 27.626 224.240,27.814 225.590,28.064 226.800 C 28.313 228.010,28.568 229.450,28.631 230.000 C 29.043 233.625,29.348 235.244,29.652 235.432 C 29.843 235.550,30.000 236.321,30.000 237.144 C 30.000 237.967,30.171 238.811,30.381 239.021 C 30.590 239.230,30.808 240.089,30.864 240.929 C 30.921 241.769,31.110 242.544,31.284 242.652 C 31.458 242.759,31.600 243.366,31.600 244.000 C 31.600 244.634,31.780 245.264,32.000 245.400 C 32.220 245.536,32.400 246.267,32.400 247.024 C 32.400 247.781,32.580 248.400,32.800 248.400 C 33.020 248.400,33.200 248.852,33.200 249.405 C 33.200 249.958,33.358 250.723,33.551 251.105 C 34.094 252.181,34.800 254.580,34.800 255.352 C 34.800 255.734,34.980 255.936,35.200 255.800 C 35.433 255.656,35.600 256.055,35.600 256.753 C 35.600 257.413,35.780 258.064,36.000 258.200 C 36.220 258.336,36.400 258.887,36.400 259.424 C 36.400 259.961,36.580 260.400,36.800 260.400 C 37.020 260.400,37.200 260.940,37.200 261.600 C 37.200 262.260,37.380 262.800,37.600 262.800 C 37.820 262.800,38.000 263.160,38.000 263.600 C 38.000 264.040,38.180 264.400,38.400 264.400 C 38.620 264.400,38.800 264.743,38.800 265.162 C 38.800 265.581,39.186 266.706,39.657 267.662 C 40.128 268.618,40.650 269.760,40.816 270.200 C 41.288 271.448,42.404 274.040,43.240 275.826 C 43.658 276.721,44.000 277.666,44.000 277.926 C 44.000 278.187,44.180 278.400,44.400 278.400 C 44.620 278.400,44.800 278.760,44.800 279.200 C 44.800 279.640,44.980 280.000,45.200 280.000 C 45.420 280.000,45.600 280.360,45.600 280.800 C 45.600 281.240,45.780 281.600,46.000 281.600 C 46.220 281.600,46.400 281.960,46.400 282.400 C 46.400 282.840,46.580 283.200,46.800 283.200 C 47.020 283.200,47.200 283.470,47.200 283.800 C 47.200 284.130,47.380 284.400,47.600 284.400 C 47.820 284.400,48.000 284.726,48.000 285.125 C 48.000 285.523,48.360 286.236,48.800 286.708 C 49.240 287.180,49.600 287.844,49.600 288.183 C 49.600 288.522,49.780 288.800,50.000 288.800 C 50.220 288.800,50.400 289.070,50.400 289.400 C 50.400 289.730,50.580 290.000,50.800 290.000 C 51.020 290.000,51.200 290.236,51.200 290.525 C 51.200 290.813,51.560 291.436,52.000 291.908 C 52.440 292.380,52.800 292.962,52.800 293.200 C 52.800 293.438,53.160 294.020,53.600 294.492 C 54.040 294.964,54.400 295.587,54.400 295.875 C 54.400 296.164,54.580 296.400,54.800 296.400 C 55.020 296.400,55.200 296.591,55.200 296.823 C 55.200 297.276,57.599 300.511,58.100 300.733 C 58.265 300.807,58.400 301.023,58.400 301.213 C 58.400 301.690,60.639 304.968,61.389 305.591 C 61.725 305.870,62.000 306.284,62.000 306.511 C 62.000 306.738,62.720 307.609,63.600 308.446 C 64.480 309.283,65.200 310.167,65.200 310.410 C 65.200 310.653,66.100 311.729,67.200 312.800 C 68.300 313.871,69.200 314.940,69.200 315.174 C 69.200 315.408,69.380 315.600,69.600 315.600 C 69.820 315.600,70.000 315.801,70.000 316.048 C 70.000 316.586,86.266 332.800,86.805 332.800 C 87.013 332.800,88.173 333.790,89.383 335.000 C 90.593 336.210,91.700 337.200,91.843 337.200 C 91.986 337.200,92.782 337.785,93.612 338.500 C 95.775 340.363,98.616 342.400,99.051 342.400 C 99.256 342.400,99.683 342.760,100.000 343.200 C 100.317 343.640,100.825 344.000,101.128 344.000 C 101.431 344.000,102.183 344.540,102.800 345.200 C 103.417 345.860,104.169 346.400,104.472 346.400 C 104.775 346.400,105.283 346.760,105.600 347.200 C 105.917 347.640,106.431 348.000,106.741 348.000 C 107.052 348.000,107.597 348.316,107.953 348.703 C 108.309 349.089,109.092 349.658,109.693 349.967 C 110.295 350.275,111.142 350.859,111.577 351.264 C 112.011 351.669,112.526 352.000,112.722 352.000 C 113.333 352.000,115.493 353.189,116.007 353.808 C 116.277 354.134,116.746 354.400,117.049 354.400 C 117.352 354.400,117.600 354.580,117.600 354.800 C 117.600 355.020,117.960 355.200,118.400 355.200 C 118.840 355.200,119.200 355.380,119.200 355.600 C 119.200 355.820,119.560 356.000,120.000 356.000 C 120.440 356.000,120.800 356.180,120.800 356.400 C 120.800 356.620,121.039 356.800,121.332 356.800 C 121.625 356.800,122.750 357.249,123.832 357.798 C 124.914 358.347,126.025 358.797,126.300 358.798 C 126.575 358.799,126.800 358.980,126.800 359.200 C 126.800 359.420,127.160 359.600,127.600 359.600 C 128.040 359.600,128.400 359.780,128.400 360.000 C 128.400 360.220,128.749 360.400,129.176 360.400 C 129.603 360.400,130.064 360.580,130.200 360.800 C 130.336 361.020,130.887 361.200,131.424 361.200 C 131.961 361.200,132.400 361.380,132.400 361.600 C 132.400 361.820,132.760 362.000,133.200 362.000 C 133.640 362.000,134.000 362.180,134.000 362.400 C 134.000 362.620,134.349 362.800,134.776 362.800 C 135.203 362.800,135.664 362.980,135.800 363.200 C 135.936 363.420,136.487 363.600,137.024 363.600 C 137.561 363.600,138.000 363.780,138.000 364.000 C 138.000 364.220,138.349 364.400,138.776 364.400 C 139.203 364.400,139.664 364.580,139.800 364.800 C 139.936 365.020,140.487 365.200,141.024 365.200 C 141.561 365.200,142.000 365.380,142.000 365.600 C 142.000 365.820,142.439 366.000,142.976 366.000 C 143.513 366.000,144.064 366.180,144.200 366.400 C 144.336 366.620,144.876 366.800,145.400 366.800 C 145.924 366.800,146.464 366.980,146.600 367.200 C 146.736 367.420,147.199 367.600,147.629 367.600 C 148.059 367.600,148.723 367.762,149.105 367.961 C 149.487 368.160,150.610 368.537,151.600 368.800 C 152.590 369.063,153.713 369.440,154.095 369.639 C 154.477 369.838,155.212 370.000,155.728 370.000 C 156.244 370.000,156.791 370.125,156.944 370.277 C 157.096 370.429,157.544 370.603,157.940 370.664 C 158.336 370.724,159.726 371.070,161.030 371.432 C 162.333 371.794,163.850 372.163,164.400 372.251 C 164.950 372.339,166.840 372.687,168.600 373.025 C 172.772 373.827,175.175 374.255,178.600 374.807 C 182.278 375.399,224.421 375.118,227.600 374.480 C 230.487 373.900,236.581 372.824,238.600 372.537 C 239.480 372.412,240.380 372.167,240.600 371.993 C 240.820 371.819,241.630 371.569,242.400 371.438 C 244.221 371.127,245.964 370.666,249.400 369.585 C 250.940 369.101,252.785 368.616,253.500 368.509 C 254.215 368.401,254.800 368.152,254.800 367.956 C 254.800 367.760,255.239 367.600,255.776 367.600 C 256.313 367.600,256.864 367.420,257.000 367.200 C 257.136 366.980,257.676 366.800,258.200 366.800 C 258.724 366.800,259.264 366.620,259.400 366.400 C 259.536 366.180,260.177 366.000,260.824 366.000 C 261.471 366.000,262.000 365.820,262.000 365.600 C 262.000 365.380,262.349 365.200,262.776 365.200 C 263.203 365.200,263.664 365.020,263.800 364.800 C 263.936 364.580,264.487 364.400,265.024 364.400 C 265.561 364.400,266.000 364.220,266.000 364.000 C 266.000 363.780,266.439 363.600,266.976 363.600 C 267.513 363.600,268.064 363.420,268.200 363.200 C 268.336 362.980,268.797 362.800,269.224 362.800 C 269.651 362.800,270.000 362.620,270.000 362.400 C 270.000 362.180,270.360 362.000,270.800 362.000 C 271.240 362.000,271.600 361.820,271.600 361.600 C 271.600 361.380,272.050 361.200,272.600 361.200 C 273.150 361.200,273.600 361.020,273.600 360.800 C 273.600 360.580,273.960 360.400,274.400 360.400 C 274.840 360.400,275.200 360.220,275.200 360.000 C 275.200 359.780,275.560 359.600,276.000 359.600 C 276.440 359.600,276.800 359.420,276.800 359.200 C 276.800 358.980,277.115 358.800,277.500 358.799 C 278.377 358.798,288.141 353.932,288.800 353.168 C 288.910 353.040,289.585 352.681,290.300 352.370 C 291.015 352.059,291.600 351.690,291.600 351.551 C 291.600 351.411,292.140 351.073,292.800 350.800 C 293.460 350.527,294.000 350.145,294.000 349.951 C 294.000 349.758,294.320 349.600,294.712 349.600 C 295.103 349.600,295.683 349.240,296.000 348.800 C 296.317 348.360,296.857 348.000,297.200 348.000 C 297.543 348.000,298.083 347.640,298.400 347.200 C 298.717 346.760,299.225 346.400,299.528 346.400 C 299.831 346.400,300.583 345.860,301.200 345.200 C 301.817 344.540,302.569 344.000,302.872 344.000 C 303.175 344.000,303.683 343.640,304.000 343.200 C 304.317 342.760,304.744 342.400,304.949 342.400 C 305.447 342.400,308.528 340.119,310.217 338.500 C 310.963 337.785,311.741 337.200,311.946 337.200 C 312.151 337.200,313.195 336.343,314.265 335.295 C 315.335 334.247,316.835 332.945,317.597 332.402 C 319.408 331.113,333.200 317.322,333.200 316.801 C 333.200 316.580,333.380 316.400,333.600 316.400 C 333.820 316.400,334.000 316.216,334.000 315.991 C 334.000 315.767,334.990 314.593,336.200 313.383 C 337.410 312.173,338.400 311.014,338.400 310.807 C 338.400 310.601,339.075 309.723,339.900 308.855 C 341.663 307.002,342.608 305.811,343.513 304.300 C 343.876 303.695,344.314 303.200,344.486 303.200 C 344.659 303.200,344.800 302.930,344.800 302.600 C 344.800 302.270,344.980 302.000,345.200 302.000 C 345.420 302.000,345.600 301.730,345.600 301.400 C 345.600 301.070,345.735 300.799,345.900 300.797 C 346.065 300.795,346.830 299.812,347.600 298.613 C 348.370 297.414,349.135 296.425,349.300 296.416 C 349.465 296.407,349.600 296.080,349.600 295.688 C 349.600 295.297,349.960 294.717,350.400 294.400 C 350.840 294.083,351.200 293.503,351.200 293.112 C 351.200 292.720,351.352 292.400,351.537 292.400 C 351.723 292.400,352.308 291.545,352.837 290.500 C 353.367 289.455,353.935 288.540,354.100 288.467 C 354.265 288.393,354.400 288.078,354.400 287.767 C 354.400 287.455,354.580 287.200,354.800 287.200 C 355.020 287.200,355.200 287.045,355.200 286.855 C 355.200 286.666,355.932 285.181,356.828 283.555 C 357.723 281.930,358.555 280.105,358.678 279.500 C 358.800 278.895,359.058 278.400,359.250 278.400 C 359.443 278.400,359.600 278.040,359.600 277.600 C 359.600 277.160,359.780 276.800,360.000 276.800 C 360.220 276.800,360.400 276.440,360.400 276.000 C 360.400 275.560,360.580 275.200,360.800 275.200 C 361.020 275.200,361.200 274.840,361.200 274.400 C 361.200 273.960,361.380 273.600,361.600 273.600 C 361.820 273.600,362.000 273.240,362.000 272.800 C 362.000 272.360,362.180 272.000,362.400 272.000 C 362.620 272.000,362.800 271.651,362.800 271.224 C 362.800 270.797,362.980 270.336,363.200 270.200 C 363.420 270.064,363.600 269.603,363.600 269.176 C 363.600 268.749,363.780 268.400,364.000 268.400 C 364.220 268.400,364.400 268.040,364.400 267.600 C 364.400 267.160,364.580 266.800,364.800 266.800 C 365.020 266.800,365.200 266.260,365.200 265.600 C 365.200 264.940,365.347 264.400,365.528 264.400 C 365.708 264.400,366.100 263.500,366.400 262.400 C 366.700 261.300,367.092 260.400,367.272 260.400 C 367.453 260.400,367.600 259.860,367.600 259.200 C 367.600 258.540,367.780 258.000,368.000 258.000 C 368.220 258.000,368.400 257.460,368.400 256.800 C 368.400 256.140,368.580 255.600,368.800 255.600 C 369.020 255.600,369.200 255.238,369.200 254.795 C 369.200 254.352,369.359 253.677,369.553 253.295 C 370.139 252.142,371.600 247.003,371.600 246.095 C 371.600 245.629,371.764 245.146,371.965 245.022 C 372.276 244.830,372.623 243.448,373.025 240.800 C 373.075 240.470,373.511 238.490,373.994 236.400 C 374.476 234.310,374.964 231.520,375.079 230.200 C 375.193 228.880,375.447 227.629,375.643 227.420 C 375.840 227.211,376.000 225.917,376.000 224.544 C 376.000 223.171,376.174 221.940,376.387 221.808 C 376.930 221.472,376.949 179.340,376.406 179.004 C 376.183 178.866,376.000 177.629,376.000 176.256 C 376.000 174.883,375.840 173.589,375.643 173.380 C 375.447 173.171,375.193 171.920,375.079 170.600 C 374.964 169.280,374.478 166.490,373.999 164.400 C 373.519 162.310,373.054 160.060,372.964 159.400 C 372.790 158.115,371.762 154.391,371.164 152.881 C 370.964 152.376,370.800 151.531,370.800 151.005 C 370.800 150.478,370.620 149.936,370.400 149.800 C 370.180 149.664,370.000 149.034,370.000 148.400 C 370.000 147.766,369.820 147.136,369.600 147.000 C 369.380 146.864,369.200 146.324,369.200 145.800 C 369.200 145.276,369.045 144.751,368.855 144.634 C 368.665 144.517,368.280 143.601,368.000 142.600 C 367.720 141.599,367.335 140.683,367.145 140.566 C 366.955 140.449,366.800 139.823,366.800 139.176 C 366.800 138.529,366.620 138.000,366.400 138.000 C 366.180 138.000,366.000 137.640,366.000 137.200 C 366.000 136.760,365.820 136.400,365.600 136.400 C 365.380 136.400,365.200 135.860,365.200 135.200 C 365.200 134.540,365.065 133.999,364.900 133.997 C 364.494 133.993,363.600 132.014,363.600 131.120 C 363.600 130.724,363.465 130.399,363.300 130.397 C 362.941 130.393,362.000 128.456,362.000 127.720 C 362.000 127.434,361.820 127.200,361.600 127.200 C 361.380 127.200,361.200 126.840,361.200 126.400 C 361.200 125.960,361.020 125.600,360.800 125.600 C 360.580 125.600,360.400 125.240,360.400 124.800 C 360.400 124.360,360.220 124.000,360.000 124.000 C 359.780 124.000,359.600 123.640,359.600 123.200 C 359.600 122.760,359.420 122.400,359.200 122.400 C 358.980 122.400,358.800 122.114,358.800 121.764 C 358.800 121.140,355.290 113.994,354.790 113.600 C 354.650 113.490,354.281 112.815,353.970 112.100 C 353.659 111.385,353.269 110.800,353.102 110.800 C 352.936 110.800,352.800 110.575,352.800 110.300 C 352.799 110.025,352.349 109.277,351.800 108.638 C 351.250 107.999,350.800 107.351,350.800 107.199 C 350.800 107.047,350.444 106.512,350.008 106.010 C 349.573 105.508,349.313 104.940,349.432 104.748 C 349.550 104.557,349.502 104.393,349.324 104.384 C 349.146 104.375,348.370 103.386,347.600 102.187 C 346.830 100.988,346.065 100.005,345.900 100.003 C 345.735 100.001,345.600 99.730,345.600 99.400 C 345.600 99.070,345.420 98.800,345.200 98.800 C 344.980 98.800,344.800 98.530,344.800 98.200 C 344.800 97.870,344.620 97.600,344.400 97.600 C 344.180 97.600,344.000 97.407,344.000 97.171 C 344.000 96.936,343.775 96.515,343.500 96.237 C 343.225 95.959,342.640 95.235,342.200 94.628 C 341.760 94.021,340.815 92.930,340.100 92.202 C 339.385 91.475,338.800 90.672,338.800 90.418 C 338.800 90.164,337.720 88.896,336.400 87.600 C 335.080 86.304,334.000 85.053,334.000 84.818 C 334.000 84.276,318.670 68.927,316.805 67.602 C 316.038 67.057,314.535 65.753,313.465 64.705 C 312.395 63.657,311.339 62.800,311.120 62.800 C 310.901 62.800,310.217 62.260,309.600 61.600 C 308.983 60.940,308.313 60.400,308.109 60.400 C 307.906 60.400,307.317 59.950,306.800 59.400 C 306.283 58.850,305.572 58.400,305.219 58.400 C 304.865 58.400,304.317 58.040,304.000 57.600 C 303.683 57.160,303.193 56.800,302.912 56.800 C 302.630 56.800,302.400 56.620,302.400 56.400 C 302.400 56.180,302.170 56.000,301.888 56.000 C 301.607 56.000,301.117 55.640,300.800 55.200 C 300.483 54.760,299.943 54.400,299.600 54.400 C 299.257 54.400,298.717 54.040,298.400 53.600 C 298.083 53.160,297.586 52.800,297.295 52.800 C 297.004 52.800,296.380 52.440,295.908 52.000 C 295.436 51.560,294.813 51.200,294.525 51.200 C 294.236 51.200,294.000 51.020,294.000 50.800 C 294.000 50.580,293.680 50.400,293.288 50.400 C 292.897 50.400,292.317 50.040,292.000 49.600 C 291.683 49.160,291.103 48.800,290.712 48.800 C 290.320 48.800,290.000 48.620,290.000 48.400 C 290.000 48.180,289.730 48.000,289.400 48.000 C 289.070 48.000,288.800 47.820,288.800 47.600 C 288.800 47.380,288.440 47.200,288.000 47.200 C 287.560 47.200,287.200 47.042,287.200 46.848 C 287.200 46.398,278.383 42.000,277.480 42.000 C 277.106 42.000,276.800 41.820,276.800 41.600 C 276.800 41.380,276.440 41.200,276.000 41.200 C 275.560 41.200,275.200 41.020,275.200 40.800 C 275.200 40.580,274.851 40.400,274.424 40.400 C 273.997 40.400,273.536 40.220,273.400 40.000 C 273.264 39.780,272.803 39.600,272.376 39.600 C 271.949 39.600,271.600 39.420,271.600 39.200 C 271.600 38.980,271.240 38.800,270.800 38.800 C 270.360 38.800,270.000 38.620,270.000 38.400 C 270.000 38.180,269.651 38.000,269.224 38.000 C 268.797 38.000,268.336 37.820,268.200 37.600 C 268.064 37.380,267.513 37.200,266.976 37.200 C 266.439 37.200,266.000 37.020,266.000 36.800 C 266.000 36.580,265.640 36.400,265.200 36.400 C 264.760 36.400,264.400 36.220,264.400 36.000 C 264.400 35.780,263.860 35.600,263.200 35.600 C 262.540 35.600,262.000 35.420,262.000 35.200 C 262.000 34.980,261.550 34.800,261.000 34.800 C 260.450 34.800,260.000 34.620,260.000 34.400 C 260.000 34.180,259.550 34.000,259.000 34.000 C 258.450 34.000,258.000 33.820,258.000 33.600 C 258.000 33.380,257.460 33.200,256.800 33.200 C 256.140 33.200,255.600 33.020,255.600 32.800 C 255.600 32.580,255.208 32.400,254.728 32.400 C 253.843 32.400,253.284 32.246,248.973 30.809 C 247.639 30.364,246.190 30.000,245.753 30.000 C 245.317 30.000,244.744 29.784,244.480 29.520 C 244.216 29.256,244.000 29.147,244.000 29.278 C 244.000 29.409,243.325 29.340,242.500 29.125 C 240.562 28.619,237.426 28.028,235.400 27.787 C 234.520 27.682,233.534 27.497,233.208 27.376 C 232.227 27.009,224.478 25.966,220.000 25.597 C 215.132 25.196,188.122 25.205,183.400 25.609 M222.200 80.852 C 230.059 81.538,235.038 82.045,237.502 82.410 C 243.748 83.338,245.910 83.684,247.400 83.998 C 248.280 84.183,250.080 84.557,251.400 84.827 C 259.476 86.484,273.201 90.586,278.400 92.898 C 283.371 95.108,285.471 96.072,286.185 96.473 C 286.617 96.715,287.967 97.446,289.185 98.097 C 292.722 99.988,292.848 100.067,296.832 102.891 C 304.427 108.275,309.839 114.819,312.490 121.824 C 313.350 124.097,313.392 124.765,313.445 137.200 L 313.500 150.200 314.889 153.200 C 315.653 154.850,316.501 157.100,316.773 158.200 C 317.382 160.667,317.380 182.204,316.770 184.598 C 315.432 189.847,312.107 195.373,307.628 199.789 C 304.702 202.675,304.306 203.437,305.500 203.891 C 305.885 204.038,307.910 205.140,310.000 206.342 C 326.102 215.596,336.140 226.327,339.458 237.832 C 340.606 241.813,340.725 258.524,339.637 262.889 C 334.990 281.524,311.413 299.063,278.200 308.593 C 276.880 308.972,275.350 309.437,274.800 309.626 C 274.250 309.815,271.460 310.523,268.600 311.199 C 265.740 311.875,262.680 312.600,261.800 312.811 C 260.231 313.187,253.647 314.429,249.100 315.207 C 241.811 316.453,242.735 316.333,232.400 317.371 C 208.687 319.753,181.502 319.098,158.600 315.594 C 155.998 315.196,147.687 313.693,146.400 313.388 C 145.850 313.257,144.680 312.992,143.800 312.797 C 131.225 310.018,117.953 305.930,109.206 302.139 C 85.023 291.660,69.749 277.748,66.039 262.824 C 64.545 256.811,64.872 241.864,66.614 236.554 C 69.145 228.840,77.177 218.900,86.100 212.440 L 89.600 209.907 89.600 199.437 C 89.600 186.961,90.781 181.576,94.362 177.733 C 94.756 177.310,95.151 176.760,95.239 176.511 C 95.578 175.559,99.717 171.184,102.143 169.216 L 104.680 167.158 104.928 162.821 C 105.176 158.489,105.175 158.481,103.825 155.707 C 101.621 151.178,101.524 150.544,101.247 138.800 C 100.894 123.882,101.419 121.229,106.114 114.200 C 109.213 109.559,116.913 102.872,123.400 99.187 C 125.691 97.885,134.244 93.600,134.551 93.600 C 134.693 93.600,135.572 93.255,136.504 92.834 C 141.508 90.574,152.333 87.243,161.200 85.235 C 178.603 81.295,205.292 79.377,222.200 80.852 " stroke="none" fill="#3ccbdb" fill-rule="evenodd"></path><path id="path3" d="M192.000 80.861 C 183.560 81.492,174.366 82.676,166.000 84.209 C 157.249 85.812,142.505 90.124,136.504 92.834 C 135.572 93.255,134.693 93.600,134.551 93.600 C 134.244 93.600,125.691 97.885,123.400 99.187 C 114.588 104.193,107.066 111.547,103.455 118.687 C 101.853 121.855,102.215 121.787,103.915 118.600 C 109.531 108.071,120.288 99.902,138.000 92.713 C 138.550 92.489,139.313 92.148,139.695 91.953 C 140.077 91.759,140.741 91.600,141.171 91.600 C 141.601 91.600,142.064 91.420,142.200 91.200 C 142.336 90.980,142.799 90.800,143.229 90.800 C 143.659 90.800,144.323 90.635,144.705 90.434 C 146.646 89.413,160.646 85.727,166.096 84.802 C 167.253 84.606,169.730 84.187,171.600 83.871 C 199.900 79.085,232.125 80.307,259.000 87.185 C 264.881 88.691,269.171 89.947,270.095 90.434 C 270.477 90.635,271.064 90.800,271.400 90.800 C 271.736 90.800,272.323 90.959,272.705 91.153 C 273.087 91.348,273.940 91.729,274.600 92.000 C 275.260 92.271,276.113 92.652,276.495 92.847 C 276.877 93.041,277.377 93.200,277.606 93.200 C 277.835 93.200,279.323 93.809,280.911 94.552 C 282.500 95.296,284.520 96.230,285.400 96.628 C 287.661 97.651,295.623 102.378,296.698 103.336 C 297.193 103.776,297.701 104.032,297.829 103.904 C 297.957 103.776,296.923 102.892,295.531 101.939 C 292.714 100.010,292.342 99.785,289.185 98.097 C 287.967 97.446,286.617 96.715,286.185 96.473 C 285.471 96.072,283.371 95.108,278.400 92.898 C 273.201 90.586,259.476 86.484,251.400 84.827 C 250.080 84.557,248.280 84.183,247.400 83.998 C 245.910 83.684,243.748 83.338,237.502 82.410 C 235.038 82.045,230.059 81.538,222.200 80.852 C 217.086 80.406,198.001 80.411,192.000 80.861 M300.796 106.337 C 302.224 107.692,303.521 108.800,303.679 108.800 C 303.985 108.800,300.867 105.900,299.200 104.633 C 298.650 104.216,299.368 104.982,300.796 106.337 M305.805 111.300 C 306.876 112.565,307.821 113.600,307.904 113.600 C 308.227 113.600,306.405 111.338,305.165 110.200 C 304.325 109.429,304.554 109.823,305.805 111.300 M308.588 115.026 C 308.972 115.701,309.644 116.691,310.082 117.226 C 310.754 118.047,310.737 117.949,309.978 116.600 C 309.482 115.720,308.810 114.730,308.484 114.400 C 308.068 113.979,308.099 114.165,308.588 115.026 M310.846 118.600 C 310.853 118.820,311.206 119.720,311.629 120.600 C 312.052 121.480,312.286 121.750,312.149 121.200 C 311.867 120.067,310.825 117.988,310.846 118.600 M312.468 122.800 C 312.488 123.839,313.118 125.546,313.132 124.600 C 313.138 124.160,312.989 123.440,312.800 123.000 C 312.589 122.510,312.461 122.432,312.468 122.800 M101.109 126.700 C 101.011 127.525,101.065 128.650,101.231 129.200 C 101.444 129.911,101.541 129.476,101.566 127.700 C 101.604 124.906,101.381 124.417,101.109 126.700 M313.186 129.500 C 313.178 131.205,312.922 133.768,312.616 135.195 C 312.236 136.965,312.192 137.872,312.476 138.047 C 312.748 138.215,312.831 140.245,312.714 143.852 C 312.537 149.352,312.270 150.602,310.175 155.766 C 309.994 156.210,310.018 156.436,310.232 156.304 C 310.434 156.178,311.044 154.887,311.588 153.434 C 312.636 150.629,313.075 150.391,313.936 152.160 C 314.231 152.765,314.560 153.174,314.666 153.067 C 314.772 152.961,314.538 152.273,314.145 151.537 C 313.497 150.323,313.443 149.104,313.559 138.300 C 313.630 131.755,313.578 126.400,313.444 126.400 C 313.310 126.400,313.194 127.795,313.186 129.500 M101.321 139.200 L 101.366 147.400 101.600 141.600 C 101.728 138.410,101.871 136.030,101.917 136.311 C 102.114 137.521,104.837 142.708,105.650 143.420 C 106.375 144.056,106.321 143.868,105.355 142.400 C 103.576 139.696,102.435 136.916,101.824 133.800 C 101.290 131.075,101.276 131.219,101.321 139.200 M310.738 140.428 C 310.160 141.513,309.819 142.400,309.981 142.400 C 310.341 142.400,312.195 138.862,311.959 138.626 C 311.866 138.533,311.317 139.344,310.738 140.428 M303.781 149.300 L 302.200 151.000 303.900 149.419 C 305.481 147.948,305.784 147.600,305.481 147.600 C 305.416 147.600,304.651 148.365,303.781 149.300 M101.646 149.000 C 101.579 150.284,102.372 152.722,103.837 155.731 C 104.587 157.272,105.200 158.965,105.200 159.495 C 105.200 160.383,105.250 160.407,105.850 159.807 C 106.450 159.208,106.440 159.090,105.720 158.279 C 104.725 157.157,102.819 152.811,102.181 150.209 C 101.910 149.104,101.670 148.560,101.646 149.000 M315.606 155.876 C 315.603 156.358,315.780 156.864,316.000 157.000 C 316.509 157.315,316.509 156.388,316.000 155.600 C 315.685 155.112,315.611 155.164,315.606 155.876 M316.468 158.200 C 316.462 158.640,316.611 159.360,316.800 159.800 C 317.238 160.819,317.238 159.768,316.800 158.400 C 316.543 157.596,316.477 157.557,316.468 158.200 M308.289 158.805 C 307.910 159.247,307.600 159.760,307.600 159.944 C 307.600 160.978,294.935 172.400,293.789 172.400 C 293.394 172.400,290.385 174.518,290.548 174.682 C 291.641 175.775,306.212 163.269,308.523 159.255 C 309.355 157.809,309.274 157.654,308.289 158.805 M107.130 161.100 C 107.561 161.705,108.327 162.560,108.832 163.000 L 109.751 163.800 108.882 162.600 C 107.390 160.541,106.921 160.000,106.629 160.000 C 106.473 160.000,106.698 160.495,107.130 161.100 M104.865 164.030 L 104.800 167.060 102.203 169.167 C 99.627 171.257,95.516 175.626,95.274 176.529 C 95.205 176.788,95.528 176.550,95.992 176.000 C 98.118 173.478,102.075 169.708,103.547 168.800 C 105.533 167.576,105.498 167.677,105.185 164.000 L 104.929 161.000 104.865 164.030 M113.562 167.589 C 115.791 169.727,121.530 173.772,124.000 174.946 C 124.770 175.312,125.054 175.384,124.632 175.106 C 124.209 174.828,122.036 173.396,119.802 171.924 C 117.568 170.452,114.763 168.408,113.570 167.381 L 111.400 165.515 113.562 167.589 M316.700 168.600 C 316.358 170.872,315.018 174.486,313.932 176.062 C 313.094 177.277,312.957 177.913,313.702 177.129 C 314.161 176.646,315.616 173.855,316.167 172.400 C 316.292 172.070,316.321 174.770,316.230 178.400 C 316.113 183.121,315.884 185.491,315.427 186.724 C 314.684 188.728,312.420 193.308,312.029 193.600 C 311.882 193.710,311.339 194.430,310.822 195.200 C 310.306 195.970,308.548 197.913,306.916 199.517 C 304.096 202.288,303.486 203.496,304.700 203.900 C 305.023 204.008,305.111 203.835,304.950 203.413 C 304.773 202.952,305.645 201.787,307.895 199.479 C 315.543 191.634,317.293 186.914,317.115 174.600 C 317.036 169.128,316.905 167.232,316.700 168.600 M105.015 172.700 C 104.751 175.738,105.037 183.170,105.432 183.565 C 105.542 183.675,105.519 181.737,105.382 179.257 C 105.145 174.992,105.484 169.902,105.918 171.200 C 106.449 172.788,108.081 176.053,108.256 175.877 C 108.365 175.769,108.017 174.807,107.484 173.740 C 106.951 172.673,106.395 171.305,106.250 170.700 C 105.778 168.739,105.289 169.530,105.015 172.700 M28.578 172.435 C 28.431 172.674,28.510 173.070,28.755 173.315 C 29.082 173.642,29.200 173.526,29.200 172.880 C 29.200 171.914,28.992 171.765,28.578 172.435 M288.400 175.600 C 287.850 176.030,287.175 176.386,286.900 176.391 C 286.625 176.396,286.400 176.585,286.400 176.810 C 286.400 177.050,286.858 176.979,287.500 176.641 C 288.990 175.855,290.291 174.826,289.800 174.822 C 289.580 174.820,288.950 175.170,288.400 175.600 M125.600 175.762 C 125.600 175.998,130.549 178.572,132.239 179.215 C 134.719 180.158,131.110 178.143,125.900 175.675 C 125.735 175.597,125.600 175.636,125.600 175.762 M184.900 176.676 C 185.285 176.776,185.915 176.776,186.300 176.676 C 186.685 176.575,186.370 176.493,185.600 176.493 C 184.830 176.493,184.515 176.575,184.900 176.676 M27.969 176.820 C 27.953 176.919,27.879 177.314,27.805 177.698 C 27.731 178.083,27.836 178.499,28.038 178.624 C 28.600 178.971,28.969 177.609,28.453 177.093 C 28.204 176.844,27.986 176.721,27.969 176.820 M94.059 178.055 C 92.847 179.995,91.970 181.704,92.113 181.846 C 92.197 181.930,92.512 181.504,92.812 180.899 C 93.113 180.295,93.783 179.215,94.300 178.500 C 94.817 177.785,95.095 177.200,94.917 177.200 C 94.738 177.200,94.352 177.585,94.059 178.055 M196.300 177.489 C 197.015 177.578,198.185 177.578,198.900 177.489 C 199.615 177.401,199.030 177.328,197.600 177.328 C 196.170 177.328,195.585 177.401,196.300 177.489 M284.000 177.896 C 283.230 178.251,282.060 178.793,281.400 179.100 C 280.325 179.600,275.614 181.468,271.464 183.040 C 267.129 184.682,250.265 189.114,247.846 189.246 C 247.158 189.284,247.132 189.327,247.708 189.477 C 250.814 190.286,278.855 181.500,285.487 177.639 C 286.589 176.998,285.566 177.175,284.000 177.896 M140.000 182.331 C 142.682 184.082,167.101 190.503,170.555 190.366 C 171.020 190.348,168.517 189.739,164.992 189.013 C 157.467 187.464,150.688 185.694,145.050 183.807 C 139.139 181.829,139.306 181.878,140.000 182.331 M91.179 183.455 C 90.958 184.036,90.852 184.585,90.943 184.676 C 91.033 184.767,91.299 184.292,91.533 183.620 C 92.053 182.128,91.739 181.982,91.179 183.455 M114.400 183.800 C 115.146 184.570,115.847 185.200,115.957 185.200 C 116.067 185.200,115.546 184.570,114.800 183.800 C 114.054 183.030,113.353 182.400,113.243 182.400 C 113.133 182.400,113.654 183.030,114.400 183.800 M214.144 186.000 C 214.144 188.090,214.212 188.945,214.294 187.900 C 214.376 186.855,214.376 185.145,214.294 184.100 C 214.212 183.055,214.144 183.910,214.144 186.000 M27.084 183.326 C 26.942 183.696,26.982 184.404,27.173 184.900 C 27.488 185.718,27.546 185.734,27.811 185.078 C 27.971 184.681,27.931 183.972,27.722 183.504 C 27.390 182.758,27.310 182.736,27.084 183.326 M105.628 185.076 C 105.718 186.115,106.344 186.996,106.372 186.124 C 106.387 185.642,106.220 185.136,106.000 185.000 C 105.780 184.864,105.613 184.898,105.628 185.076 M90.200 186.400 C 90.048 187.091,90.007 187.741,90.109 187.842 C 90.211 187.944,90.409 187.453,90.550 186.750 C 90.883 185.083,90.560 184.760,90.200 186.400 M106.832 188.316 C 106.796 188.891,108.302 192.000,108.616 192.000 C 108.726 192.000,108.478 191.325,108.064 190.500 C 107.650 189.675,107.210 188.730,107.087 188.400 C 106.939 188.004,106.852 187.975,106.832 188.316 M89.709 190.000 C 89.709 190.990,89.787 191.395,89.882 190.900 C 89.978 190.405,89.978 189.595,89.882 189.100 C 89.787 188.605,89.709 189.010,89.709 190.000 M224.310 189.851 C 225.330 191.309,227.438 192.420,229.060 192.354 C 229.846 192.322,229.952 192.255,229.400 192.138 C 228.960 192.045,228.190 191.881,227.690 191.774 C 227.189 191.667,226.027 190.909,225.107 190.090 C 223.464 188.626,223.450 188.622,224.310 189.851 M27.033 189.857 C 26.895 190.219,26.863 190.597,26.964 190.697 C 27.282 191.015,28.000 190.377,28.000 189.776 C 28.000 188.992,27.344 189.047,27.033 189.857 M240.800 190.396 C 238.710 190.779,235.830 191.287,234.400 191.524 L 231.800 191.955 234.200 191.767 C 236.933 191.554,246.498 190.035,246.760 189.773 C 247.092 189.441,244.572 189.704,240.800 190.396 M213.200 190.429 C 213.200 192.446,210.669 192.975,201.200 192.935 L 192.600 192.899 199.800 193.266 C 209.404 193.755,212.306 193.218,213.651 190.704 C 213.898 190.243,213.885 190.000,213.614 190.000 C 213.386 190.000,213.200 190.193,213.200 190.429 M172.600 190.800 C 173.260 190.968,174.340 191.105,175.000 191.105 L 176.200 191.105 175.000 190.800 C 174.340 190.632,173.260 190.495,172.600 190.495 L 171.400 190.495 172.600 190.800 M176.800 191.402 C 177.956 191.738,188.921 192.800,190.752 192.753 C 191.768 192.727,190.350 192.476,187.600 192.196 C 181.468 191.570,175.991 191.167,176.800 191.402 M89.660 201.253 L 89.600 209.907 86.300 212.309 C 82.549 215.040,76.891 220.225,74.348 223.262 C 73.403 224.390,74.971 222.993,77.831 220.157 C 80.690 217.320,84.592 213.920,86.500 212.600 L 89.971 210.200 90.017 204.400 C 90.042 201.210,90.152 198.870,90.261 199.200 C 90.923 201.211,92.301 204.095,93.222 205.400 C 94.279 206.897,94.164 206.553,92.350 202.800 C 91.050 200.109,90.279 197.319,89.862 193.800 C 89.784 193.140,89.693 196.494,89.660 201.253 M111.470 196.236 C 116.467 202.545,126.381 209.558,137.000 214.294 C 141.052 216.101,146.810 218.233,146.200 217.700 C 145.980 217.508,144.180 216.758,142.200 216.033 C 131.703 212.192,121.428 205.865,114.605 199.040 C 112.187 196.623,110.777 195.361,111.470 196.236 M307.200 204.979 C 307.200 205.089,307.740 205.459,308.400 205.800 C 309.060 206.141,309.600 206.331,309.600 206.221 C 309.600 206.111,309.060 205.741,308.400 205.400 C 307.740 205.059,307.200 204.869,307.200 204.979 M310.000 206.543 C 310.000 206.648,311.395 207.557,313.100 208.565 C 314.805 209.573,315.710 209.993,315.111 209.499 C 313.903 208.502,310.000 206.245,310.000 206.543 M301.200 209.872 C 301.200 210.681,301.035 211.896,300.833 212.572 C 299.639 216.569,299.273 218.085,299.579 217.764 C 300.160 217.153,301.600 211.806,301.600 210.257 C 301.600 208.715,301.887 208.486,302.801 209.300 C 303.278 209.725,303.282 209.696,302.832 209.100 C 301.927 207.905,301.200 208.249,301.200 209.872 M293.500 209.515 C 292.675 209.885,292.000 210.347,292.000 210.540 C 292.000 210.734,292.455 210.594,293.011 210.229 C 293.568 209.865,294.179 209.663,294.369 209.781 C 294.560 209.899,294.819 209.726,294.946 209.398 C 295.072 209.069,295.136 208.809,295.087 208.821 C 295.039 208.832,294.325 209.144,293.500 209.515 M26.806 210.300 C 26.809 210.465,26.980 210.865,27.184 211.188 C 27.645 211.917,28.186 211.461,27.862 210.617 C 27.623 209.994,26.795 209.745,26.806 210.300 M316.400 210.499 C 316.400 210.580,317.615 211.527,319.100 212.604 C 329.385 220.065,335.578 227.651,338.582 236.471 C 339.131 238.082,339.584 239.089,339.590 238.709 C 339.646 234.908,333.540 224.965,327.642 219.254 C 324.416 216.130,316.400 209.887,316.400 210.499 M289.870 211.479 C 289.248 211.805,288.826 212.160,288.933 212.266 C 289.142 212.476,291.600 211.300,291.600 210.990 C 291.600 210.692,291.094 210.835,289.870 211.479 M195.100 211.882 C 195.595 211.978,196.405 211.978,196.900 211.882 C 197.395 211.787,196.990 211.709,196.000 211.709 C 195.010 211.709,194.605 211.787,195.100 211.882 M203.907 212.290 C 204.626 212.379,205.706 212.377,206.307 212.286 C 206.908 212.195,206.320 212.122,205.000 212.124 C 203.680 212.126,203.188 212.201,203.907 212.290 M225.753 217.000 C 225.753 219.640,225.818 220.668,225.897 219.284 C 225.975 217.901,225.974 215.741,225.895 214.484 C 225.816 213.228,225.752 214.360,225.753 217.000 M216.540 216.000 C 216.540 217.870,216.609 218.635,216.693 217.700 C 216.777 216.765,216.777 215.235,216.693 214.300 C 216.609 213.365,216.540 214.130,216.540 216.000 M284.670 213.879 C 284.048 214.205,283.626 214.559,283.732 214.665 C 283.838 214.771,284.616 214.493,285.462 214.047 C 286.308 213.600,286.730 213.246,286.400 213.260 C 286.070 213.274,285.291 213.552,284.670 213.879 M273.200 218.400 C 272.667 218.745,272.667 218.788,273.200 218.788 C 273.530 218.788,274.070 218.613,274.400 218.400 C 274.933 218.055,274.933 218.012,274.400 218.012 C 274.070 218.012,273.530 218.187,273.200 218.400 M308.434 220.200 C 308.422 220.640,308.587 221.270,308.800 221.600 C 309.314 222.395,309.314 221.396,308.800 220.200 L 308.456 219.400 308.434 220.200 M266.800 220.418 C 266.362 220.715,266.524 220.752,267.400 220.556 C 268.871 220.227,269.190 219.998,268.167 220.006 C 267.745 220.009,267.130 220.195,266.800 220.418 M155.400 220.800 C 155.840 220.989,156.470 221.144,156.800 221.144 C 157.178 221.144,157.104 221.017,156.600 220.800 C 156.160 220.611,155.530 220.456,155.200 220.456 C 154.822 220.456,154.896 220.583,155.400 220.800 M263.000 221.274 C 260.322 222.143,259.405 222.362,253.954 223.437 C 250.829 224.053,248.483 224.628,248.741 224.714 C 249.244 224.881,257.984 223.125,261.600 222.130 C 262.810 221.797,264.340 221.380,265.000 221.203 C 266.079 220.914,266.099 220.882,265.200 220.883 C 264.650 220.884,263.660 221.060,263.000 221.274 M158.200 221.600 C 158.640 221.789,159.360 221.938,159.800 221.932 C 160.443 221.923,160.404 221.857,159.600 221.600 C 158.232 221.162,157.181 221.162,158.200 221.600 M296.469 222.439 C 295.710 223.654,296.166 223.816,296.955 222.612 C 297.320 222.056,297.478 221.600,297.305 221.600 C 297.133 221.600,296.757 221.978,296.469 222.439 M161.400 222.400 C 161.840 222.589,162.560 222.738,163.000 222.732 C 163.643 222.723,163.604 222.657,162.800 222.400 C 161.432 221.962,160.381 221.962,161.400 222.400 M164.475 223.008 C 164.744 223.277,173.587 225.043,176.200 225.350 C 177.555 225.509,177.942 225.467,177.400 225.220 C 176.960 225.020,176.114 224.844,175.520 224.828 C 174.927 224.813,172.227 224.350,169.521 223.800 C 164.115 222.701,164.178 222.711,164.475 223.008 M309.346 227.000 C 309.347 229.200,309.414 230.049,309.495 228.887 C 309.576 227.724,309.576 225.924,309.493 224.887 C 309.411 223.849,309.345 224.800,309.346 227.000 M227.776 224.178 C 228.204 224.520,228.834 224.786,229.176 224.768 C 229.715 224.741,229.718 224.707,229.200 224.514 C 228.870 224.392,228.240 224.126,227.800 223.924 C 227.013 223.562,227.012 223.566,227.776 224.178 M206.972 226.145 L 205.400 227.490 199.600 227.381 L 193.800 227.273 199.690 227.677 L 205.580 228.082 206.816 226.846 C 207.496 226.166,208.625 225.443,209.326 225.241 C 210.504 224.900,210.523 224.869,209.572 224.836 C 208.946 224.814,207.930 225.326,206.972 226.145 M231.852 225.376 C 232.541 225.676,233.226 226.119,233.376 226.360 C 233.525 226.602,234.492 226.770,235.524 226.733 C 237.382 226.666,237.385 226.664,235.821 226.504 C 234.953 226.415,233.755 225.995,233.159 225.571 C 232.564 225.147,231.744 224.807,231.338 224.816 C 230.855 224.826,231.033 225.020,231.852 225.376 M244.400 225.200 L 243.400 225.520 244.400 225.513 C 244.950 225.509,245.940 225.368,246.600 225.200 L 247.800 224.895 246.600 224.887 C 245.940 224.883,244.950 225.024,244.400 225.200 M179.233 225.750 C 179.325 225.832,180.480 226.004,181.800 226.131 C 183.355 226.280,183.848 226.242,183.200 226.021 C 182.214 225.684,178.910 225.459,179.233 225.750 M238.400 226.009 C 237.989 226.280,238.557 226.324,240.200 226.147 C 241.520 226.005,242.675 225.824,242.767 225.744 C 243.168 225.396,238.939 225.652,238.400 226.009 M185.233 226.549 C 185.325 226.630,186.930 226.801,188.800 226.927 C 190.865 227.067,191.807 227.024,191.200 226.818 C 190.231 226.490,184.898 226.249,185.233 226.549 M97.602 229.100 C 97.606 232.778,99.720 238.539,101.697 240.257 L 102.551 241.000 101.745 239.800 C 99.646 236.676,98.273 233.012,98.078 230.013 L 97.884 227.026 101.042 229.946 C 102.779 231.552,104.560 233.053,105.000 233.282 C 105.440 233.511,104.994 233.001,104.009 232.149 C 103.024 231.297,101.341 229.745,100.269 228.700 C 97.789 226.284,97.600 226.312,97.602 229.100 M290.880 228.856 C 288.025 231.602,288.432 231.712,291.417 229.002 C 292.727 227.811,293.620 226.832,293.400 226.827 C 293.180 226.822,292.046 227.735,290.880 228.856 M69.414 230.235 C 69.041 230.804,68.805 231.338,68.889 231.422 C 68.973 231.507,69.358 231.041,69.744 230.388 C 70.606 228.928,70.348 228.809,69.414 230.235 M286.791 232.332 C 284.900 233.871,278.635 237.998,278.173 238.009 C 277.734 238.019,275.670 239.578,276.077 239.591 C 276.862 239.616,286.638 233.284,287.806 231.993 C 288.819 230.875,288.418 231.008,286.791 232.332 M67.839 233.487 C 64.046 241.441,64.041 259.663,67.830 268.230 C 69.750 272.571,76.348 281.957,76.711 280.866 C 76.779 280.662,76.332 279.973,75.717 279.333 C 72.198 275.670,68.138 268.865,67.148 264.970 C 65.977 260.359,65.580 258.021,65.693 256.400 C 65.815 254.669,65.833 254.646,66.161 255.800 C 66.349 256.460,67.208 258.415,68.069 260.145 C 69.786 263.595,70.785 266.217,70.794 267.300 C 70.797 267.685,70.959 268.000,71.153 268.000 C 71.348 268.000,71.607 268.315,71.729 268.700 C 72.017 269.609,73.212 271.553,74.100 272.558 C 74.485 272.994,74.800 273.491,74.800 273.662 C 74.800 275.356,87.248 286.771,91.988 289.423 C 92.751 289.850,93.730 290.515,94.163 290.900 C 94.597 291.285,95.172 291.600,95.442 291.600 C 95.712 291.600,95.993 291.735,96.067 291.900 C 96.510 292.896,114.123 301.200,115.794 301.200 C 116.101 301.200,116.455 301.366,116.581 301.569 C 116.847 302.000,125.996 304.956,132.200 306.616 C 133.520 306.969,135.500 307.528,136.600 307.858 C 137.700 308.188,139.545 308.560,140.700 308.685 C 141.855 308.810,142.800 309.067,142.800 309.256 C 142.800 309.445,143.700 309.600,144.800 309.600 C 145.900 309.600,146.800 309.780,146.800 310.000 C 146.800 310.220,147.599 310.400,148.576 310.400 C 149.553 310.400,150.464 310.580,150.600 310.800 C 150.736 311.020,151.737 311.200,152.824 311.200 C 153.911 311.200,154.800 311.380,154.800 311.600 C 154.800 311.822,155.867 312.000,157.200 312.000 C 158.533 312.000,159.600 312.178,159.600 312.400 C 159.600 312.625,160.725 312.800,162.176 312.800 C 163.593 312.800,164.864 312.980,165.000 313.200 C 165.136 313.420,166.677 313.600,168.424 313.600 C 170.171 313.600,171.600 313.768,171.600 313.974 C 171.600 314.374,176.179 314.692,186.782 315.030 C 190.403 315.145,193.553 315.389,193.782 315.573 C 194.304 315.992,207.652 315.797,218.000 315.220 C 222.290 314.981,227.600 314.687,229.800 314.567 C 232.000 314.447,233.971 314.180,234.180 313.974 C 234.389 313.768,235.863 313.600,237.456 313.600 C 239.049 313.600,240.464 313.420,240.600 313.200 C 240.736 312.980,241.996 312.800,243.400 312.800 C 244.804 312.800,246.064 312.620,246.200 312.400 C 246.336 312.180,247.326 312.000,248.400 312.000 C 249.474 312.000,250.464 311.820,250.600 311.600 C 250.736 311.380,251.827 311.200,253.024 311.200 C 254.221 311.200,255.200 311.020,255.200 310.800 C 255.200 310.580,256.089 310.400,257.176 310.400 C 258.263 310.400,259.264 310.220,259.400 310.000 C 259.536 309.780,260.357 309.600,261.224 309.600 C 262.091 309.600,262.800 309.438,262.800 309.240 C 262.800 309.042,263.565 308.789,264.500 308.676 C 265.435 308.564,266.920 308.297,267.800 308.083 C 273.739 306.640,276.705 305.873,277.400 305.598 C 277.840 305.424,279.550 304.891,281.200 304.415 C 282.850 303.939,284.560 303.389,285.000 303.195 C 285.440 303.000,286.610 302.571,287.600 302.242 C 293.567 300.258,308.114 293.486,309.600 292.000 C 309.784 291.816,310.470 291.412,312.590 290.238 C 317.230 287.667,325.939 280.169,329.125 276.000 C 329.714 275.230,330.303 274.510,330.434 274.400 C 331.073 273.864,334.036 268.490,335.011 266.100 C 335.616 264.615,336.807 261.933,337.656 260.139 C 338.505 258.346,339.200 256.691,339.200 256.463 C 339.200 256.234,339.397 255.926,339.637 255.777 C 340.479 255.257,339.561 261.357,338.055 266.290 C 336.155 272.517,329.436 281.100,322.000 286.800 C 321.010 287.558,320.110 288.289,320.000 288.423 C 319.583 288.932,312.413 293.600,312.049 293.600 C 311.839 293.600,311.607 293.750,311.533 293.933 C 311.389 294.293,299.760 300.134,296.800 301.333 C 295.810 301.734,294.595 302.228,294.100 302.431 C 293.605 302.634,292.705 303.001,292.100 303.247 C 291.495 303.492,290.687 303.852,290.305 304.047 C 289.923 304.241,289.248 304.400,288.805 304.400 C 288.362 304.400,288.000 304.580,288.000 304.800 C 288.000 305.020,287.561 305.200,287.024 305.200 C 286.487 305.200,285.936 305.380,285.800 305.600 C 285.664 305.820,285.124 306.000,284.600 306.000 C 284.076 306.000,283.536 306.180,283.400 306.400 C 283.264 306.620,282.801 306.800,282.371 306.800 C 281.941 306.800,281.277 306.965,280.895 307.167 C 280.513 307.368,279.155 307.838,277.878 308.211 C 276.600 308.584,275.651 308.985,275.769 309.102 C 276.583 309.917,294.815 303.124,303.800 298.658 C 329.484 285.891,340.315 272.338,340.290 253.000 C 340.282 246.947,340.227 246.277,339.942 248.792 C 337.561 269.827,311.907 289.617,274.000 299.660 C 272.350 300.098,270.370 300.622,269.600 300.825 C 247.868 306.563,206.838 310.161,185.400 308.207 C 184.080 308.087,180.930 307.820,178.400 307.614 C 163.524 306.403,145.753 303.462,134.800 300.400 C 133.150 299.938,130.540 299.231,129.000 298.829 C 127.460 298.427,125.120 297.705,123.800 297.224 C 122.480 296.744,120.230 295.983,118.800 295.534 C 117.370 295.085,115.480 294.403,114.600 294.020 C 113.720 293.636,111.110 292.538,108.800 291.579 C 75.063 277.580,58.048 253.232,68.235 233.532 C 68.578 232.868,68.788 232.255,68.701 232.168 C 68.614 232.081,68.227 232.675,67.839 233.487 M307.919 235.062 C 307.544 236.112,307.309 237.042,307.395 237.129 C 307.650 237.383,308.838 234.289,308.714 233.695 C 308.651 233.397,308.293 234.012,307.919 235.062 M96.637 235.671 C 94.328 241.287,95.030 249.419,98.400 256.090 C 109.576 278.217,148.994 294.254,195.398 295.554 L 204.196 295.800 204.887 297.269 C 205.267 298.078,205.742 298.841,205.943 298.965 C 206.145 299.089,205.970 298.525,205.555 297.711 C 205.140 296.897,204.800 296.007,204.800 295.733 C 204.800 295.360,202.955 295.184,197.500 295.037 C 193.485 294.928,188.040 294.651,185.400 294.422 C 182.760 294.192,179.070 293.900,177.200 293.773 C 175.330 293.646,173.629 293.375,173.420 293.171 C 173.211 292.967,172.007 292.800,170.744 292.800 C 169.481 292.800,168.336 292.620,168.200 292.400 C 168.064 292.180,167.074 292.000,166.000 292.000 C 164.926 292.000,163.936 291.820,163.800 291.600 C 163.664 291.380,162.764 291.200,161.800 291.200 C 160.836 291.200,159.936 291.020,159.800 290.800 C 159.664 290.580,158.843 290.400,157.976 290.400 C 157.109 290.400,156.400 290.220,156.400 290.000 C 156.400 289.780,155.680 289.600,154.800 289.600 C 153.920 289.600,153.200 289.420,153.200 289.200 C 153.200 288.980,152.480 288.800,151.600 288.800 C 150.720 288.800,150.000 288.620,150.000 288.400 C 150.000 288.180,149.471 288.000,148.824 288.000 C 148.177 288.000,147.536 287.820,147.400 287.600 C 147.264 287.380,146.634 287.200,146.000 287.200 C 145.366 287.200,144.736 287.020,144.600 286.800 C 144.464 286.580,143.924 286.400,143.400 286.400 C 142.876 286.400,142.336 286.220,142.200 286.000 C 142.064 285.780,141.601 285.600,141.171 285.600 C 140.741 285.600,140.077 285.431,139.695 285.225 C 139.313 285.019,137.650 284.368,136.000 283.778 C 134.350 283.188,132.640 282.561,132.200 282.385 C 130.750 281.804,121.004 277.047,120.800 276.821 C 120.690 276.699,120.105 276.344,119.500 276.032 C 118.895 275.720,118.400 275.315,118.400 275.132 C 118.400 274.950,118.207 274.800,117.972 274.800 C 117.577 274.800,114.625 272.900,113.209 271.735 C 112.874 271.459,111.880 270.678,111.000 269.998 C 108.559 268.114,104.155 263.671,102.911 261.837 C 102.300 260.937,101.485 259.851,101.100 259.425 C 100.715 258.998,100.400 258.413,100.400 258.125 C 100.400 257.836,100.220 257.600,100.000 257.600 C 99.780 257.600,99.600 257.240,99.600 256.800 C 99.600 256.360,99.420 256.000,99.200 256.000 C 98.980 256.000,98.800 255.640,98.800 255.200 C 98.800 254.760,98.620 254.400,98.400 254.400 C 98.180 254.400,98.000 253.986,98.000 253.480 C 98.000 252.974,97.845 252.389,97.656 252.180 C 97.185 251.658,96.391 247.384,96.441 245.633 L 96.482 244.200 96.804 245.400 C 96.982 246.060,97.348 247.590,97.618 248.800 C 97.889 250.010,98.414 251.450,98.785 252.000 C 99.156 252.550,99.694 253.585,99.979 254.300 C 100.264 255.015,100.643 255.600,100.822 255.600 C 101.000 255.600,101.254 255.939,101.385 256.352 C 101.516 256.766,101.933 257.476,102.312 257.929 C 102.690 258.381,103.630 259.507,104.400 260.429 C 106.584 263.044,106.917 263.380,108.245 264.307 C 108.929 264.785,110.092 265.739,110.829 266.427 C 112.266 267.769,119.336 272.800,119.785 272.800 C 119.934 272.800,120.841 273.340,121.800 274.000 C 122.759 274.660,123.827 275.200,124.172 275.200 C 124.517 275.200,124.800 275.359,124.800 275.553 C 124.800 275.748,125.115 276.007,125.500 276.129 C 125.885 276.251,126.650 276.617,127.200 276.944 C 128.356 277.629,134.288 280.400,134.600 280.400 C 134.715 280.400,135.572 280.754,136.504 281.187 C 140.839 283.198,152.936 286.830,160.600 288.420 C 161.700 288.648,163.410 289.008,164.400 289.219 C 168.307 290.053,175.578 291.093,181.000 291.593 C 187.536 292.195,201.706 292.860,202.699 292.611 C 203.527 292.403,203.599 292.492,203.408 293.490 C 203.291 294.100,203.307 294.330,203.443 294.000 C 203.850 293.013,208.428 288.796,209.761 288.180 C 210.707 287.743,210.764 287.667,210.000 287.858 C 209.450 287.995,208.245 288.647,207.322 289.306 L 205.644 290.504 198.722 290.220 C 187.670 289.767,180.796 289.310,177.400 288.805 C 176.080 288.608,173.560 288.246,171.800 288.000 C 164.251 286.944,161.619 286.444,154.800 284.773 C 152.930 284.315,150.680 283.787,149.800 283.600 C 148.920 283.413,147.390 282.994,146.400 282.668 C 145.410 282.342,143.520 281.773,142.200 281.403 C 126.121 276.891,109.477 266.373,102.721 256.456 C 98.864 250.793,98.011 247.875,98.005 240.324 C 98.000 234.613,97.613 233.297,96.637 235.671 M106.800 234.497 C 106.800 235.147,119.431 242.303,119.845 241.888 C 119.954 241.779,118.638 241.005,116.921 240.168 C 114.012 238.748,110.486 236.742,107.900 235.034 C 107.295 234.635,106.800 234.393,106.800 234.497 M306.569 238.073 C 306.398 238.363,305.999 239.005,305.683 239.500 C 305.367 239.995,305.206 240.400,305.327 240.400 C 305.691 240.400,307.303 237.969,307.084 237.750 C 306.972 237.638,306.740 237.784,306.569 238.073 M229.731 241.800 C 229.733 243.340,229.805 243.921,229.892 243.091 C 229.979 242.261,229.977 241.001,229.889 240.291 C 229.800 239.581,229.729 240.260,229.731 241.800 M173.300 239.876 C 173.685 239.976,174.315 239.976,174.700 239.876 C 175.085 239.775,174.770 239.693,174.000 239.693 C 173.230 239.693,172.915 239.775,173.300 239.876 M183.507 240.690 C 184.226 240.779,185.306 240.777,185.907 240.686 C 186.508 240.595,185.920 240.522,184.600 240.524 C 183.280 240.526,182.788 240.601,183.507 240.690 M206.700 240.682 C 207.195 240.778,208.005 240.778,208.500 240.682 C 208.995 240.587,208.590 240.509,207.600 240.509 C 206.610 240.509,206.205 240.587,206.700 240.682 M272.500 240.944 C 272.005 241.189,271.600 241.532,271.600 241.705 C 271.600 241.879,272.140 241.741,272.800 241.400 C 273.460 241.059,274.000 240.694,274.000 240.590 C 274.000 240.321,273.539 240.430,272.500 240.944 M340.109 243.200 C 340.109 244.190,340.187 244.595,340.282 244.100 C 340.378 243.605,340.378 242.795,340.282 242.300 C 340.187 241.805,340.109 242.210,340.109 243.200 M123.558 243.637 C 124.525 244.066,125.388 244.345,125.475 244.258 C 125.648 244.086,122.565 242.782,122.092 242.828 C 121.931 242.844,122.591 243.208,123.558 243.637 M264.853 244.253 C 264.113 244.576,263.592 244.925,263.695 245.028 C 263.799 245.132,264.675 244.866,265.642 244.437 C 266.609 244.008,267.130 243.658,266.800 243.661 C 266.470 243.663,265.594 243.930,264.853 244.253 M261.600 245.600 C 261.067 245.945,261.067 245.988,261.600 245.988 C 261.930 245.988,262.470 245.813,262.800 245.600 C 263.333 245.255,263.333 245.212,262.800 245.212 C 262.470 245.212,261.930 245.387,261.600 245.600 M308.732 245.600 C 308.600 245.930,308.282 247.010,308.026 248.000 C 305.575 257.488,296.281 266.680,281.651 274.087 C 278.269 275.799,275.295 277.200,275.041 277.200 C 274.787 277.200,273.504 277.734,272.190 278.387 C 270.875 279.041,269.521 279.581,269.180 279.587 C 268.839 279.594,268.389 279.748,268.180 279.928 C 267.971 280.108,266.450 280.672,264.800 281.180 C 260.296 282.568,259.460 282.986,260.109 283.524 C 260.599 283.931,265.248 282.673,268.600 281.227 C 269.040 281.037,270.120 280.574,271.000 280.197 C 271.880 279.821,273.123 279.262,273.761 278.956 C 274.400 278.650,275.100 278.400,275.317 278.400 C 275.742 278.400,285.669 273.588,286.000 273.221 C 286.110 273.100,287.010 272.561,288.000 272.025 C 291.116 270.337,296.176 266.670,298.000 264.779 C 298.550 264.208,299.495 263.419,300.100 263.025 C 300.705 262.631,301.200 262.074,301.200 261.787 C 301.200 261.501,301.335 261.207,301.500 261.133 C 301.665 261.060,302.385 260.319,303.100 259.486 C 303.878 258.580,304.400 258.219,304.400 258.586 C 304.400 258.924,304.250 259.200,304.068 259.200 C 303.885 259.200,303.480 259.693,303.168 260.295 C 302.637 261.320,299.423 264.937,296.533 267.762 C 295.001 269.260,292.777 271.059,290.837 272.372 C 290.047 272.906,289.340 273.491,289.267 273.672 C 289.193 273.852,288.878 274.000,288.567 274.000 C 288.255 274.000,288.000 274.180,288.000 274.400 C 288.000 274.620,287.730 274.800,287.400 274.800 C 287.070 274.800,286.800 274.946,286.800 275.125 C 286.800 275.304,286.170 275.698,285.400 276.000 C 284.630 276.302,284.000 276.662,284.000 276.800 C 284.000 276.938,283.370 277.298,282.600 277.600 C 281.830 277.902,281.200 278.296,281.200 278.475 C 281.200 278.654,280.977 278.800,280.704 278.800 C 280.430 278.800,278.945 279.414,277.404 280.165 C 273.700 281.967,271.350 282.985,269.400 283.632 C 268.520 283.924,267.629 284.307,267.420 284.482 C 267.211 284.657,266.637 284.800,266.144 284.800 C 265.651 284.800,265.136 284.980,265.000 285.200 C 264.864 285.420,264.431 285.600,264.038 285.600 C 263.150 285.600,260.800 286.745,260.800 287.178 C 260.800 287.354,262.915 286.737,265.500 285.808 C 289.517 277.176,305.344 264.227,308.800 250.381 C 309.251 248.574,309.193 244.454,308.732 245.600 M259.200 246.369 C 258.344 246.861,249.722 249.373,244.849 250.550 C 241.201 251.431,239.525 252.006,240.633 251.997 C 240.977 251.994,249.152 249.949,251.800 249.204 C 257.425 247.621,261.603 246.086,260.400 246.045 C 260.070 246.034,259.530 246.180,259.200 246.369 M136.837 248.415 C 139.754 249.403,147.756 251.461,149.800 251.749 C 152.241 252.092,150.179 251.448,145.000 250.250 C 142.580 249.690,139.452 248.865,138.048 248.416 C 136.644 247.967,135.294 247.613,135.048 247.629 C 134.802 247.644,135.607 247.998,136.837 248.415 M230.400 250.273 C 230.400 251.464,232.726 253.200,234.260 253.154 L 235.800 253.108 234.214 252.803 C 233.132 252.595,232.273 252.074,231.514 251.164 C 230.901 250.430,230.400 250.029,230.400 250.273 M218.224 252.886 C 218.055 253.703,217.710 254.543,217.457 254.753 C 215.957 255.998,184.001 256.359,174.600 255.237 C 169.607 254.641,164.334 254.325,167.255 254.796 C 178.562 256.621,213.027 257.023,217.308 255.380 C 218.080 255.084,218.928 253.108,218.701 252.132 C 218.592 251.660,218.422 251.927,218.224 252.886 M152.400 252.400 C 152.950 252.576,153.850 252.720,154.400 252.720 L 155.400 252.720 154.400 252.400 C 153.850 252.224,152.950 252.080,152.400 252.080 L 151.400 252.080 152.400 252.400 M236.800 252.421 C 236.370 252.714,236.654 252.754,237.800 252.562 C 239.784 252.230,240.104 251.998,238.567 252.006 C 237.925 252.009,237.130 252.196,236.800 252.421 M156.600 253.200 C 157.260 253.368,158.250 253.509,158.800 253.513 L 159.800 253.520 158.800 253.200 C 158.250 253.024,157.260 252.883,156.600 252.887 L 155.400 252.895 156.600 253.200 M161.400 254.023 C 162.280 254.205,163.450 254.344,164.000 254.331 C 164.641 254.316,164.426 254.189,163.400 253.977 C 162.520 253.795,161.350 253.656,160.800 253.669 C 160.159 253.684,160.374 253.811,161.400 254.023 M187.300 274.276 C 187.685 274.376,188.315 274.376,188.700 274.276 C 189.085 274.175,188.770 274.093,188.000 274.093 C 187.230 274.093,186.915 274.175,187.300 274.276 M195.511 274.693 C 196.451 274.778,197.891 274.777,198.711 274.691 C 199.530 274.605,198.760 274.536,197.000 274.537 C 195.240 274.539,194.570 274.609,195.511 274.693 M210.505 274.687 C 211.114 274.779,212.014 274.777,212.505 274.682 C 212.997 274.587,212.500 274.511,211.400 274.514 C 210.300 274.517,209.897 274.595,210.505 274.687 M77.200 281.433 C 77.200 282.462,86.338 289.701,92.400 293.474 C 96.748 296.180,107.015 301.335,111.806 303.217 C 121.421 306.996,132.338 310.264,143.800 312.797 C 144.680 312.992,145.850 313.257,146.400 313.388 C 167.881 318.483,204.464 320.177,232.400 317.371 C 242.735 316.333,241.811 316.453,249.100 315.207 C 253.684 314.423,260.236 313.186,261.800 312.809 C 262.680 312.598,265.830 311.852,268.800 311.153 C 274.261 309.867,276.156 309.236,274.628 309.212 C 274.204 309.205,273.304 309.377,272.628 309.593 C 263.872 312.393,240.017 316.284,224.800 317.395 C 223.150 317.515,220.593 317.711,219.117 317.830 C 210.437 318.527,181.035 317.763,171.400 316.590 C 165.050 315.817,156.969 314.606,152.400 313.744 C 149.430 313.183,146.190 312.579,145.200 312.401 C 140.941 311.635,131.219 309.268,130.305 308.775 C 129.923 308.569,129.306 308.400,128.934 308.400 C 128.177 308.400,125.771 307.689,124.705 307.151 C 124.323 306.958,123.659 306.800,123.229 306.800 C 122.799 306.800,122.336 306.620,122.200 306.400 C 122.064 306.180,121.601 306.000,121.171 306.000 C 120.741 306.000,120.032 305.820,119.595 305.600 C 119.158 305.380,118.442 305.020,118.005 304.800 C 117.568 304.580,116.936 304.400,116.600 304.400 C 116.264 304.400,115.677 304.235,115.295 304.033 C 113.855 303.271,110.793 302.000,110.399 302.000 C 110.174 302.000,109.677 301.829,109.295 301.621 C 108.913 301.412,105.720 299.856,102.200 298.164 C 98.680 296.471,95.048 294.572,94.128 293.943 C 93.208 293.315,92.263 292.800,92.028 292.800 C 91.793 292.800,91.600 292.620,91.600 292.400 C 91.600 292.180,91.407 292.000,91.172 292.000 C 90.770 292.000,87.235 289.742,86.800 289.207 C 86.690 289.072,85.972 288.523,85.205 287.986 C 84.438 287.450,83.511 286.738,83.145 286.405 C 82.779 286.072,81.717 285.170,80.785 284.400 C 79.853 283.630,78.666 282.552,78.146 282.004 C 77.625 281.456,77.200 281.199,77.200 281.433 M261.200 285.200 C 261.200 285.947,261.307 286.053,261.680 285.680 C 262.053 285.307,262.053 285.093,261.680 284.720 C 261.307 284.347,261.200 284.453,261.200 285.200 M258.000 292.874 C 257.010 293.776,256.560 294.324,257.000 294.092 C 257.752 293.694,260.352 291.181,259.975 291.216 C 259.879 291.225,258.990 291.971,258.000 292.874 M240.600 299.600 L 239.800 299.944 240.600 299.966 C 241.040 299.978,241.670 299.813,242.000 299.600 C 242.795 299.086,241.796 299.086,240.600 299.600 M237.000 300.400 C 235.981 300.838,237.032 300.838,238.400 300.400 C 239.204 300.143,239.243 300.077,238.600 300.068 C 238.160 300.062,237.440 300.211,237.000 300.400 M232.400 301.200 C 231.056 301.631,232.508 301.631,234.200 301.200 C 235.278 300.926,235.298 300.894,234.400 300.887 C 233.850 300.883,232.950 301.024,232.400 301.200 M214.200 302.057 C 217.320 302.390,224.797 302.392,227.600 302.060 C 228.810 301.917,225.750 301.800,220.800 301.800 C 215.850 301.800,212.880 301.915,214.200 302.057 " stroke="none" fill="#868887" fill-rule="evenodd"></path><path id="path4" d="M110.400 109.400 C 109.428 110.390,108.723 111.200,108.833 111.200 C 108.943 111.200,109.828 110.390,110.800 109.400 C 111.772 108.410,112.477 107.600,112.367 107.600 C 112.257 107.600,111.372 108.410,110.400 109.400 M312.688 125.800 C 312.811 127.120,312.976 128.275,313.056 128.367 C 313.335 128.689,313.116 125.388,312.793 124.400 C 312.589 123.779,312.549 124.309,312.688 125.800 M312.901 131.800 C 312.905 132.680,312.987 132.993,313.083 132.495 C 313.179 131.998,313.175 131.278,313.075 130.895 C 312.975 130.513,312.896 130.920,312.901 131.800 M316.685 162.402 C 316.908 167.039,317.103 167.659,317.125 163.800 C 317.136 162.040,317.004 160.241,316.832 159.802 C 316.661 159.364,316.595 160.534,316.685 162.402 M105.337 163.400 C 105.339 165.160,105.409 165.830,105.493 164.889 C 105.578 163.949,105.577 162.509,105.491 161.689 C 105.405 160.870,105.336 161.640,105.337 163.400 M26.800 188.229 C 26.800 189.854,26.867 189.990,27.400 189.457 C 27.730 189.127,28.000 188.304,28.000 187.629 C 28.000 186.803,27.803 186.400,27.400 186.400 C 26.954 186.400,26.800 186.870,26.800 188.229 M26.800 212.605 C 26.800 213.915,26.948 214.418,27.300 214.302 C 28.055 214.055,28.140 212.083,27.427 211.370 C 26.858 210.801,26.800 210.914,26.800 212.605 M96.441 245.633 C 96.391 247.384,97.185 251.658,97.656 252.180 C 97.845 252.389,98.000 252.974,98.000 253.480 C 98.000 253.986,98.180 254.400,98.400 254.400 C 98.620 254.400,98.800 254.760,98.800 255.200 C 98.800 255.640,98.980 256.000,99.200 256.000 C 99.420 256.000,99.600 256.360,99.600 256.800 C 99.600 257.240,99.780 257.600,100.000 257.600 C 100.220 257.600,100.400 257.836,100.400 258.125 C 100.400 258.413,100.715 258.998,101.100 259.425 C 101.485 259.851,102.300 260.937,102.911 261.837 C 104.155 263.671,108.559 268.114,111.000 269.998 C 111.880 270.678,112.874 271.459,113.209 271.735 C 114.625 272.900,117.577 274.800,117.972 274.800 C 118.207 274.800,118.400 274.950,118.400 275.132 C 118.400 275.315,118.895 275.720,119.500 276.032 C 120.105 276.344,120.690 276.699,120.800 276.821 C 121.004 277.047,130.750 281.804,132.200 282.385 C 132.640 282.561,134.350 283.188,136.000 283.778 C 137.650 284.368,139.313 285.019,139.695 285.225 C 140.077 285.431,140.741 285.600,141.171 285.600 C 141.601 285.600,142.064 285.780,142.200 286.000 C 142.336 286.220,142.876 286.400,143.400 286.400 C 143.924 286.400,144.464 286.580,144.600 286.800 C 144.736 287.020,145.366 287.200,146.000 287.200 C 146.634 287.200,147.264 287.380,147.400 287.600 C 147.536 287.820,148.177 288.000,148.824 288.000 C 149.471 288.000,150.000 288.180,150.000 288.400 C 150.000 288.620,150.720 288.800,151.600 288.800 C 152.480 288.800,153.200 288.980,153.200 289.200 C 153.200 289.420,153.920 289.600,154.800 289.600 C 155.680 289.600,156.400 289.780,156.400 290.000 C 156.400 290.220,157.109 290.400,157.976 290.400 C 158.843 290.400,159.664 290.580,159.800 290.800 C 159.936 291.020,160.836 291.200,161.800 291.200 C 162.764 291.200,163.664 291.380,163.800 291.600 C 163.936 291.820,164.926 292.000,166.000 292.000 C 167.074 292.000,168.064 292.180,168.200 292.400 C 168.336 292.620,169.481 292.800,170.744 292.800 C 172.007 292.800,173.211 292.967,173.420 293.171 C 173.629 293.375,175.330 293.646,177.200 293.773 C 179.070 293.900,182.760 294.192,185.400 294.422 C 188.040 294.652,193.554 294.928,197.654 295.036 L 205.109 295.233 205.293 293.916 C 205.395 293.192,205.617 292.240,205.787 291.800 C 206.143 290.879,203.920 292.992,203.461 294.011 C 203.315 294.335,203.291 294.100,203.408 293.490 C 203.599 292.492,203.527 292.403,202.699 292.611 C 201.706 292.860,187.536 292.195,181.000 291.593 C 175.578 291.093,168.307 290.053,164.400 289.219 C 163.410 289.008,161.700 288.648,160.600 288.420 C 152.936 286.830,140.839 283.198,136.504 281.187 C 135.572 280.754,134.715 280.400,134.600 280.400 C 134.288 280.400,128.356 277.629,127.200 276.944 C 126.650 276.617,125.885 276.251,125.500 276.129 C 125.115 276.007,124.800 275.748,124.800 275.553 C 124.800 275.359,124.517 275.200,124.172 275.200 C 123.827 275.200,122.759 274.660,121.800 274.000 C 120.841 273.340,119.934 272.800,119.785 272.800 C 119.336 272.800,112.266 267.769,110.829 266.427 C 110.092 265.739,108.929 264.785,108.245 264.307 C 106.917 263.380,106.584 263.044,104.400 260.429 C 103.630 259.507,102.690 258.381,102.312 257.929 C 101.933 257.476,101.516 256.766,101.385 256.352 C 101.254 255.939,101.000 255.600,100.822 255.600 C 100.643 255.600,100.264 255.015,99.979 254.300 C 99.694 253.585,99.156 252.550,98.785 252.000 C 98.414 251.450,97.889 250.010,97.618 248.800 C 97.348 247.590,96.982 246.060,96.804 245.400 L 96.482 244.200 96.441 245.633 M340.000 254.139 C 340.000 254.728,339.829 255.523,339.620 255.905 C 338.921 257.183,336.124 263.369,335.011 266.100 C 334.036 268.490,331.073 273.864,330.434 274.400 C 330.303 274.510,329.714 275.230,329.125 276.000 C 325.909 280.208,317.336 287.577,312.490 290.300 C 312.000 290.575,311.195 291.025,310.700 291.300 C 310.205 291.575,309.710 291.890,309.600 292.000 C 308.114 293.486,293.567 300.258,287.600 302.242 C 286.610 302.571,285.440 303.000,285.000 303.195 C 284.560 303.389,282.850 303.939,281.200 304.415 C 279.550 304.891,277.840 305.424,277.400 305.598 C 276.705 305.873,273.739 306.640,267.800 308.083 C 266.920 308.297,265.435 308.564,264.500 308.676 C 263.565 308.789,262.800 309.042,262.800 309.240 C 262.800 309.438,262.091 309.600,261.224 309.600 C 260.357 309.600,259.536 309.780,259.400 310.000 C 259.264 310.220,258.263 310.400,257.176 310.400 C 256.089 310.400,255.200 310.580,255.200 310.800 C 255.200 311.020,254.221 311.200,253.024 311.200 C 251.827 311.200,250.736 311.380,250.600 311.600 C 250.464 311.820,249.474 312.000,248.400 312.000 C 247.326 312.000,246.336 312.180,246.200 312.400 C 246.064 312.620,244.804 312.800,243.400 312.800 C 241.996 312.800,240.736 312.980,240.600 313.200 C 240.464 313.420,239.049 313.600,237.456 313.600 C 235.863 313.600,234.389 313.768,234.180 313.974 C 233.971 314.180,232.000 314.447,229.800 314.567 C 227.600 314.687,222.290 314.981,218.000 315.220 C 207.652 315.797,194.304 315.992,193.782 315.573 C 193.553 315.389,190.403 315.145,186.782 315.030 C 176.179 314.692,171.600 314.374,171.600 313.974 C 171.600 313.768,170.171 313.600,168.424 313.600 C 166.677 313.600,165.136 313.420,165.000 313.200 C 164.864 312.980,163.593 312.800,162.176 312.800 C 160.725 312.800,159.600 312.625,159.600 312.400 C 159.600 312.178,158.533 312.000,157.200 312.000 C 155.867 312.000,154.800 311.822,154.800 311.600 C 154.800 311.380,153.911 311.200,152.824 311.200 C 151.737 311.200,150.736 311.020,150.600 310.800 C 150.464 310.580,149.553 310.400,148.576 310.400 C 147.599 310.400,146.800 310.220,146.800 310.000 C 146.800 309.780,145.900 309.600,144.800 309.600 C 143.700 309.600,142.800 309.445,142.800 309.256 C 142.800 309.067,141.855 308.810,140.700 308.685 C 139.545 308.560,137.700 308.188,136.600 307.858 C 135.500 307.528,133.520 306.969,132.200 306.616 C 125.996 304.956,116.847 302.000,116.581 301.569 C 116.455 301.366,116.101 301.200,115.794 301.200 C 114.123 301.200,96.510 292.896,96.067 291.900 C 95.993 291.735,95.712 291.600,95.442 291.600 C 95.172 291.600,94.597 291.285,94.163 290.900 C 93.730 290.515,92.751 289.850,91.988 289.423 C 87.248 286.771,74.800 275.356,74.800 273.662 C 74.800 273.491,74.485 272.994,74.100 272.558 C 73.212 271.553,72.017 269.609,71.729 268.700 C 71.607 268.315,71.348 268.000,71.153 268.000 C 70.959 268.000,70.797 267.685,70.794 267.300 C 70.785 266.217,69.786 263.595,68.069 260.145 C 67.208 258.415,66.349 256.460,66.161 255.800 C 65.833 254.646,65.815 254.669,65.693 256.400 C 65.580 258.021,65.977 260.359,67.148 264.970 C 68.136 268.855,72.196 275.666,75.700 279.316 C 76.305 279.946,76.800 280.536,76.800 280.627 C 76.800 280.849,78.737 282.675,80.803 284.400 C 81.725 285.170,82.779 286.072,83.145 286.405 C 83.511 286.738,84.438 287.450,85.205 287.986 C 85.972 288.523,86.690 289.072,86.800 289.207 C 87.235 289.742,90.770 292.000,91.172 292.000 C 91.407 292.000,91.600 292.180,91.600 292.400 C 91.600 292.620,91.793 292.800,92.028 292.800 C 92.263 292.800,93.208 293.315,94.128 293.943 C 95.048 294.572,98.680 296.471,102.200 298.164 C 105.720 299.856,108.913 301.412,109.295 301.621 C 109.677 301.829,110.174 302.000,110.399 302.000 C 110.793 302.000,113.855 303.271,115.295 304.033 C 115.677 304.235,116.264 304.400,116.600 304.400 C 116.936 304.400,117.568 304.580,118.005 304.800 C 118.442 305.020,119.158 305.380,119.595 305.600 C 120.032 305.820,120.741 306.000,121.171 306.000 C 121.601 306.000,122.064 306.180,122.200 306.400 C 122.336 306.620,122.799 306.800,123.229 306.800 C 123.659 306.800,124.323 306.958,124.705 307.151 C 125.771 307.689,128.177 308.400,128.934 308.400 C 129.306 308.400,129.923 308.569,130.305 308.775 C 131.219 309.268,140.941 311.635,145.200 312.401 C 146.190 312.579,149.430 313.183,152.400 313.744 C 156.969 314.606,165.050 315.817,171.400 316.590 C 181.035 317.763,210.437 318.527,219.117 317.830 C 220.593 317.711,223.150 317.515,224.800 317.395 C 234.425 316.693,240.849 315.873,252.941 313.805 C 263.934 311.925,278.264 308.518,280.895 307.159 C 281.277 306.962,281.941 306.800,282.371 306.800 C 282.801 306.800,283.264 306.620,283.400 306.400 C 283.536 306.180,284.076 306.000,284.600 306.000 C 285.124 306.000,285.664 305.820,285.800 305.600 C 285.936 305.380,286.487 305.200,287.024 305.200 C 287.561 305.200,288.000 305.020,288.000 304.800 C 288.000 304.580,288.362 304.400,288.805 304.400 C 289.248 304.400,289.923 304.241,290.305 304.047 C 290.687 303.852,291.450 303.516,292.000 303.300 C 292.550 303.084,293.450 302.717,294.000 302.485 C 294.550 302.252,295.810 301.734,296.800 301.333 C 299.760 300.134,311.389 294.293,311.533 293.933 C 311.607 293.750,311.839 293.600,312.049 293.600 C 312.413 293.600,319.583 288.932,320.000 288.423 C 320.110 288.289,321.010 287.558,322.000 286.800 C 331.110 279.816,337.020 271.394,339.121 262.400 C 339.773 259.612,340.518 253.584,340.245 253.311 C 340.110 253.177,340.000 253.549,340.000 254.139 M304.028 258.200 C 304.009 258.420,303.365 259.263,302.597 260.073 C 301.828 260.884,301.200 261.718,301.200 261.927 C 301.200 262.137,300.705 262.631,300.100 263.025 C 299.495 263.419,298.550 264.208,298.000 264.779 C 296.176 266.670,291.116 270.337,288.000 272.025 C 287.010 272.561,286.110 273.100,286.000 273.221 C 285.669 273.588,275.742 278.400,275.317 278.400 C 275.100 278.400,274.400 278.650,273.761 278.956 C 273.123 279.262,271.880 279.821,271.000 280.197 C 270.120 280.574,269.040 281.037,268.600 281.227 C 266.227 282.250,260.612 283.931,260.270 283.720 C 260.026 283.569,259.973 283.844,260.132 284.437 C 260.273 284.967,260.394 285.940,260.401 286.600 C 260.408 287.398,260.524 287.624,260.746 287.274 C 261.187 286.579,263.103 285.600,264.022 285.600 C 264.424 285.600,264.864 285.420,265.000 285.200 C 265.136 284.980,265.651 284.800,266.144 284.800 C 266.637 284.800,267.211 284.657,267.420 284.482 C 267.629 284.307,268.520 283.924,269.400 283.632 C 271.350 282.985,273.700 281.967,277.404 280.165 C 278.945 279.414,280.430 278.800,280.704 278.800 C 280.977 278.800,281.200 278.654,281.200 278.475 C 281.200 278.296,281.830 277.902,282.600 277.600 C 283.370 277.298,284.000 276.938,284.000 276.800 C 284.000 276.662,284.630 276.302,285.400 276.000 C 286.170 275.698,286.800 275.304,286.800 275.125 C 286.800 274.946,287.070 274.800,287.400 274.800 C 287.730 274.800,288.000 274.620,288.000 274.400 C 288.000 274.180,288.255 274.000,288.567 274.000 C 288.878 274.000,289.193 273.852,289.267 273.672 C 289.340 273.491,290.047 272.906,290.837 272.372 C 292.777 271.059,295.001 269.260,296.533 267.762 C 299.178 265.176,302.800 261.200,302.800 260.882 C 302.800 260.700,303.173 260.151,303.629 259.661 C 304.084 259.172,304.369 258.553,304.260 258.286 C 304.152 258.019,304.047 257.980,304.028 258.200 M261.680 285.680 C 261.307 286.053,261.200 285.947,261.200 285.200 C 261.200 284.453,261.307 284.347,261.680 284.720 C 262.053 285.093,262.053 285.307,261.680 285.680 " stroke="none" fill="#6d6c6c" fill-rule="evenodd"></path></g></svg>